<?xml version="1.0" encoding="utf-8"?>
<!-- Generator: Adobe Illustrator 14.0.0, SVG Export Plug-In . SVG Version: 6.00 Build 43363)  -->
<!DOCTYPE svg PUBLIC "-//W3C//DTD SVG 1.1//EN" "http://www.w3.org/Graphics/SVG/1.1/DTD/svg11.dtd">
<svg version="1.1" id="Layer_1" xmlns="http://www.w3.org/2000/svg" xmlns:xlink="http://www.w3.org/1999/xlink" x="0px" y="0px"
	 width="400px" height="400px" viewBox="0 0 400 400" enable-background="new 0 0 400 400" xml:space="preserve">
<rect x="0" fill="none" stroke="#000000" stroke-width="3.7403" width="400" height="400"/>
<path fill-rule="evenodd" clip-rule="evenodd" fill="#999999" d="M135.687,174.497c-0.051-1.522-0.397-3.171-0.762-4.711
	c-0.688,0.6-1.417,1.147-2.214,1.588c-2.538,1.403-4.948,1.565-7.069,0.896c-0.26,0.327-0.521,0.652-0.794,0.972
	c0.323,0.054,0.646,0.108,0.97,0.162c2.919,0.486,5.781,0.82,8.741,0.892C134.774,174.299,135.192,174.385,135.687,174.497z"/>
<path fill-rule="evenodd" clip-rule="evenodd" fill="#999999" d="M220.856,125.488c1.085-0.994,2.245-1.944,3.494-2.937
	c6.407-5.091,13.814-7.155,21.622-8.963c7.618-1.765,15.049-4.278,22.987-4.307c-0.505-3.655-0.276-7.433-0.276-11.115
	c0,0-53.681,0-57.423,0c-14.624,0-29.581,0.643-44.112-0.037c-0.632,1.52-2.565,1.215-3.005,2.003
	c-0.898,1.608-0.042,3.407,0.501,5.167c-2.403,0.092-5.649,0.6-7.96-0.015c-0.891-0.236-1.659-1.205-2.534-1.337
	c-1.46-0.219-1.188,0.576-2.313,0.763c-3.368,0.56-6.698,1.635-10.077,2.24c-7.293,1.308-14.725,1.951-22.133,1.481
	c-5.319-0.339-10.438-0.802-15.436-2.769c-3.207-1.263-7.438-3.132-8.44,1.913c-1.563,7.86,13.279,14.545,18.921,16.407
	c15.54,5.131,32.118,5.179,47.846,9.479c3.946,1.079,5.535,4.858,4.889,8.611c-1.396,8.109-6.547,8.557-13.67,8.982
	c-1.141,3.591-4.096,6.514-6.584,9.29c-3.277,3.658-3.422,3.478-2.06,7.975c0.853,2.814,1.292,7.804,3.861,9.699
	c3.021,2.229,6.856-0.989,10.222-1.076c7.036-0.18,14.1,0,21.138,0c16.004,0,32.009,0,48.013,0c4.434,0,8.867,0,13.302,0
	c-1.276-4.813-1.653-9.987-0.325-14.726c-0.626,2.232-18.875-8.692-20.294-10.337c-1.323-1.535-1.925-3.248-2.969-4.91
	c-0.976-1.554-2.44-2.85-3.319-4.514c-2.016-3.812-0.62-8.448,1.642-11.816C217.719,128.621,219.2,127.004,220.856,125.488z"/>
<g>
	<g>
		<path d="M165.485,99.24c7.87,1.164,15.867,0.826,23.808,0.818c9.188-0.009,18.376,0.007,27.563-0.085
			c9.188-0.092,18.371-0.052,27.56,0.079c8.569,0.123,17.334,0.701,25.831-0.623c0.474-0.074,0.474-0.879,0-0.953
			c-7.845-1.222-15.944-0.815-23.859-0.661c-9.188,0.18-18.376,0.229-27.563,0.137c-9.187-0.092-18.373-0.088-27.56-0.102
			c-8.581-0.012-17.273-0.442-25.779,0.815C165.198,98.708,165.198,99.198,165.485,99.24L165.485,99.24z"/>
	</g>
</g>
<g>
	<g>
		<path d="M268.397,101.136c-0.44,3.087-1.033,6.065-0.018,9.07c0.328-0.19,0.657-0.382,0.985-0.573
			c-1.479-1.434-4.219-0.983-6.057-0.658c-5.766,1.021-11.463,2.898-17.195,4.149c-11.342,2.476-22.809,6.487-29.938,16.258
			c-6.606,9.052-1.702,18.842,6.212,25.015c3.358,2.619,7.872,5.177,12.248,5.374c1.034,0.046,2.285,5.298,2.781,6.298
			c0.914,1.841,1.845,2.945,3.474,4.157c1.112,0.828,2.418-0.958,1.456-1.887c-2.646-2.554-3.386-6.32-4.771-9.598
			c-0.277-0.656-0.629-1.499-1.396-1.71c-2.541-0.699-4.568-0.744-7.074-1.858c-9.721-4.326-18.897-15.916-10.228-25.703
			c3.163-3.57,6.333-6.608,10.564-8.83c5.036-2.643,9.963-4.316,15.487-5.59c4.252-0.98,8.477-2.059,12.715-3.095
			c2.08-0.509,8.873-3.255,10.889-1.488c0.398,0.349,0.97,0.106,1.007-0.417c0.205-2.89,0.208-5.873-0.019-8.762
			C269.472,100.689,268.493,100.459,268.397,101.136L268.397,101.136z"/>
	</g>
</g>
<g>
	<g>
		<path d="M239.527,169.927c0.519,2.184,0.564,4.403,0.438,6.636c-0.056,0.988-0.418,1.972-0.418,2.95
			c0,0.244,0.062,0.471,0.184,0.682c0.127,0.972-0.435,1.56-1.684,1.762c-0.034-0.582-0.427-0.929-0.988-0.988
			c-3.529-0.373-7.04-0.819-10.582-1.08c-1.002-0.073-9.569,0.861-9.912,0.356c-3.301-4.861-8.976-7.699-14.45-9.304
			c-5.489-1.608-11.611-1.649-17.021,0.211c-3.892,1.338-7.913,2.412-11.763,3.814c-2.774,1.011-3.042,2.66-4.794,4.639
			c0.43,0.179,0.859,0.356,1.289,0.534c0.011-0.194,0.021-0.39,0.032-0.584c0.023-0.445-0.377-0.765-0.787-0.787
			c-7.775-0.423-15.416,0.218-23.096-1.351c0.233,0.412,0.468,0.825,0.702,1.237c1.419-4.259,0.638-8.753,0.144-13.118
			c-0.065-0.582-0.456-1.142-1.113-1.113c-0.195,0.008-0.39,0.017-0.585,0.024c0.363,0.363,0.726,0.726,1.089,1.089
			c-0.017-0.39-0.033-0.778-0.05-1.168c-0.347,0.347-0.692,0.692-1.039,1.039c0.195-0.009,0.39-0.017,0.585-0.025
			c1.308-0.055,1.308-1.973,0-2.027c-0.195-0.009-0.39-0.017-0.585-0.025c-0.584-0.024-1.016,0.492-1.039,1.039
			c-0.017,0.39-0.033,0.778-0.05,1.168c-0.025,0.611,0.516,1.064,1.089,1.089c0.195,0.008,0.39,0.017,0.585,0.024
			c-0.371-0.371-0.742-0.742-1.113-1.113c0.381,3.988,1.446,8.675,0.144,12.583c-0.165,0.495,0.186,1.132,0.702,1.237
			c2.786,0.569,22.946,2.071,22.876,0.782c0.047,0.867,1.198,1.007,1.482,0.201c1.429-4.054,7.838-4.486,11.205-5.714
			c3.821-1.393,7.609-2.354,11.689-2.507c8.339-0.314,17.672,3.335,22.482,10.331c0.305,0.443,0.807,0.704,1.352,0.55
			c3.295-0.937,6.563-0.928,9.95-0.765c1.087,0.052,9.66,0.2,9.798,1.153c0.079,0.548,0.701,0.723,1.153,0.655
			c6.493-0.971,5.582-10.192,4.285-14.721C241.309,167.917,239.189,168.506,239.527,169.927L239.527,169.927z"/>
	</g>
</g>
<g>
	<g>
		<path d="M148.042,163.069c4.745,0.032,9.38-3.07,13.118-5.7c4.249-2.991,6.754-5.714,7.852-10.8
			c0.877-4.06,1.428-6.524-1.876-9.85c-1.529-1.54-4.461-2.156-6.435-2.643c-1.994-0.492-3.667-1.448-5.65-1.713
			c-1.041-0.14-1.424,1.511-0.529,1.953c2.021,1,3.211,1.646,5.539,2.082c2.827,0.53,6.171,1.88,7.296,4.918
			c0.737,1.992-0.681,5.355-1.207,7.367c-1.855,7.089-12.645,10.459-18.335,13.543C147.411,162.445,147.604,163.065,148.042,163.069
			L148.042,163.069z"/>
	</g>
</g>
<g>
	<g>
		<path d="M164.397,99.898c-2.782,0.317-1.689,6.482-1.42,8.092c1.352,8.073-1.411,18.124,3.656,25.239
			c0.531,0.745,1.607,0.287,1.449-0.611c-0.673-3.809-1.795-7.351-2.107-11.252c-0.27-3.375-0.191-6.776-0.377-10.157
			c-0.122-2.228-2.997-9.504-1.09-10.897C164.664,100.197,164.64,99.87,164.397,99.898L164.397,99.898z"/>
	</g>
</g>
<g>
	<g>
		<path d="M160.962,104.538c-2.242-0.542-9.654-2.56-10.477,0.524c-0.656,2.461,0.931,5.646,1.192,8.088
			c0.506,4.733-0.689,9.632,0.888,14.226c0.323,0.943,1.813,0.828,1.791-0.242c-0.116-5.752-0.033-11.968-1.382-17.584
			c-0.783-3.262-0.924-4.072,2.493-4.146c1.844-0.04,3.678-0.002,5.494-0.356C161.222,104.997,161.208,104.597,160.962,104.538
			L160.962,104.538z"/>
	</g>
</g>
<g>
	<g>
		<path d="M148.585,105.813c-2.342,0.77-4.637,0.792-7.058,0.79c-2.994-0.004-5.918,0.627-8.915,0.837
			c-5.271,0.37-10.661,0.189-15.938-0.021c-6.628-0.264-11.339-2.68-17.235-5.228c-1.597-0.691-4.372-2.909-6.241-1.982
			c-0.301,0.149-0.498,0.527-0.49,0.854c0.114,4.768,4.01,8.526,6.926,11.873c4.653,5.34,11.281,9.42,17.685,12.273
			c5.893,2.626,12.337,3.742,18.726,4.27c5.882,0.485,15.369-2.314,19.493,3.01c0.563,0.727,1.53-0.197,1.191-0.919
			c-3.609-7.686-13.85-4.694-20.685-5.077c-13.081-0.733-25.182-6.324-34.529-15.437c-2.001-1.95-4.207-4.216-5.627-6.608
			c-1.486-2.505-0.598-1.565,1.085-1.07c5.734,1.688,10.292,4.551,16.39,5.334c6.284,0.808,12.946,0.433,19.25,0.042
			c5.353-0.331,11.011-0.805,16.055-2.646C148.85,106.042,148.776,105.75,148.585,105.813L148.585,105.813z"/>
	</g>
</g>
<g>
	<g>
		<path d="M168.564,178.256c-0.115-0.267,0.272-1.866,0.285-2.21c0.04-1.172,0.063-2.342,0.122-3.513
			c0.126-2.509,0.296-4.92-0.242-7.396c-0.086-0.392-0.688-0.381-0.779,0c-0.973,4.045-1.783,9.353-0.69,13.426
			c0.137,0.511,0.979,0.71,1.217,0.159C168.548,178.555,168.639,178.431,168.564,178.256L168.564,178.256z"/>
	</g>
</g>
<g>
	<g>
		<path d="M166.723,165.683c0.076-0.964,7.141-4.698,8.313-5.502c5.115-3.506,12.076-4.15,18.079-4.337
			c6.227-0.194,13.771,0.084,18.894,4.064c3.078,2.393,3.058,7.059,6.982,8.559c0.601,0.229,1.007-0.617,0.6-1.029
			c-3.936-3.987-4.742-8.647-10.163-11.085c-5.3-2.383-12.114-2.217-17.785-1.936c-5.545,0.275-11.078,1.455-16.037,3.983
			c-1.896,0.968-9.352,4.789-9.155,7.282C166.463,165.86,166.709,165.86,166.723,165.683L166.723,165.683z"/>
	</g>
</g>
<g>
	<g>
		<path d="M215.746,168.973c-0.479,2.831-1.326,6.673,0.289,9.263c0.307,0.492,1.026,0.274,1.059-0.287
			c0.072-1.297-0.214-2.604-0.241-3.908c-0.032-1.553,0.209-3.109,0.452-4.638C217.465,168.387,215.921,167.944,215.746,168.973
			L215.746,168.973z"/>
	</g>
</g>
<g>
	<g>
		<path d="M146.402,164.185c2.75-1.33,6.073-4.495,7.712-7.055c0.751-1.173,1.355-2.005,1.941-3.249
			c0.484-1.028-0.008-2.337,0.265-3.462c0.061-0.247-0.241-0.433-0.427-0.249c-1.546,1.525-2.396,3.364-3.632,5.146
			c-1.969,2.84-5.396,4.674-6.956,7.771C144.933,163.827,145.672,164.539,146.402,164.185L146.402,164.185z"/>
	</g>
</g>
<g>
	<g>
		<path d="M155.977,151.13c-0.16,0.133-0.32,0.265-0.481,0.396c-0.067,0.055-0.073,0.17-0.031,0.239
			c0.19,0.311,0.321,0.497,0.696,0.547c1.11,0.146,2.009,0.467,3.154,0.375c1.726-0.14,3.514-1.038,4.699-2.28
			c0.38-0.397,0.148-1.27-0.494-1.193c-1.559,0.188-2.992,0.868-4.503,1.274c-1.08,0.291-2.904,0.016-3.553,1.078
			c0.104,0.08,0.207,0.159,0.311,0.239c0.131-0.161,0.263-0.321,0.396-0.481C156.282,151.187,156.114,151.018,155.977,151.13
			L155.977,151.13z"/>
	</g>
</g>
<g>
	<g>
		<path d="M185.866,226.822c-1.764,0.947-3.435,2.643-3.435,4.793c0,1.451,2.801,2.553,3.941,2.439
			c3.186-0.318,5.164-2.846,7.662-4.611c2.875-2.031,4.917-1.459,7.521,0.283c1.029,0.689,2.269,1.498,3.578,1.5
			c4.493,0.01,6.356-4.91,2.383-7.598c-6.761-4.57-16.165-2.154-21.784,3.223c-0.371,0.355,0.008,1.012,0.501,0.861
			c4.711-1.422,8.702-4.268,13.773-4.436c1.862,0.039,3.608,0.516,5.237,1.426c0.66,4.354-0.285,5.543-2.837,3.568
			c-1.117-0.641-1.971-1.398-3.254-1.637c-1.974-0.365-4.911,1.994-6.389,2.963c-1.561,1.021-2.854,2.193-4.61,2.918
			c-5.937,2.451-2.89-3.33-1.663-5.068C186.772,227.051,186.241,226.619,185.866,226.822z"/>
	</g>
</g>
<g>
	<g>
		<path d="M202.228,181.641c2.392,7.756,2.374,15.445,2.317,23.533c-0.008,1.096-0.002,1.994,0.095,3.053
			c0.257,2.813-1.645,1.465-3.241,0.738c-1.599-0.729-2.419-1.602-4.126-1.248c-0.311,0.063-0.476,0.48-0.302,0.742
			c1.42,2.145,9.377,6.723,9.703,1.578c0.279-4.412-0.048-9.113-0.288-13.529c-0.127-2.322-0.473-4.754-0.794-7.058
			c-0.415-2.98-2.027-5.098-2.989-7.912C202.523,181.302,202.154,181.4,202.228,181.641L202.228,181.641z"/>
	</g>
</g>
<g>
	<g>
		<path d="M226.921,195c-1.049,8.746,0.707,17.541,0.13,26.338c-0.36,5.498-2.08,10.607-4.994,15.262
			c-2.711,4.332-6.423,5.08-10.313,7.736c-1.833,1.252-2.618,3.795-3.729,5.602c-3.782,6.156-10.847,5.172-16.762,3.336
			c-3.977-1.234-7.932-2.699-12.071-3.418c-5.53-0.961-10.186-3.977-13.376-8.666c-0.521-0.766-1.939-0.305-1.582,0.668
			c1.592,4.322,4.741,6.596,8.498,8.98c2.188,1.389,4.866,1.4,7.333,1.785c2.953,0.463,5.368,1.953,8.27,2.537
			c9.298,1.867,17.266,3.438,22.425-6.162c2.206-4.105,6.222-4.525,9.611-7.336c3.617-3.002,5.779-8.205,7.127-12.563
			c3.3-10.668,1.597-23.35,0.085-34.188C227.515,194.51,226.961,194.664,226.921,195L226.921,195z"/>
	</g>
</g>
<g>
	<g>
		<path d="M151.7,186.877c-3.243-0.314-6.642-0.071-8.688,2.916c-1.419,2.072-2.857,5.55-1.202,7.986
			c2.345,3.451,3.218,8.186,6.585,10.799c1.6,1.242,2.649,1.156,3.835,3.18c0.555,0.949,1.115,1.867,2.111,2.346
			c0.543,0.262,1.394,0.207,1.674-0.439c0.068-0.158,0.137-0.316,0.206-0.475c0.272-0.629-0.046-1.281-0.765-1.33
			c-0.294-0.021-1.257-2.283-1.401-2.529c-0.915-1.563-2.563-2.012-4.102-2.771c-2.107-1.039-3.685-5.313-4.87-7.238
			c-1.598-2.594-2.74-4.451-1.334-7.545c1.422-3.127,4.979-3.971,7.95-4.333C152.06,187.398,152.067,186.914,151.7,186.877
			L151.7,186.877z"/>
	</g>
</g>
<g>
	<g>
		<path d="M150.343,193.762c-0.061-0.773-0.618-1.732-1.566-1.473c-1.127,0.311-1.33,2.188-1.589,3.104
			c-0.799,2.818-0.238,6.662,3.571,5.684c-0.439-0.18-0.879-0.357-1.318-0.537c0.835,1.725-0.365,4.793,2.26,5.123
			c0.302,0.037,0.687-0.258,0.731-0.557c0.156-1.041-0.294-1.93-0.357-2.988c-0.061-1.002-0.175-1.852-0.618-2.756
			c-0.164-0.336-0.632-0.613-1.008-0.578c-1.778,0.172-1.43-1.529-1.226-2.83c0.073-0.471,0.127-0.943,0.198-1.414
			c0.052-0.342,0.21-1.922,0.299-0.777C149.751,194.158,150.374,194.162,150.343,193.762L150.343,193.762z"/>
	</g>
</g>
<g>
	<g>
		<path d="M143.898,187.697c-0.162,0.198-1.694-0.095-1.954-0.13c-1.385-0.188-2.354-4.003-2.533-4.912
			c-0.1-0.505-0.405-1.169-0.733-1.572c-0.314-0.387-3.996-3.473-0.885-3.879c4.944-0.646,9.297,5.037,14.447,2.833
			c0.418-0.179,0.396-0.888,0-1.074c-2.082-0.98-4.501-0.877-6.731-1.525c-2.475-0.72-4.941-1.778-7.434-2.316
			c-2.456-0.529-4.564,2.588-3.213,4.674c1.379,2.13,3.598,2.053,3.508,5.318c-0.057,2.049,0.431,3.417,2.336,4.45
			c1.216,0.66,4.89,0.245,3.834-1.783C144.426,187.561,144.062,187.497,143.898,187.697L143.898,187.697z"/>
	</g>
</g>
<g>
	<g>
		<path d="M162.019,205.611c-5.213,6.32-3.693,15.609-1.604,22.967c2.472,8.701,9.791,11.373,18,11.865
			c0.573,0.033,0.569-0.73,0.124-0.918c-2.196-0.92-4.384-1.611-6.674-2.258c-4.876-1.375-7.59-4.662-9.302-9.283
			c-1.151-3.105-1.149-6.49-1.774-9.713c-0.437-2.254-0.088-10.371,1.489-12.461C162.392,205.662,162.138,205.467,162.019,205.611
			L162.019,205.611z"/>
	</g>
</g>
<g>
	<g>
		<path d="M223.495,140.611c0.101,0,0.101-0.156,0-0.156S223.395,140.611,223.495,140.611L223.495,140.611z"/>
	</g>
</g>
<g>
	<path fill-rule="evenodd" clip-rule="evenodd" fill="#FF0000" d="M192.674,176.917c4.016-3.746,8.039-3.704,12.545-1.5
		c3.423,1.674,6.604,2.998,8.943-0.178c1.701-2.31,2.839-4.362,5.012-6.315c1.807-1.624,3.78-3.169,5.443-4.944
		c3.307-3.528,4.365-6.271,9.813-4.306c3.367,1.215,6.641,3.892,9.563,5.938c4.323,3.027,6.035-0.263,9.943-2.455
		c1.888-1.06,9.646-3.749,9.768,0.579c0.085,3.038-8.89,2.327-11.029,2.626c-4.004,0.56-7.834,2.1-11.842,2.6
		c-3.392,0.424-6.815-0.646-10.28-0.519c-2.331,0.085-4.102-0.382-3.918,2.385c0.143,2.141,1.793,3.451,3.733,3.995
		c3.599,1.011,7.492-0.358,11.053-0.858c4.531-0.635,9.117-0.868,13.606-1.794c1.216-0.251,2.716-0.41,3.653-1.104
		c-1.248,0.926-1.371,1.729-2.529,3.002c-1.518,1.666-3.501,1.434-5.49,1.552c-2.953,0.176-9.407,0.897-10.26,4.56
		c-0.681,2.924,7.266,2.505,5.341,4.806c-1.219,1.458-9.681-0.946-11.322-1.623c-3.115-1.284-5.661-2.267-9.246-1.505
		c-2.625,0.558-4.905,2.108-7.749,1.129c-1.471-0.506-1.42-1.323-2.439-2.081c-1.377-1.023-2.928-1.495-4.611-1.987
		c-3.597-1.051-12.09-3.909-15.948-1.693c-1.506,0.864-2.548,4.001-5.001,2.943"/>
	<g>
		<path d="M192.853,177.095c5.497-4.54,9.112-2.083,14.771-0.166c2.23,0.756,3.823,0.941,5.861-0.294
			c0.689-0.417,1.648-1.915,2.072-2.501c1.633-2.256,3.29-4.208,5.393-6.021c3.175-2.738,7.089-8.958,11.791-8.24
			c4.001,0.611,7.725,4.072,10.895,6.348c1.488,1.068,3.585,1.816,5.357,0.954c2.768-1.347,4.907-3.423,7.88-4.41
			c0.611-0.19,1.231-0.347,1.859-0.47c1.783-0.671,3.009,0.06,3.676,2.191c-1.206,0.928-3.502,0.835-4.903,0.919
			c-6.729,0.407-13.408,3.091-20.075,2.799c-3.493-0.153-11.271-2.805-11.582,2.623c-0.266,4.641,6.313,5.465,9.469,4.999
			c4.881-0.719,9.722-1.485,14.627-2.057c3.059-0.356,6.354-0.647,9.138-2.019c-0.321-0.415-0.643-0.831-0.963-1.247
			c-2.436,2.316-4.866,4.137-8.264,4.375c-1.439,0.101-2.854,0.346-4.263,0.647c-2.654,0.57-4.978,1.845-5.963,4.439
			c-0.602,1.585,1.227,2.645,2.358,3.14c0.36,0.157,4.386,1.361,2.111,1.537c-2.185,0.168-4.62-0.629-6.717-1.184
			c-3.58-0.947-6.705-2.63-10.496-2.651c-3.076-0.017-7.86,3.47-10.601,0.318c-1.464-1.684-3.66-2.295-5.717-2.918
			c-3.896-1.181-7.84-2.205-11.924-2.377c-1.118-0.047-2.577,0.067-3.591,0.539c-1.995,0.927-3.087,3.811-5.63,3.476
			c-0.363-0.048-0.431,0.547-0.085,0.631c0.773,0.188,1.603,0.543,2.357-0.033c2.309-1.76,3.545-3.443,6.948-3.462
			c4.322-0.022,13.436,2.058,16.557,5.229c3.014,3.063,6.543,1.43,10.187,0.425c4.527-1.25,10.16,2.141,14.638,3.113
			c1.68,0.364,4.854,1.232,6.283-0.196c1.042-1.043,0.36-2.154-0.651-2.787c-1.043-0.653-2.454-0.864-3.569-1.351
			c0.366-1.105,0.732-2.211,1.099-3.316c0.902-0.461,1.846-0.805,2.829-1.031c1.247-0.348,2.555-0.471,3.839-0.594
			c1.853-0.177,3.509-0.145,5.289-0.709c1.715-0.544,2.896-2.992,4.098-4.137c0.685-0.651-0.182-1.633-0.963-1.247
			c-3.974,1.96-9.123,1.906-13.452,2.375c-4.679,0.507-9.571,2.198-14.25,1.308c-2.494-3.554-2.502-5.166-0.024-4.835
			c1.154-0.026,2.305,0.03,3.451,0.171c2.316,0.199,4.497,0.482,6.829,0.345c4.211-0.249,8.156-2.26,12.356-2.65
			c2.687-0.25,8.936,0.802,10.762-1.946c1.787-2.688-1.167-4.454-3.548-4.539c-5.443-0.192-11.146,7.231-16.054,4.395
			c-4.572-2.644-10.166-8.854-15.957-5.798c-2.61,1.378-4.692,4.919-6.85,6.896c-2.591,2.374-8.901,11.045-12.495,10.431
			c-3.424-0.585-6.005-2.733-9.592-2.924c-2.671-0.142-5.026,1.521-6.96,3.131C192.244,176.947,192.604,177.301,192.853,177.095
			L192.853,177.095z"/>
	</g>
</g>
<g>
	<g>
		<path d="M148.412,178.882c0.377,1.093,1.144,3.271,2.867,2.262c0.522-0.306,0.291-0.153,0.05-0.188
			c0.401,0.057,0.572-0.024,0.966-0.181c0.926-0.367,1.807-0.966,2.67-1.462c1.989-1.144,1.645,1.953,1.816,3.058
			c0.194,1.246,0.708,2.094,1.506,3.046c1.289,1.538,1.272,2.864,2.022,4.551c0.378,0.85,0.871,1.774,1.73,2.198
			c0.54,0.266,1.372,0.08,1.495-0.609c0.174-0.971-0.077-1.509-0.669-2.304c-0.783-1.051-0.539-2.553-1.535-3.585
			c-1.513-1.566-2.72-2.577-2.792-4.917c-0.032-1.066-0.132-2.042-0.766-2.914c-0.924-1.271-2.644-0.869-3.847-0.299
			c-0.984,0.467-1.909,1.081-2.827,1.667c-0.589,0.376-0.155,0.127-0.051,0.17c-0.761-0.311-1.599-0.326-2.364-0.7
			C148.55,178.608,148.356,178.717,148.412,178.882L148.412,178.882z"/>
	</g>
</g>
<g>
	<g>
		<path d="M156.71,192.162c0.4,0.039,0.792,0.189,1.173,0.311c0.484,0.152,0.889,0.17,1.382,0.053
			c0.682-0.162,0.9-1.268,0.206-1.578c-0.84-0.375-1.834-0.566-2.761-0.536C155.563,190.448,155.605,192.053,156.71,192.162
			L156.71,192.162z"/>
	</g>
</g>
<g>
	<g>
		<path d="M227.858,218.57c0.906-2.334,7.586-3.289,9.797-4.004c4.643-1.502,13.514-4.994,17.552-1.559
			c8.784,7.475,9.739,20.467,16.138,29.582c3.508,4.996,7.459,9.68,11.163,14.529c3.161,4.137,3.226,9.705,6.365,13.887
			c4.374,5.826,18.129,12.568,14.506,21.863c-0.205,0.525,0.619,0.84,0.889,0.375c4.561-7.877-5.63-17.355-11.118-21.695
			c-5.411-4.279-5.629-12.1-9.809-17.473c-5.387-6.924-11.64-13.586-14.859-21.844c-3.229-8.279-7.845-24.379-19.355-22.625
			c-5.079,0.773-10.443,3.279-15.28,5.092c-1.804,0.676-5.726,1.664-6.362,3.768C227.408,218.713,227.769,218.799,227.858,218.57
			L227.858,218.57z"/>
	</g>
</g>
<g>
	<g>
		<path d="M156.135,223.025c-3.146-2.029-6.521-1.502-10.229-1.893c-6.176-0.65-12.179-1.973-18.414-2.207
			c-0.679-0.025-1.243,0.586-1.244,1.244c0,0.08-6.99,3.248-7.798,3.752c-2.526,1.58-5.297,3.84-7.096,6.227
			c-4.442,5.896-7.457,13.098-11.354,19.396c-3.835,6.195-7.013,12.439-7.923,19.74c-1.16,9.307,1.002,19.484,2.177,28.717
			c0.108,0.854,1.255,0.875,1.342,0c0.771-7.75-1.046-15.596-1.28-23.348c-0.255-8.398,2.688-15.443,6.849-22.547
			c3.395-5.795,6.666-11.563,9.848-17.473c1.647-3.063,3.871-4.826,6.389-7.1c3.253-2.939,7.072-3.436,10.72-5.465
			c0.381-0.211,0.617-0.645,0.616-1.074c0-0.275,0-0.551,0-0.826c-0.415,0.414-0.829,0.828-1.244,1.244
			c5.492,0.195,10.941,1.115,16.37,1.898c3.661,0.527,8.465-0.574,11.877,0.656C156.311,224.174,156.607,223.33,156.135,223.025
			L156.135,223.025z"/>
	</g>
</g>
<g>
	<g>
		<path d="M157.092,225.682c-2.52,3.285-7.166,5.793-10.208,8.67c-2.008,1.9-4.329,3.359-6.269,5.32
			c-1.273,1.289-3.69,4.957-5.61,4.91c-0.701-0.018-1.09,0.551-1.172,1.172c-0.268,0.877-0.535,1.756-0.803,2.635
			c-0.336,0.57-0.181,1.508,0.473,1.805c7.78,3.529,12.953,11.764,22.372,11.145c0.646-0.041,1.095-1.049,0.368-1.359
			c-3.974-1.695-7.925-3.096-11.54-5.516c-3.398-2.275-6.356-5.125-10.184-6.68c0.263,0.645,0.525,1.291,0.788,1.938
			c0.738-1.357,0.981-2.424,0.869-3.967c-0.391,0.391-0.781,0.781-1.172,1.172c3.739-0.094,6.818-5.818,9.448-7.982
			c2.572-2.115,4.837-4.518,7.27-6.781c2.039-1.896,4.985-3.426,6.275-5.951C158.315,225.594,157.495,225.156,157.092,225.682
			L157.092,225.682z"/>
	</g>
</g>
<g>
	<g>
		<path d="M227.127,219.063c1.929,2.059,4.558,3.141,6.949,4.586c3.396,2.055,6.598,4.221,9.752,6.623
			c2.88,2.193,5.925,4.08,9.029,5.936c2.541,1.518,6.331,0.852,7.699,4.139c0.213-0.523,0.426-1.047,0.639-1.568
			c-5.41,2.357-10.451,5.191-14.958,9.02c-3.674,3.121-10.223,5.301-12.077,10.053c-0.414,1.063,1.054,1.68,1.772,1.033
			c3.39-3.061,7.795-4.957,11.078-8.029c4.556-4.264,9.908-7.191,15.587-9.678c0.511-0.225,0.856-1.051,0.639-1.568
			c-0.789-1.873-1.861-2.961-3.644-3.975c-3.212-1.828-6.777-2.598-10.011-4.609c-3.489-2.172-6.352-4.943-9.927-6.953
			c-3.843-2.16-7.702-4.158-11.598-6.215C227.283,217.447,226.523,218.418,227.127,219.063L227.127,219.063z"/>
	</g>
</g>
<g>
	<g>
		<path d="M302.626,282.477c0.543,4.99,4.329,7.75,9.208,6.811c2.839-0.547,5.475-2.367,7.925-3.791
			c2.455-1.424,6.807-2.309,8.502-4.492c0.154-0.199,0.209-0.482,0-0.674c-2.675-2.463-7.601,1.094-10.151,2.344
			c-2.406,1.18-4.53,2.783-7.086,3.674c-3.656,1.273-5.307-2.01-7.384-4.291C303.311,281.697,302.571,281.957,302.626,282.477
			L302.626,282.477z"/>
	</g>
</g>
<g>
	<g>
		<path d="M127.391,279.775c0.054-0.012,0.107-0.023,0.16-0.037c-0.414-0.234-0.829-0.471-1.244-0.707
			c2.524,9.977-2.662,20.168-3.04,30.061c-0.04,1.039,1.432,1.15,1.738,0.234c1.761-5.26,3.212-10.904,3.858-16.426
			c0.539-4.605,1.359-10.326-0.708-14.648c-0.814-1.703-3.075,1.033-1.142,1.486C127.143,279.77,127.258,279.807,127.391,279.775
			L127.391,279.775z"/>
	</g>
</g>
<g>
	<g>
		<path d="M209.669,192.129c3.789,0.654,7.223,1.766,11.102,1.49c3.853-0.273,7.979-1.119,11.502-2.689
			c0.635-0.283,0.31-1.319-0.349-1.287c-3.326,0.162-6.538,1.198-9.811,1.787c-4.239,0.762-8.127-0.324-12.338-0.084
			C209.35,191.369,209.204,192.049,209.669,192.129L209.669,192.129z"/>
	</g>
</g>
<g>
	<g>
		<path d="M210.816,194.467c2.586-0.715,8.513,0.779,11.227,1.154c2.94,0.408,5.941,0.754,8.888,0.311
			c0.747-0.111,0.626-1.199,0-1.389c-3.577-1.084-7.651-1.227-11.37-1.504c-3.048-0.227-6.379-1.09-9.059,0.682
			C210.122,193.971,210.355,194.596,210.816,194.467L210.816,194.467z"/>
	</g>
</g>
<g>
	<g>
		<path d="M224.781,192.93c7.177,1.654,15.237,1.215,22.421-0.146c0.675-0.129,0.493-1.158-0.158-1.166
			c-7.364-0.098-14.771,1.094-22.128,0.32C224.343,191.877,224.233,192.805,224.781,192.93L224.781,192.93z"/>
	</g>
</g>
<g>
	<g>
		<path d="M188.812,189.083c-7.711,0.605-15.643,0.269-23.292,1.28c-1.175,0.155-1.176,1.673,0,1.828
			c7.005,0.92,16.807,0.758,23.442-2C189.497,189.969,189.504,189.03,188.812,189.083L188.812,189.083z"/>
	</g>
</g>
<g>
	<g>
		<path d="M160.861,192.281c1.593,0,1.593-2.471,0-2.471S159.268,192.281,160.861,192.281L160.861,192.281z"/>
	</g>
</g>
<g>
	<g>
		<path d="M187.516,191.871c-3.362-1.855-8.035-1.4-11.739-1.098c-5.626,0.458-10.982,2.516-16.181,4.565
			c-0.453,0.178-0.285,0.82,0.201,0.732c4.372-0.795,8.739-1.586,13.102-2.432c4.096-0.795,10.007-1.76,14.107-0.559
			C187.726,193.291,188.174,192.234,187.516,191.871L187.516,191.871z"/>
	</g>
</g>
<g>
	<g>
		<path d="M180.688,194.059c-4.005-0.664-8.539-0.869-12.231,1.09c-0.555,0.295-0.313,1.232,0.324,1.197
			c3.897-0.215,7.458-1.002,11.386-0.393C181.401,196.145,181.941,194.266,180.688,194.059L180.688,194.059z"/>
	</g>
</g>
<g>
	<g>
		<path d="M163.3,182.33c3.647,2.601,8.701,3.588,13.033,4.293c4.021,0.653,9.142-0.304,12.874,1.368
			c0.448,0.201,0.836,0.16,1.217-0.156c1.078-0.898,1.978-2.204,2.925-3.242c3.82-4.188,8.555-5.479,13.751-6.954
			c0.75-0.213,0.548-1.239-0.176-1.299c-7.171-0.595-12.472,5.145-17.351,9.478c-0.262,0.224-0.184,0.305,0.236,0.244
			c-0.702-0.335-0.594-0.366-1.53-0.612c-1.688-0.444-3.629-0.365-5.355-0.357c-5.968,0.024-13.646-0.948-19.044-3.752
			C163.214,180.993,162.704,181.905,163.3,182.33L163.3,182.33z"/>
	</g>
</g>
<g>
	<g>
		<path d="M266.878,191.775c2.73-0.938,5.846-1.675,8.713-2.016c2.182-0.26,4.509-0.529,6.4,1.014
			c2.107,1.719,2.416,5.038,2.075,7.493c-0.696,5.012-6.302,5.029-10.111,4.248c-1.931-0.396-4.295-3.396-5.326-4.963
			c-0.628-0.951-0.572-2.658-0.952-3.785c-0.083-0.248-0.425-0.254-0.506,0c-1.387,4.295,2.623,8.391,6.596,9.432
			c4.457,1.166,8.65,1.07,11.444-2.904c2.219-3.158,0.432-9.968-2.743-11.889c-4.087-2.472-12.3,0.064-15.941,2.536
			C266.118,191.216,266.363,191.953,266.878,191.775L266.878,191.775z"/>
	</g>
</g>
<g>
	<g>
		<path d="M279.924,193.084c-3.568-0.238-4.082,4.549-2.041,6.615c1.445,1.465,3.825,0.875,4.882-0.688
			c1.122-1.66,0.018-4.014-1.714-4.639c-0.27-0.096-0.641,0.162-0.604,0.461c0.105,0.854,0.423,1.686,0.471,2.543
			c0.061,1.063-1.202,0.662-1.576,0.156c-0.526-0.715-0.631-3.262,0.582-3.281C280.683,194.238,280.669,193.133,279.924,193.084
			L279.924,193.084z"/>
	</g>
</g>
<g>
	<g>
		<path d="M267.919,192.377c-1.462-2.85-6.018-0.887-7.853,0.498c-2.729,2.057-5.114,0.818-8.353,0.303
			c-2.639-0.42-5.445-0.611-8.065-0.07c-0.393,0.08-0.391,0.705,0,0.787c1.619,0.34,3.077,0.336,4.74,0.385
			c3.128,0.09,5.953,1.1,8.973,1.721c3.44,0.707,5.685-5.185,9.772-2.838C267.652,193.461,268.177,192.879,267.919,192.377
			L267.919,192.377z"/>
	</g>
</g>
<g>
	<g>
		<path d="M274.707,186.746c-1.074-0.178-2.151-0.062-3.219-0.313c-0.251-0.06-0.387,0.222-0.236,0.406
			c0.849,1.046,2.232,0.952,3.455,0.75C275.127,187.52,275.127,186.815,274.707,186.746L274.707,186.746z"/>
	</g>
</g>
<g>
	<g>
		<path d="M266.245,185.52c-0.35,0.085-0.837,0.134-1.144,0.334c-0.385,0.25-0.758,0.505-1.129,0.778
			c-0.163,0.12-0.139,0.463,0.118,0.435c0.387-0.043,0.778-0.065,1.167-0.054c0.446,0.012,0.903-0.126,1.345-0.198
			C267.442,186.677,267.1,185.314,266.245,185.52L266.245,185.52z"/>
	</g>
</g>
<g>
	<g>
		<path d="M257.161,187.987c-2.04,0.303-4.008,0.659-6.07,0.79c-0.228,0.015-0.298,0.289-0.113,0.417
			c0.791,0.547,1.809,0.326,2.716,0.179c1.226-0.199,2.434-0.493,3.659-0.692C257.813,188.606,257.614,187.919,257.161,187.987
			L257.161,187.987z"/>
	</g>
</g>
<g>
	<g>
		<path d="M266.591,197.564c-1.444-0.055-2.904-0.16-4.288,0.328c-0.436,0.154-0.436,0.729,0,0.881
			c1.384,0.488,2.844,0.383,4.288,0.328C267.581,199.064,267.581,197.604,266.591,197.564L266.591,197.564z"/>
	</g>
</g>
<g>
	<g>
		<path d="M248.757,197.582c-0.282,0-0.548-0.1-0.833-0.1c-0.385,0-0.491,0.625-0.093,0.689c0.284,0.045,0.53,0.186,0.814,0.232
			C249.26,198.502,249.354,197.582,248.757,197.582L248.757,197.582z"/>
	</g>
</g>
<g>
	<path fill-rule="evenodd" clip-rule="evenodd" fill="#FF0000" d="M183.924,176.917c-1.786,0.483-5.346,2.607-5.793-0.456
		c-2.038-0.068-3.624,1.956-5.662,1.925c-1.832-0.028-4.636-1.809-5.878-3.052c-2.666-2.667-5-5.667-7.333-8.667
		c-1-1.667-2.333-3.333-3.333-4.667c-1-1.333-2.334-2.666-2.667-4c-0.333-1-0.333-1.666,0-2.666c0.667-1,1.667-1.667,2.333-2.667
		c0,0.333,0,0.667,0,1c-0.333,1-0.333,2-0.333,3.333c0,4,1,8.334,2.667,12.334c0.666,1.333,1.333,2.665,2.665,3.665
		c1.998,1.5,6.026,3.139,3.132,6.29c-1.917,2.087-6.39,0.034-8.974-0.116c-3.979-0.231-7.468-2.946-11.285-3.911
		c-0.284,0.961-1.101,2.045-0.563,2.973c0.762,1.315,5.507,1.714,6.774,1.877c1.587,0.204,3.406,0.572,4.999,0.572
		c1.328,0.001,3.481-1.059,4.723-0.521c1.239,0.535,0.959,2.399,2.279,3.272c2.912,1.926,8.541,0.335,11.741-0.068
		c3.288-0.414,7.451-0.084,9.257-2.949"/>
	<g>
		<path d="M183.805,176.485c-1.176,0.367-4.45,2.025-5.139-0.172c-0.1-0.317-0.374-0.429-0.683-0.388
			c-3.513,0.474-5.232,2.587-9.019,0.505c-3.372-1.854-6-5.872-8.394-8.791c-1.839-2.242-8.937-9.999-6.258-12.917
			c1.631-1.777,0.572-0.638,0.511-0.043c-0.202,1.953-0.151,3.857,0.003,5.815c0.384,4.888,1.944,10.854,6.178,13.781
			c0.304,0.2,0.607,0.4,0.912,0.601c0.709,4.28-0.505,5.857-3.64,4.733c-1.188-0.192-2.334-0.476-3.529-0.617
			c-4.036-0.481-7.396-2.806-11.195-4.057c-0.191-0.063-0.347,0.073-0.415,0.235c-1.088,2.595-0.94,3.689,1.784,4.635
			c1.959,0.68,4.204,0.783,6.24,1.125c1.63,0.273,7.926-0.433,8.633,1.155c1.757,3.946,6.439,3.294,10.047,2.79
			c4.254-0.594,10.578-0.062,13.499-3.793c0.729-0.932-0.504-2.26-1.334-1.334c-2.808,3.131-8.659,2.677-12.653,3.355
			c-3.137,0.532-6.855,0.796-8.567-2.736c-0.217-0.448-0.866-0.935-1.39-0.993c-1.382-0.155-2.424,0.112-3.786,0.473
			c-2.277,0.602-5.101-0.22-7.422-0.446c-1.019-0.091-2.026-0.252-3.021-0.482c-0.583-0.857-1.166-1.714-1.749-2.571
			c1.43-0.656,2.801-0.412,4.115,0.734c1.879,0.798,3.729,1.521,5.699,2.057c1.76,0.479,13.641,3.621,12.29-2.169
			c-0.74-3.171-4.466-4.152-6.201-6.729c-3.527-5.239-3.105-11.676-3.247-17.575c-0.009-0.381-0.549-0.695-0.825-0.342
			c-2.529,3.223-3.526,4.918-0.641,8.596c4.098,5.223,7.453,11.185,12.486,15.613c1.479,1.302,3.305,2.088,5.218,2.42
			c0.95,0.165,5.354-2.143,5.603-1.431c0.826,2.372,4.867,0.262,6.128-0.175C184.582,177.161,184.361,176.312,183.805,176.485
			L183.805,176.485z"/>
	</g>
</g>
<g>
	<path fill-rule="evenodd" clip-rule="evenodd" fill="#FF0000" d="M183.591,179.667c0.667-0.667,1.667-1.333,2.334-2
		c1.666-1.667,2.333-4,3-6c1.333-3.667,1.333-7,1.666-10.667c0-1,0-2.333,0-3.666c0-0.334,0-1.334,0.334-1.334
		c2,2.667,2.666,6.334,2.666,9.334c0,2.666-0.333,5-1,7.333c-0.666,1.333-1.333,2.333-1.666,3.667"/>
	<g>
		<path d="M184.265,180.34c3.64-2.852,4.877-5.581,6.263-9.922c0.644-2.016,0.787-4.249,0.974-6.342
			c0.167-1.873-0.462-5.832,0.478-7.461c-0.702,0-1.405,0-2.107,0c1.979,3.252,2.602,6.52,2.588,10.28
			c-0.012,3.4-1.792,6.039-2.257,9.238c-0.114,0.793,0.912,1.367,1.369,0.577c3.64-6.297,4.746-15.033,0.407-21.328
			c-0.482-0.7-1.666-0.878-2.107,0c-1.189,2.363-0.48,6.083-0.676,8.693c-0.438,5.814-1.969,10.878-6.278,14.916
			C181.996,179.855,183.325,181.077,184.265,180.34L184.265,180.34z"/>
	</g>
</g>
<g>
	<g>
		<path d="M209.48,184.593c0.872,1.253,1.667,3.639,3.036,4.44c1.149,0.674,1.516,0.294,2.108,0.391
			c1.493,0.241,3.669-1.421,4.928-2.014c3.59-1.691,7.628-2.216,11.133-4.014c0.769-0.394,0.386-1.574-0.427-1.577
			c-4.111-0.014-8.227,1.844-11.938,3.483c-1.421,0.628-2.908,1.375-4.273,2.101c-1.31,0.695-2.998-2.543-3.758-3.435
			C209.911,183.524,209.146,184.114,209.48,184.593L209.48,184.593z"/>
	</g>
</g>
<g>
	<g>
		<path d="M211.948,197.357c1.551-1.629,5.083,0.795,6.521,1.49c1.811,0.879,3.767,1.586,5.789,1.637
			c0.873,0.02,1.033-1.08,0.412-1.523c-2.426-1.732-5.971-3.131-8.872-3.873c-1.706-0.436-4.026,0.016-4.694,1.777
			C210.919,197.35,211.615,197.707,211.948,197.357L211.948,197.357z"/>
	</g>
</g>
<g>
	<g>
		<path d="M183.5,196.006c-2.444,0.625-4.941,1.215-7.302,2.111c-0.269,0.104-0.167,0.488,0.119,0.432
			c2.481-0.484,4.909-1.277,7.364-1.887C184.108,196.557,183.926,195.896,183.5,196.006L183.5,196.006z"/>
	</g>
</g>
<g>
	<g>
		<path d="M311.924,290.131c-3.361-0.334-1.577-16.621-1.425-19.504c0.661-12.469,7.977-21.078,14.945-30.656
			c0.368-0.506-0.333-1.117-0.825-0.824c-11.459,6.803-17.085,21.662-17.15,34.52c-0.014,2.75-1.072,19.125,4.598,17.516
			C312.679,291.008,312.503,290.189,311.924,290.131L311.924,290.131z"/>
	</g>
</g>
<g>
	<g>
		<path d="M322.443,238.148c3.653,3.777,7.52,7.135,10.998,11.131c3.552,4.078,7.214,8.055,10.853,12.055
			c4.056,4.457,8.178,8.77,11.402,13.893c3.187,5.066,2.566,10.949,3.638,16.604c0.111,0.586,1.072,0.588,1.182,0
			c0.893-4.777,1.029-10.367-0.833-14.934c-2.137-5.242-6.229-9.631-9.997-13.742c-8.402-9.168-16.61-18.176-26.279-25.969
			C322.736,236.645,321.819,237.502,322.443,238.148L322.443,238.148z"/>
	</g>
</g>
<g>
	<g>
		<path d="M358.526,290.797c-1.908,12.637-7.209,23.234-16.863,31.734c-4.596,4.047-10.055,7.084-15.797,9.15
			c-4.888,1.762-14.008,4.418-18.21,0.301c-2.979-2.92-5.598-4.789-9.654-5.971c-6.213-1.809-11.522-3.391-17.027-6.994
			c-9.833-6.438-17.402-16.301-28.014-21.551c-1.643-0.813-2.811,1.334-1.404,2.402c10.556,8.018,20.157,17.869,31.659,24.537
			c5.211,3.02,10.845,3.771,16.456,5.682c5.039,1.715,6.495,6.477,12.144,7.117c11.863,1.346,24.694-5.859,33.121-13.484
			c8.667-7.844,16.348-20.654,15.08-32.721C359.934,290.221,358.663,289.885,358.526,290.797L358.526,290.797z"/>
	</g>
</g>
<g>
	<g>
		<path d="M307.836,285.367c-0.945,3.635,3.518,8.561,5.379,11.236c1.272,1.83,2.625,3.607,4.029,5.338
			c2.668,3.283,3.355,7.887,6.157,11.248c0.461,0.553,1.509-0.037,1.235-0.719c-2.086-5.203-3.31-9.955-6.849-14.307
			c-1.699-2.09-3.269-4.285-4.774-6.516c-0.744-1.102-3.313-4.242-3.002-5.682C310.318,284.553,308.203,283.951,307.836,285.367
			L307.836,285.367z"/>
	</g>
</g>
<g>
	<g>
		<path d="M298.451,289.072c1.72,5.275,2.678,12.217,6.84,16.227c0.653,0.629,1.709,0,1.496-0.871
			c-0.654-2.664-1.868-5.199-2.758-7.795c-0.949-2.766-1.722-5.594-2.633-8.373C300.786,286.398,297.839,287.193,298.451,289.072
			L298.451,289.072z"/>
	</g>
</g>
<g>
	<g>
		<path d="M325.797,238.158c-1.242-2.082-0.5-5.654-0.727-7.99c-0.225-2.322-1.322-4.26-2.52-6.197
			c-0.534-0.863-1.381-1.199-2.262-1.559c-3.251-1.328-6.225-0.135-9.322-2.787c-1.726-1.477-3.034-3.559-4.231-5.463
			c-1.976-3.137-0.679-3.176,2.156-2.434c3.815,1.002,7.419,3.012,10.909,4.803c6.746,3.463,12.159,5.523,19.93,3.602
			c10.155-2.512,18.276-10.441,27.307-15.303c-0.715-0.289-1.429-0.58-2.143-0.871c2.313,6.516-14.93,11.703-16.598,18.352
			c-0.426,1.693,2.027,2.338,2.588,0.713c2.465-7.137,20.19-10.406,16.822-19.84c-0.322-0.9-1.27-1.342-2.143-0.871
			c-11.046,5.971-22.06,17.705-35.667,15.574c-3.367-0.527-6.565-2.842-9.543-4.373c-3.684-1.893-7.472-3.783-11.494-4.842
			c-2.036-0.535-4.413-0.66-5.979,0.951c-2.179,2.24,2.577,8.104,3.82,9.615c3.075,3.74,6.33,5.619,11.223,5.873
			c6.842,0.357,2.824,10.598,6.285,14.271C325.003,240.227,326.384,239.141,325.797,238.158L325.797,238.158z"/>
	</g>
</g>
<g>
	<g>
		<path d="M183.508,192.145c-0.406-0.176-0.229,1.855-0.211,2.055c0.098,1.033,0.082,2.074,0.184,3.107
			c0.094,0.959,1.049,3.539,2.42,2.338c0.144-0.125,0.168-0.373,0.068-0.529c-0.203-0.324,0.057-0.162-0.125,0.215
			c0.116-0.242,0.142-0.428,0.107-0.691c-0.084-0.639-0.009-1.316-0.054-1.965c-0.101-1.42-0.329-2.643-0.641-4.01
			c-0.072-0.316-0.393-0.68-0.728-0.729c-0.419-0.059-0.558-0.084-0.938-0.1C183.435,191.83,183.354,192.078,183.508,192.145
			L183.508,192.145z"/>
	</g>
</g>
<g>
	<g>
		<path d="M353.436,259.336c0.003,0.43-0.066,0.945,0.062,1.357c0.028,0.094,0.159,0.094,0.188,0
			c0.128-0.412,0.059-0.928,0.062-1.357C353.748,259.135,353.434,259.135,353.436,259.336L353.436,259.336z"/>
	</g>
</g>
<g>
	<g>
		<path d="M342.341,256.525c-0.161-0.104-0.323-0.207-0.485-0.311c-0.364-0.232-0.754,0.082-0.79,0.453
			c-0.021,0.223-0.044,0.445-0.069,0.668c-0.066,0.596,0.845,0.801,1.108,0.299c1.733-3.299,3.597-6.525,5.635-9.654
			c2.282-3.504,3.986-1.488,7.414-1.912c6.895-0.855,14.624,0.143,21-3.471c4.267-2.416,4.758-5.076-0.234-6.451
			c-5.795-1.596-14.457-3.039-19.318,1.531c-0.324,0.305,0.009,0.918,0.444,0.764c3.002-1.059,6.052-1.299,9.213-1.287
			c2.076,0.008,4.086,0.086,6.147,0.406c0.444,0.07,4.07,1.648,4.246,1.502c-5.453,4.551-14.964,3.818-21.498,4.395
			c-4.196,0.369-5.758-2.219-8.666,1.898c-2.093,2.963-7.201,8.465-5.41,12.279c0.369-0.1,0.739-0.199,1.108-0.299
			c-0.113-0.234-0.062-0.408,0.155-0.525C342.448,256.742,342.448,256.594,342.341,256.525L342.341,256.525z"/>
	</g>
</g>
<g>
	<g>
		<path d="M92.086,273.713c-1.974-2.658-2.644-6.027-3.564-9.15c-0.971-3.291-2.794-6.322-4.431-9.313
			c-1.623-2.965-3.455-5.795-5.396-8.561c-1.542-2.195-4.987-3.902-5.884-6.357c-0.177-0.484-0.639-0.998-1.22-0.928
			c-4.952,0.59-9.631,3.762-13.983,6.021c-3.193,1.658-6.374,3.02-9.44,4.934c-2.553,1.596-5.067,3.438-7.828,4.643
			c-1.104,0.48-0.49,2.16,0.585,2.16c0.444,0,0.89,0,1.334,0c-0.387-0.387-0.773-0.773-1.16-1.16
			c0.053,7.773,3.975,14.83,7.355,21.654c4.15,8.375,8.505,16.363,13.707,24.125c4.901,7.314,8.608,15.621,13.32,23.107
			c4.466,7.094,9.347,13.92,14.671,20.395c0.921,1.119,2.46-0.305,1.894-1.461c-2.222-4.547,26.288-11.451,30.037-11.871
			c0.895-0.1,1.651-1.014,1.092-1.902c-4.158-6.6,2.619-18.35,5.789-24.301c0.503-0.945-0.807-1.672-1.41-0.824
			c-4.501,6.318-11.399,18.725-6.563,26.402c0.364-0.635,0.728-1.27,1.092-1.904c-5.283,0.592-36.506,6.764-32.119,15.617
			c0.631-0.488,1.263-0.975,1.894-1.461c-10.563-12.711-19.154-26.889-27.33-41.207c-3.952-6.922-7.935-13.723-11.546-20.865
			c-3.972-7.855-9.499-16.506-9.563-25.504c-0.005-0.631-0.524-1.16-1.16-1.16c-0.444,0-0.89,0-1.334,0.002
			c0.195,0.719,0.391,1.439,0.585,2.16c5.475-2.389,10.142-6.297,15.699-8.656c3.049-1.295,5.958-2.973,8.967-4.357
			c1.827-0.84,3.763-2.879,5.188-1.092c2.228,2.793,4.999,4.836,7.046,7.891c1.883,2.809,3.568,5.738,5.186,8.707
			c2.783,5.104,3.831,10.479,7.591,14.912C91.605,274.902,92.476,274.236,92.086,273.713L92.086,273.713z"/>
	</g>
</g>
<g>
	<g>
		<path d="M154.258,259.131c-0.075-0.018-0.149-0.035-0.225-0.055c-0.377-0.531-1.258-0.035-0.885,0.518
			c3.657,5.436,10.146,9.279,14.813,13.832c2.31,2.254,4.54,4.734,7.235,6.527c3.574,2.379,7.08,4.48,7.712,9.088
			c0.119,0.869,1.373,1.305,2.055,0.836c1.021-0.705,1.35-1.424,1.632-2.635c0.646-2.77,0.566-4.756,3.28-6.752
			c0.382-0.283,0.367-0.883-0.135-1.031c-1.599-0.477-3.067-0.168-3.942,1.518c-0.286,0.551-1.813,6.32-1.913,6.344
			c0.591,0.449,1.181,0.898,1.771,1.348c-0.223-7.281-7.447-9.648-12.132-13.881c-3.311-2.994-6.447-6.191-10.009-8.898
			c-1.612-1.225-7.121-6.576-9.258-6.35C154.521,259.512,154.521,259.158,154.258,259.131L154.258,259.131z"/>
	</g>
</g>
<g>
	<g>
		<path d="M195.289,260.668c-0.454,4.615,1.218,9.357,1.446,13.998c0.255,5.191,0.028,10.365,0.913,15.504
			c0.104,0.607,1.115,0.607,1.219,0c1.762-10.277-0.474-19.74-2.985-29.582C195.792,260.238,195.322,260.346,195.289,260.668
			L195.289,260.668z"/>
	</g>
</g>
<g>
	<g>
		<path d="M229.849,266.041c-5.075,9.414-13.88,12.764-21.65,19.236c0.571,0.332,1.144,0.666,1.715,0.998
			c0.371-1.623,2.982,3.111,3.441,3.896c1.795,3.072,3.519,6.17,5.154,9.33c3.707,7.162,7.195,14.373,9.918,21.971
			c0.224,0.625,1.126,0.381,0.994-0.273c-2.621-13.021-8.06-27.963-17.782-37.246c-0.349-0.334-0.804-0.363-1.226-0.158
			c-0.846,0.41-1.533,0.848-2.215,1.482c-0.924,0.859,0.248,2.037,1.243,1.611c8.983-3.85,17.952-10.887,22.558-19.592
			C232.749,265.879,230.612,264.625,229.849,266.041L229.849,266.041z"/>
	</g>
</g>
<g>
	<g>
		<path d="M191.012,287.684c-5.564-0.975-6.093,8.381-6.744,12.004c-0.85,4.725-1.396,9.465-2.478,14.15
			c-0.981,4.25-2.118,8.457-2.33,12.83c-0.046,0.947,1.28,1.021,1.567,0.213c2.222-6.262,4.221-12.729,5.194-19.311
			c0.437-2.945,0.738-5.9,1.212-8.842c0.46-2.854,0.605-8.904,3.657-10.441C191.336,288.164,191.292,287.732,191.012,287.684
			L191.012,287.684z"/>
	</g>
</g>
<g>
	<g>
		<path d="M63.825,244.604c-1.094-4.791,5.355-8.488,8.476-11.059c3.536-2.912,7.163-6.359,11.531-8.002
			c0.894-0.338,0.848-1.859-0.241-1.781c-5.823,0.422-11.731,3.537-17.375,5.045c-3.216,0.859-6.318,2.131-9.504,3.098
			c-1.717,0.521-3.169,1.301-4.043,2.893c-0.807,1.469,1.761,2.34,1.989,0.539c0.199-0.334,0.397-0.67,0.596-1.004
			c0.267-0.314,0.021-0.977-0.454-0.779c-0.847,0.348-1.048,0.404-1.748,0.861c0.487,0.486,0.974,0.973,1.461,1.461
			c1.216-1.813,4.094-2.232,6.035-2.822c2.662-0.807,5.216-1.9,7.914-2.637c4.893-1.334,10.103-4.381,15.129-4.842
			c-0.08-0.594-0.16-1.186-0.241-1.779c-5.865,2.057-10.438,6.797-15.137,10.662c-3.268,2.689-7.424,5.918-4.832,10.334
			C63.524,245.035,63.886,244.869,63.825,244.604L63.825,244.604z"/>
	</g>
</g>
<g>
	<g>
		<path d="M56.426,234.57c-1.366-2.221-2.595-4.338-4.968-5.5c-2.782-1.363-5.355-7.033-6.743-9.725
			c-2.057-3.99-4.41-6.809-9.122-5.586c-3.102,0.805-4.418,4.893-2.738,7.492c1.419,2.195,3.305,3.842,5.194,5.625
			c2.162,2.041,5.836,3.252,7.036,6.115c0.392-0.514,0.782-1.027,1.173-1.539c-3.403-0.004-6.604,0.66-10,0.658
			c-4.58-0.004-9.162-0.059-13.739,0.084c-4.796,0.15-13.549,0.336-17.259,4.047c-3.571,3.57,7.32,4.705,8.47,4.961
			c8.062,1.785,16.313,1.014,24.233-1.186c1.58-0.438,1.167-2.645-0.372-2.75c-2.896-0.197-5.333,1.352-7.821,2.648
			c-3.281,1.707-6.985,2.506-10.312,4.137c-1.721,0.844-8.896,3.857-6.103,6.91c1.599,1.748,3.997,1.711,6.235,1.732
			c1.481,0.016,3.346-1.045,4.732-1.525c1.809-0.627,4.249-0.959,6.138-1.459c3.632-0.961,7.303-1.73,10.766-3.258
			c1.741-0.768,3.611-1.199,5.353-1.967c3.312-1.461,4.519,2.961,5.022,5.213c0.341,1.525,2.717,1.17,2.693-0.363
			c-0.051-3.402-2.072-8.631-6.21-8.631c-2.158,0-4.862,1.826-6.892,2.521c-3.356,1.15-6.506,2.58-9.981,3.402
			c-3.013,0.713-6.104,1.35-9.018,2.4c-2.017,0.729-3.651,1.061-5.805,0.715c-1.11-0.178,2.501-2.238,2.642-2.303
			c2.873-1.33,5.797-2.449,8.701-3.721c2.889-1.264,6.725-3.885,9.858-3.652c-0.124-0.916-0.248-1.834-0.372-2.75
			c-6.083,1.758-12.152,2.465-18.475,2.213c-3.032-0.121-6.193-1.111-9.166-1.703c-1.514-0.301-3.291,0.328-1.038-0.537
			c0.681-0.262,1.374-0.477,2.048-0.756c6.226-2.582,14.068-1.967,20.67-1.971c5.064-0.004,10.002-0.676,15-0.68
			c0.715,0,1.483-0.793,1.173-1.539c-0.881-2.115-2.398-3.35-4.226-4.678c-1.441-1.049-2.859-2.02-4.158-3.256
			c-0.612-0.553-1.216-1.113-1.811-1.686c-0.306-0.314-0.61-0.631-0.916-0.945c1.799-5.314,3.453-6.33,4.963-3.049
			c2.002,3.092,3.652,6.287,5.905,9.229c2.343,3.059,5.681,4.854,8.971,6.875C56.325,234.938,56.528,234.736,56.426,234.57
			L56.426,234.57z"/>
	</g>
</g>
<g>
	<g>
		<path d="M210.485,220.121c0.405,1.639,1.078,3.182,1.481,4.834c0.302,1.234,0.41,2.471,0.082,3.701
			c-0.269,1.004-0.635,1.629-0.665,2.678c-0.025,0.83,0.941,1.068,1.494,0.619c3.798-3.094,1.699-9.795-1.722-12.348
			C210.814,219.35,210.397,219.768,210.485,220.121L210.485,220.121z"/>
	</g>
</g>
<g>
	<g>
		<path d="M178.396,224.432c-1.894-1.049-2.824,1.381-2.964,2.902c-0.317,3.484,1.031,8.061,4.047,10.098
			c0.706,0.477,1.423-0.305,1.3-1c-0.355-2.008-1.586-3.842-2.284-5.754c-0.367-1.002-1.674-5.102-0.099-5.775
			C178.587,224.82,178.559,224.521,178.396,224.432L178.396,224.432z"/>
	</g>
</g>
<g>
	<g>
		<path d="M194.151,240.396c0.452-1.281,1.721-1.859,2.939-2.205c1.104-0.316,1.758,0.262,2.707,0.693
			c0.236,0.107,0.456-0.109,0.347-0.346c-0.705-1.527-1.761-1.75-3.298-1.234c-1.365,0.459-2.727,1.553-3.146,2.967
			C193.614,240.563,194.051,240.676,194.151,240.396L194.151,240.396z"/>
	</g>
</g>
<g>
	<g>
		<path d="M346.925,225.1c-0.037-0.004-0.335,1.207,1.642,0.688c3.115-0.818,6.104-2.07,9.247-2.846
			c6.796-1.672,13.587-3.447,20.328-5.336c1.553-0.434,9.563-2.318,5.563,0.746c-1.466,1.123-3.111,2.125-4.706,3.049
			c-6.902,4.002-13.987,5.367-21.56,7.379c-0.615,0.164-0.504,1.172,0.152,1.129c8.252-0.547,17.333-2.658,23.976-7.934
			c1.867-1.48,7.271-3.641,5.821-6.779c-2.064-4.475-16.163,1.344-19.009,2.121c-4.78,1.307-9.605,2.504-14.347,3.941
			c-2.342,0.711-7.01,1.502-8.058,3.998c-0.07,0.168,0.107,0.387,0.283,0.371c0.223-0.02,0.444-0.039,0.667-0.061
			C347.226,225.539,347.226,225.127,346.925,225.1L346.925,225.1z"/>
	</g>
</g>
<g>
	<g>
		<path d="M254.925,305.232c2.584-0.137,5.038,6.232,6.02,8.188c1.747,3.482,3.958,6.352,6.573,9.236
			c5.495,6.061,12.521,10.525,19.746,14.211c7.329,3.74,14.939,6.83,21.993,11.104c4.195,2.541,7.493,5.775,10.845,9.301
			c2.099,2.209,3.968,4.938,7.106,5.451c0.128-0.943,0.255-1.887,0.383-2.828c-6.255,0.096-12.382,0.912-18.64,0.281
			c-7.764-0.779-14.941-3.895-22.445-5.742c-1.005-0.248-1.681,1.199-0.72,1.707c6.487,3.424,13.78,5.48,20.982,6.723
			c6.957,1.197,13.844,0.064,20.822-0.09c1.575-0.035,2.025-2.508,0.383-2.828c-3.41-0.664-6.789-6.1-9.051-8.492
			c-2.77-2.93-5.962-5.15-9.395-7.236c-7.477-4.543-15.729-7.693-23.455-11.775c-8.292-4.383-15.505-10.391-21.15-17.887
			c-2.8-3.719-4.335-11.234-10.148-10.432C254.142,304.211,254.297,305.264,254.925,305.232L254.925,305.232z"/>
	</g>
</g>
<g>
	<g>
		<path d="M176.389,324.131c-2.13,2.186-5.103,2.834-7.421,4.756c-2.931,2.43-5.626,5.1-8.385,7.719
			c-5.974,5.672-12.788,10.693-19.061,16.061c-6.235,5.336-14.134,8.877-21.149,13.059c-7.661,4.566-15.206,9.328-22.878,13.879
			c-3.251,1.93-6.519,3.83-9.813,5.682c-1.569,0.881-3.122,1.689-4.784,2.41c2.14-0.926-4.067,0.842-4.753,1.525
			c-1.929,1.93-2.484-4.666-2.126-5.871c0.976-3.289,1.888-7.141,3.564-10.125c2.087-3.715,5.549-6.404,8.22-9.65
			c2.795-3.396,5.739-6.668,8.712-9.908c5.857-6.385,12.264-12.281,17.776-18.965c0.817-0.99-0.412-2.219-1.402-1.402
			c-7.628,6.295-14.372,13.748-20.984,21.09c-3.188,3.539-6.108,7.305-9.426,10.719c-2.187,2.248-5.261,5.465-6.197,8.533
			c-1.304,4.268-5.701,12.463-1.865,16.201c1.343,1.309,1.597,2.1,3.52,1.926c2.319-0.209,5.102-1.902,7.264-2.768
			c4.042-1.619,7.932-4.471,11.698-6.656c4.395-2.551,8.754-5.162,13.108-7.781c8.403-5.055,16.906-9.924,25.334-14.934
			c8.378-4.98,15.144-12.039,22.829-17.971c3.134-2.418,5.91-5.313,8.733-8.076c3.226-3.156,7.743-4.947,10.558-8.379
			C178.07,324.463,177.084,323.416,176.389,324.131L176.389,324.131z"/>
	</g>
</g>
<g>
	<g>
		<path d="M153.792,369.012c7.262-5.268,15.827-8.16,24.173-11.176c9.203-3.326,18.135-7.332,27.653-9.713
			c4.465-1.115,9.097-1.463,13.685-1.516c5.312-0.061,8.775,3.771,11.961,7.453c2.185,2.525,4.022,5.934,6.788,7.91
			c2.241,1.602,3.197,1.143,5.684,0.555c0.521-0.123,0.521-0.928,0-1.051c-6.889-1.625-10.729-10.984-16.164-15.152
			c-6.038-4.631-15.981-2.443-22.696-0.895c-10.113,2.332-19.692,6.992-29.318,10.762c-7.669,3.004-16.55,5.914-22.248,12.195
			C153.019,368.705,153.409,369.289,153.792,369.012L153.792,369.012z"/>
	</g>
</g>
<g>
	<g>
		<path d="M238.258,327.311c-3.201,0.146-2.813,5.5-2.741,7.701c0.218,6.734,3.843,15.67,8.672,20.393
			c0.702,0.686,2.118,0.006,1.74-1.014c-1.858-5-4.751-9.453-6.396-14.582c-0.495-1.545-3.054-9.82-0.926-11.211
			C239.151,328.24,238.982,327.277,238.258,327.311L238.258,327.311z"/>
	</g>
</g>
<g>
	<g>
		<path d="M143.591,346.166c0.679-0.035,0.94-0.268,1.396-0.771c0.076-0.082-0.04-0.199-0.123-0.123
			c-0.438,0.395-0.679,0.592-1.272,0.564C143.377,345.824,143.378,346.178,143.591,346.166L143.591,346.166z"/>
	</g>
</g>
<g>
	<g>
		<path d="M155.86,345.602c-4.967,6.412-9.02,18.504-4.974,26.145c0.404,0.766,1.471,0.35,1.522-0.412
			c0.344-5.064,0.006-9.826,1.475-14.783c1.045-3.525,3.007-6.791,2.939-10.551C156.815,345.557,156.179,345.189,155.86,345.602
			L155.86,345.602z"/>
	</g>
</g>
<g>
	<g>
		<path d="M218.508,360.715c1.431,0.791,2.221,2.748,3.015,4.092c1.247,2.109,2.997,4.008,4.442,5.984
			c3.397,4.645,8.424,12.152,5.537,18.102c-0.306,0.629,0.201,1.564,0.988,1.285c5.749-2.037,1.697-11.391-0.281-14.928
			c-2.331-4.168-5.265-7.873-8.413-11.453c-1.387-1.576-2.403-4.133-4.651-4.594C218.257,359.021,217.652,360.242,218.508,360.715
			L218.508,360.715z"/>
	</g>
</g>
<g>
	<g>
		<path d="M230.925,388.531c-0.223,0.014-0.444,0.025-0.667,0.039c-0.125,0.008-0.125,0.188,0,0.195
			c0.223,0.012,0.444,0.025,0.667,0.037C231.101,388.814,231.101,388.521,230.925,388.531L230.925,388.531z"/>
	</g>
</g>
<g>
	<g>
		<path d="M253.738,362.891c3.715,1.744,7.084,4.404,10.417,6.797c3.733,2.68,7.904,4.863,11.709,7.486
			c9.32,6.422,16.071,13.869,22.482,23.166c0.406,0.588,1.506,0.238,1.227-0.518c-3.754-10.17-10.363-17.359-19.033-23.607
			c-4.746-3.422-9.721-6.361-14.745-9.334c-3.691-2.182-7.112-5.453-11.536-5.912C253.249,360.865,252.83,362.465,253.738,362.891
			L253.738,362.891z"/>
	</g>
</g>
<g>
	<g>
		<path d="M150.479,364.568c-7.926,4.236-14.934,14.771-17.497,23.264c-0.18,0.596,0.629,1.088,1.057,0.615
			c3.677-4.064,5.767-9.211,9.126-13.541c2.549-3.285,5.22-6.318,8.387-8.947C152.354,365.293,151.33,364.113,150.479,364.568
			L150.479,364.568z"/>
	</g>
</g>
<g>
	<path fill-rule="evenodd" clip-rule="evenodd" fill="#FF0000" d="M142.424,174.167c-1,0-2,0-3-0.25c-1.5-0.25-2.75-0.75-4.25-1.25
		c-2-0.75-3.75-1.5-5.75-2c-2.75-1-5.5-2-8.25-3.25c-2.25-1.25-4.75-2-7.25-3.25c-1.75-1-3.75-2-5.75-2.25
		c-1.25-0.25-2.75-0.25-4.25-0.25c-1.25,0-2.5,0.5-3.75,0.25c-0.75-0.25-0.75,0-1.25,0.5c-1.25,1.25-2.25,2.25-3.25,3.25
		c-1.75,1.75-4.25,3.5-2.5,6.25s5.25,3.25,8.25,3.5c1.5,0,3,0,4.75,0c0.5,0,1.75-0.25,2.25,0c-0.5,0.75-2,1.25-3,1.5
		c-1,0.5-2,1-3.25,1.75c-0.5,0.25-1.25,0.75-1.5,1.5c-0.25,1.25,0.5,1.5,1.5,2c1.25,0.75,3,1,4.5,1.5c1.75,0.5,3.75,1.25,5.5,1.75
		c1.75,0.25,3.5,0.75,5.25,1.25c1.25,0.25,2.75,0.75,4,0.25c1.25-0.25,2.5-1.75,2.25-3c-0.25-1-1.5-1.75-2-2.75
		s-0.75-2.25-0.25-3.25c0.75-0.75,2-1,2.75-1.25c3-1,6.25-1.25,9-1c2,0.25,3.75,0.75,5.5,1c1.25,0.25,2.75,0.25,4.25,0.75"/>
	<g>
		<path d="M142.424,173.378c-4.107-0.057-7.514-1.832-11.286-3.212c-4.243-1.552-8.321-3.351-12.489-5.084
			c-6.289-2.615-12.301-6.105-19.453-4.138c-1.693,0.466-3.74,3.771-5.01,5.027c-1.036,1.025-3.065,3.096-2.325,4.86
			c2.383,5.677,9.068,5.273,14.313,5.247c0.957-0.005,3.56-0.728-0.814,0.602c-1.155,0.352-2.346,1.044-3.443,1.544
			c-1.345,0.613-2.482,1.507-2.034,3.138c0.484,1.759,3.522,2.404,4.965,2.846c4.093,1.252,8.183,2.318,12.296,3.479
			c3.459,0.976,9.606-0.638,6.903-5.227c-3.437-5.832,3.521-5.809,7.715-5.786c3.594,0.02,7.562,1.132,11.163,1.569
			c0.987,0.119,1.03-1.324,0.22-1.624c-4.388-1.626-9.709-2.354-14.376-1.979c-2.835,0.229-7.68,0.883-8.502,4.096
			c-0.187,0.73,0.146,2.307,0.571,2.92c0.805,1.162,4.488,5.642-3.132,3.99c-1.766-0.383-3.468-0.915-5.252-1.242
			c-2.885-0.53-5.778-1.827-8.627-2.583c-0.094-1.167-0.188-2.333-0.283-3.5c0.931-0.67,1.949-1.169,3.058-1.499
			c0.903-0.267,1.271-0.595,1.987-1.124c0.228-0.169,0.205-0.498-0.077-0.595c-1.802-0.616-3.681-0.358-5.578-0.36
			c-3.624-0.004-13.278-2.024-7.6-7.623c0.923-0.908,3.536-4.313,4.841-4.192c3.148,0.291,6.003-0.319,9.209,0.348
			c2.443,0.508,4.911,2.257,7.245,3.23c3.093,1.291,6.092,2.728,9.226,3.927c5.149,1.97,11.009,4.367,16.57,4.522
			C143.44,174.983,143.44,173.393,142.424,173.378L142.424,173.378z"/>
	</g>
</g>
<g>
	<path fill-rule="evenodd" clip-rule="evenodd" fill="#FF0000" d="M92.174,177.917c-0.75,0-1.75,0-2.5,0c-2.25,0-4.5,1-6.5,2
		c-2.5,1-4.75,2.75-6.5,5c-1,1-3.75,3.75-2,5.25c1.5,1,4,0.75,5.75,0.25c2-0.5,5-2.5,6-4.5c0.5-0.75,0.75-1.75,1-2.75
		c0-0.75,0-1.75,0.5-2.5c0.75-1.5,3.5-2.25,5-2.75"/>
	<g>
		<path d="M92.27,177.57c-4.197-1.106-9.355,0.915-12.65,3.527c-2.132,1.689-7.868,6.215-5.595,9.448
			c2.081,2.958,8.069,0.296,10.157-1.162c1.355-0.946,2.799-2.481,3.271-4.125c0.431-1.497,0.625-4.156,1.873-5.115
			c1.115-0.857,2.649-1.053,3.863-1.773c0.423-0.25,0.276-1.03-0.265-0.979c-1.587,0.151-4.23,0.857-5.13,2.347
			c-0.526,0.873-0.725,1.602-0.819,2.614c-0.322,3.438-2.987,5.755-5.979,7.013c-2.287,0.961-7.549,0.448-4.834-2.949
			c1.25-1.564,2.713-3.012,4.312-4.211c1.739-1.306,4.042-2.192,6.054-2.95c1.868-0.704,3.848-0.491,5.743-0.991
			C92.614,178.173,92.614,177.66,92.27,177.57L92.27,177.57z"/>
	</g>
</g>
<g>
	<path fill-rule="evenodd" clip-rule="evenodd" fill="#FF0000" d="M133.674,185.417c-0.5,0-1.25,0.75-1.5,1c-2,1.5-4,2.75-5.75,4.5
		c-1.75,1.75-3.75,4-4.5,6.5c-0.75,1.75-1,4.5,0.25,6.25c0.75,1,2,1.75,3.25,1.75s1.75-0.75,2.5-1.5c1.25-1.75,2.25-4,2.5-6.25
		c0-1.75,0.25-3.5,0.25-5c0-0.5,0-1,0.25-1.5c0.25-0.5,0.75-0.75,1-1.25c0.75-1.25,1.5-2.25,2.5-3"/>
	<g>
		<path d="M133.674,185.047c-4.144,0.411-8.525,5.801-10.835,8.949c-2.305,3.143-3.412,7.844-0.601,10.949
			c3.059,3.379,6.377-0.123,7.898-2.832c1.435-2.555,1.369-5.455,1.595-8.279c0.215-2.687,1.975-4.335,3.516-6.436
			c0.605-0.826-0.53-1.711-1.305-1.305c-5.231,2.748-3.993,7.813-4.762,12.641c-0.283,1.26-0.741,2.455-1.373,3.59
			c-4.712,0.604-6.545-0.65-5.498-3.762c0.408-2.107,1.76-3.92,3.104-5.512c2.455-2.907,5.894-4.667,8.521-7.373
			C134.142,185.465,134.011,185.013,133.674,185.047L133.674,185.047z"/>
	</g>
</g>
<g>
	<path fill-rule="evenodd" clip-rule="evenodd" fill="#FF0000" d="M273.925,172.333c0-0.667,1.666-2,2.333-2.334
		c1.667-1.333,3.333-2.666,5.333-3.666c6-2.667,11.667-6,18-7.667c1.334-0.333,3.334-1.333,5-0.333
		c2.667,1.666-0.666,2.666-2.333,3.333c-6.667,2.667-14,3.667-21,5"/>
	<g>
		<path d="M274.093,172.432c0.559-1.154,2.872-1.996,3.872-2.654c1.899-1.248,3.701-2.353,5.788-3.273
			c4.811-2.122,9.428-4.575,14.428-6.25c1.021-0.343,8.451-1.561,3.785,0.354c-2.233,0.916-4.496,1.649-6.82,2.3
			c-4.63,1.296-9.396,1.941-13.994,3.373c-0.415,0.13-0.358,0.814,0.106,0.783c7.581-0.509,15.096-2.082,22.234-4.684
			c2.03-0.74,5.342-3.891,1.402-5.15c-5.388-1.724-12.653,2.793-17.407,5.075c-4.721,2.266-11.546,4.731-13.75,9.976
			C273.652,172.485,273.997,172.628,274.093,172.432L274.093,172.432z"/>
	</g>
</g>
<g>
	<path fill-rule="evenodd" clip-rule="evenodd" fill="#FF0000" d="M297.258,176c12.667-2.666,25.333-2.333,38-2.333
		c-1.667,0-2.667,0.333-4,1c-2.667,1-5.333,1.333-7.667,2c-5,0.667-9.666,0.667-14.666,1.333c-2.667,0.334-5.334,0.334-8,0
		c-4.334-0.333-8.667-0.333-13-0.333c-8.334,0-16.667,0-25,0"/>
	<g>
		<path d="M297.328,176.252c12.23-2.376,25.52-2.333,37.93-1.623c0-0.642,0-1.283,0-1.926c-2.376,0.094-3.551,0.786-5.829,1.649
			c-2.959,1.12-6.426,1.587-9.536,1.883c-5.71,0.543-11.636,1.293-17.368,0.976c-13.116-0.728-26.476-0.286-39.6,0.202
			c-0.326,0.012-0.326,0.494,0,0.506c12.624,0.47,25.452-0.438,38,1.008c5.713,0.658,11.443-0.493,17.146-0.895
			c5.952-0.419,11.37-2.762,17.187-3.403c1.205-0.134,1.26-1.994,0-1.926c-12.895,0.709-25.333,0.452-38.07,3.043
			C296.856,175.814,296.997,176.317,297.328,176.252L297.328,176.252z"/>
	</g>
</g>
<g>
	<g>
		<path fill="#FF0000" d="M231.925,189.34c6.895,0.226,14.303,2.236,21.127,1.119c0.467-0.077,0.446-0.827,0-0.92
			c-6.799-1.413-14.405-2.637-21.218-0.868C231.454,188.77,231.547,189.328,231.925,189.34L231.925,189.34z"/>
	</g>
</g>
<g>
	<g>
		<path fill="#FF0000" d="M235.591,197.576c1.755-0.039,3.468-0.205,5.202-0.455c1.631-0.234,3.931-0.65,4.864,1.035
			c0.205,0.369,0.558,0.662,0.898,0.918c2.843,2.125,6.188,1.613,9.449,0.883c0.337-0.074,0.256-0.594-0.08-0.592
			c-4.541,0.025-7.605,0.082-11.147-3.219c-0.336-0.313-1.107-0.271-1.469-0.166c-2.52,0.732-5.098,1.025-7.718,1.109
			C235.279,197.1,235.277,197.584,235.591,197.576L235.591,197.576z"/>
	</g>
</g>
<g>
	<g>
		<path fill="#FF0000" d="M172.822,197.939c-2.289-1.23-6.025,0.148-7.712,1.912c-0.37,0.387-0.145,1.238,0.481,1.162
			c1.274-0.154,2.343-0.738,3.516-1.232c1.205-0.508,2.588-0.447,3.715-1.053C173.119,198.568,173.119,198.098,172.822,197.939
			L172.822,197.939z"/>
	</g>
</g>
<g>
	<g>
		<path fill="#FF0000" d="M164.258,196.477c-3.391,0.117-6.406,1.736-9.24,3.445c-0.479,0.289-0.154,0.979,0.367,0.871
			c3.033-0.621,5.739-2.475,8.873-2.604C165.358,198.145,165.364,196.439,164.258,196.477L164.258,196.477z"/>
	</g>
</g>
<g>
	<g>
		<path fill="#FF0000" d="M134.848,201.256c-1.075,0.975-2.666,1.322-3.677,2.324c-1.184,1.172-2.264,2.393-3.319,3.68
			c-0.421,0.516,0.093,1.176,0.696,0.902c1.437-0.654,2.628-1.574,3.741-2.684c1.146-1.139,2.834-1.625,4.045-2.736
			C137.335,201.822,135.849,200.352,134.848,201.256L134.848,201.256z"/>
	</g>
</g>
<g>
	<g>
		<path fill="#FF0000" d="M104.625,203.916c-2.659,1.68-5.636,3.34-7.599,5.854c-0.539,0.689,0.119,1.705,0.967,1.252
			c2.728-1.455,5.267-3.311,7.897-4.939C107.265,205.232,105.995,203.049,104.625,203.916L104.625,203.916z"/>
	</g>
</g>
<g>
	<g>
		<path fill="#FF0000" d="M307.858,192.123c2.47,0.797,4.749,1.938,7.032,3.156c2.012,1.074,4.34,2.922,6.701,2.635
			c0.835-0.102,1.685-1.016,1.075-1.873c-1.385-1.953-3.971-2.652-6.08-3.664c-2.574-1.233-5.181-2.37-7.928-3.163
			C306.781,188.672,306.018,191.529,307.858,192.123L307.858,192.123z"/>
	</g>
</g>
<g>
	<g>
		<path d="M176.145,15.089c-1.583,10.406-0.63,21.571-0.563,32.077c0.073,11.292-0.104,22.733,0.544,34
			c0.021,0.384,0.574,0.384,0.596,0c0.648-11.267,0.471-22.708,0.544-34c0.067-10.506,1.021-21.671-0.563-32.077
			C176.661,14.812,176.187,14.812,176.145,15.089L176.145,15.089z"/>
	</g>
</g>
<g>
	<g>
		<path d="M211.268,23.167c-0.073,16.674,0.036,33.329,0.375,50c0.008,0.363,0.555,0.363,0.563,0
			c0.339-16.671,0.448-33.326,0.375-50C212.576,22.32,211.272,22.32,211.268,23.167L211.268,23.167z"/>
	</g>
</g>
<g>
	<g>
		<path d="M239.143,12.667c-1.209,9.079-0.657,18.542-0.717,27.688c-0.059,9.115,0.12,18.208,0.563,27.313
			c0.027,0.56,0.842,0.56,0.869,0c0.443-9.104,0.622-18.197,0.563-27.313c-0.06-9.146,0.492-18.608-0.717-27.688
			C239.657,12.305,239.191,12.305,239.143,12.667L239.143,12.667z"/>
	</g>
</g>
<g>
	<g>
		<path d="M156.794,49.299c6.706-4.588,15.041-7.89,22.696-10.463c7.833-2.633,17.515-5.042,25.786-4.924
			c8.072,0.114,16.733,0.82,24.573,2.724c4.072,0.989,8.299,2.384,11.933,4.468c4.07,2.334,7.67,5.396,11.733,7.762
			c0.773,0.451,1.715-0.685,0.98-1.271c-6.615-5.286-12.689-9.867-20.819-12.528c-8.441-2.763-17.79-3.07-26.589-3.54
			c-8.717-0.466-18.196,2.236-26.467,4.771c-8.373,2.566-17.477,6.574-24.567,11.736C155.303,48.58,156.005,49.839,156.794,49.299
			L156.794,49.299z"/>
	</g>
</g>
<g>
	<g>
		<path d="M164.35,24.395c14.683-6.298,30.564-8.718,46.374-10.164c8.224-0.752,16.394-0.611,24.448,1.347
			c7.909,1.923,13.677,5.597,20.028,10.471c0.401,0.308,0.909-0.364,0.537-0.696c-5.334-4.76-10.118-8.431-16.991-10.72
			c-8.423-2.805-17.35-3.006-26.122-2.419c-16.705,1.116-33.716,4.011-49.126,10.725C162.5,23.373,163.364,24.818,164.35,24.395
			L164.35,24.395z"/>
	</g>
</g>
<g>
	<g>
		<path d="M257.424,146.552c2.048-0.122,3.822-0.773,5.686-1.603c3.665-1.63,7.572-2.759,11.336-4.139
			c6.725-2.466,13.44-4.896,20.033-7.695c1.18-0.501,0.318-2.304-0.847-2.01c-12.354,3.126-25.439,7.717-36.655,13.796
			C256.219,145.312,256.54,146.605,257.424,146.552L257.424,146.552z"/>
	</g>
</g>
<g>
	<g>
		<path d="M116.424,144.854c-4.027-0.11-8.266-1.302-12.188-2.234c-4.267-1.015-8.572-1.647-12.873-2.496
			c-8.825-1.742-17.526-4.002-26.314-5.909c-0.589-0.128-0.833,0.735-0.25,0.904c9.231,2.666,18.425,5.568,27.765,7.832
			c7.597,1.842,15.99,4.548,23.86,4.528C118.119,147.475,118.113,144.901,116.424,144.854L116.424,144.854z"/>
	</g>
</g>
<g>
	<g>
		<path d="M86.698,158.345c-2.598,0.428-5.349,0.043-7.977,0.215c-3.218,0.21-6.42,0.488-9.643,0.649
			c-5.969,0.3-11.978,0.683-17.879,1.644c-0.979,0.159-0.682,1.617,0.225,1.657c6.53,0.29,13.099-0.157,19.615-0.597
			c5.185-0.35,11.515,0.041,16.314-2.011C88.31,159.494,87.571,158.201,86.698,158.345L86.698,158.345z"/>
	</g>
</g>
<g>
	<g>
		<path d="M290.462,151.086c6.18-3.057,12.591-5.766,18.776-8.883c0.661-0.333,0.179-1.272-0.479-1.137
			c-3.754,0.771-7.126,2.156-10.551,3.843c-2.831,1.394-6.212,2.63-8.822,4.337C288.232,150.002,289.233,151.695,290.462,151.086
			L290.462,151.086z"/>
	</g>
</g>
<g>
	<g>
		<path d="M243.592,133.667c0.112-0.988,1.255-2.227,1.838-3.001c0.679-0.901,1.062-2.188,1.324-3.271
			c0.246-1.011-1.002-1.404-1.573-0.663c-0.362,0.471-0.636,0.949-0.911,1.473c-0.365,0.695-0.984,1.204-1.364,1.866
			c-0.685,1.193-1.515,2.184-1.649,3.596C241.113,135.175,243.423,135.136,243.592,133.667L243.592,133.667z"/>
	</g>
</g>
<g>
	<g>
		<path d="M127.657,138.82c-1.722-0.413-3.676-3.361-5.577-2.242c-0.331,0.195-0.418,0.604-0.245,0.933
			c0.482,0.92,1.889,1.473,2.745,2.003c0.836,0.518,1.816,1.151,2.844,1.031C128.343,140.436,128.696,139.07,127.657,138.82
			L127.657,138.82z"/>
	</g>
</g>
<g>
	<path fill="#FF0000" d="M282.781,102.027c-1.344-3.515-3.215-0.649-4.344-3.603c-0.717-1.875,0.365-2.718,1.229-3.048
		c0.695-0.267,1.398-0.428,2.096-0.694c4.035-1.543,6.773-3.396,7.385-3.629c3.787-1.447,8.723,0.533,11.41,7.563
		c2.67,6.982,0.598,12.072-3.273,13.552c-0.834,0.319-1.76,0.404-2.512,0.691c-0.332,0.128-0.354,0.404-0.158,0.92l1.041,2.719
		c2.322,5.825,3.422,2.611,4.461,5.329c1.166,3.047-2.789,4.72-4.043,5.199c-1.168,0.446-5.307,1.975-6.471-1.072
		c-0.984-2.577,1.656-1.76,0.186-5.603L282.781,102.027z M289.383,96.925c-1.086,0.415-0.842,0.968-0.484,1.904l2.688,7.029
		c0.377,0.984,0.537,2.158,2.041,1.583c1.836-0.702,1.664-3.322,0.57-6.181C293.071,98.309,291.248,96.212,289.383,96.925z"/>
	<path fill="#FF0000" d="M300.414,84.222c-1.113,0.425-2.949,0.214-3.828-2.083c-1.271-3.326,1.381-4.985,2.801-5.528
		c1.113-0.426,3.176-0.623,4.125,1.86C304.711,81.612,301.805,83.69,300.414,84.222z M306.278,103.143
		c-0.375-3.563-0.811-8.123-2.225-11.826c-1.236-3.233-1.277-6.011,1.199-6.958c2.422-0.926,5.547,2.659,7.814,5.338
		c0.994,1.178,10.68,13.91,13.15,17.37c2.281,3.211,2.959,0.479,3.98,3.151c1.309,3.421-2.697,4.792-4.09,5.323
		c-3.98,1.522-6.393,2.391-7.502-0.516c-0.861-2.249,1.158-2.055,0.531-3.694c-0.807-2.108-1.572-2.03-6.055-0.316
		c-1.447,0.554-2.273,0.976-1.396,3.272c0.699,1.828,2.014-0.071,2.945,2.365c1.076,2.812-1.912,4.008-3.025,4.434
		c-3.98,1.521-4.826,0.395-5.4-1.104c-0.842-2.203,0.912-2.121,1.074-4.117c0.129-1.499-0.146-3.972-0.303-5.631L306.278,103.143z
		 M308.905,80.976c-1.113,0.426-2.949,0.214-3.828-2.083c-1.271-3.326,1.381-4.985,2.801-5.528c1.113-0.426,3.174-0.623,4.123,1.86
		C313.201,78.366,310.295,80.444,308.905,80.976z M313.412,104.283c0.279-0.106,1.148-0.333,0.881-1.035
		c-0.27-0.703-2.008-2.831-2.482-3.403c-0.537-0.653-1.674-2.207-2.285-1.973c-0.668,0.256-0.066,3.249,0.02,3.807
		c0.086,0.559,0.311,2.566,0.525,3.129c0.305,0.797,0.947,0.391,1.254,0.273L313.412,104.283z"/>
	<path fill="#FF0000" d="M341.668,101.75c-0.832-0.756-3.783-3.55-4.424-3.305c-0.725,0.277-0.369,1.538,0.15,2.896l0.377,0.984
		c0.859,2.25,2.686,1.767,3.564,4.063c0.572,1.499,0.471,3.149-4.43,5.023c-4.396,1.681-5.439,0.628-6.049-0.965
		c-0.932-2.437,0.945-1.704-0.207-5.721c-0.754-2.72-1.873-5.729-2.895-8.401c-1.111-2.905-2.373-6.29-3.771-9.032
		c-1.902-3.892-2.715-1.593-3.809-4.452c-0.287-0.75-1.539-3.278,4.557-5.608c1.309-0.501,4.184-1.653,5.42,1.579
		c0.951,2.483-1.154,1.569,0.961,7.1c0.232,0.609,0.781,1.957,1.281,1.766c0.752-0.287,1.104-5.954,0.691-7.032
		c-0.375-0.984-1-1.282-1.395-2.313c-1.326-3.468,2.422-4.686,3.758-5.196s4.475-1.979,5.748,1.348
		c1.469,3.842-2.305,2.653-2.652,4.665c-0.197,1.151-1.471,4.914-0.719,6.882c0.484,1.267,1.582,2.135,2.367,2.856l10.1,8.975
		c1.445,1.273,3.07,0.438,4.164,3.296c0.896,2.343-0.434,3.12-1.52,3.535l-4.732,1.81c-1.084,0.415-1.166,0.285-3.158-1.586
		L341.668,101.75z"/>
	<path fill="#FF0000" d="M347.92,80.721c-1.863-4.873-1.391-11.982,4.01-14.047c1.781-0.682,4.305-0.088,4.723-0.248
		c0.389-0.148,0.564-0.861,1.146-1.084c0.947-0.362,4.389,2.297,5.895,6.234c0.609,1.592,0.605,3.42-0.424,3.813
		c-1.865,0.714-4.994-4.214-7.889-3.106c-0.863,0.329-1.531,1.338-0.885,3.023c1.414,3.703,4.852,1.261,9.461,3.635
		c2.461,1.261,4.219,3.273,5.563,6.789c2.098,5.482,1.789,12.689-4.695,15.17c-1.838,0.702-5.287,1.108-7.43,0.262
		c-1.82-0.755-4.359-5.477-5.273-7.867c-0.482-1.266-0.635-2.658,0.201-2.977c1.977-0.756,4.492,6.823,9.613,4.865
		c0.613-0.234,1.945-1.335,1.264-3.116c-1.289-3.374-4.779-1.073-9.463-4.062C351.416,86.529,349.209,84.096,347.92,80.721z"/>
	<path fill="#FF0000" d="M374.115,76.722c0.09,0.986,0.279,4.405-0.414,4.671c-0.697,0.267-2.836-2.408-3.428-3.202
		c-1.764-2.278-3.748-5.55-4.859-8.455c-1.326-3.467-1.766-7.542,0.6-8.446s4.754,2.426,6.08,5.893
		C373.205,70.087,373.908,73.847,374.115,76.722z M379.076,95.452c-1.699,0.649-3.988-1.162-5.08-4.02
		c-1.094-2.858-0.598-5.734,1.102-6.384c1.697-0.649,3.984,1.163,5.078,4.021C381.268,91.927,380.774,94.802,379.076,95.452z"/>
</g>
<path fill-rule="evenodd" clip-rule="evenodd" fill="#FFFFFF" d="M176.986,103.387c-1.766,1.063-3.932,1.295-5.943,1.435
	c6.611,1.746,14.804,1.146,21.695,1.312c2.094,0.05,6.028-0.529,7.395,1.047"/>
</svg>
