<?xml version="1.0" encoding="utf-8"?>
<!-- Generator: Adobe Illustrator 14.0.0, SVG Export Plug-In . SVG Version: 6.00 Build 43363)  -->
<!DOCTYPE svg PUBLIC "-//W3C//DTD SVG 1.1//EN" "http://www.w3.org/Graphics/SVG/1.1/DTD/svg11.dtd">
<svg version="1.1" id="Layer_1" xmlns="http://www.w3.org/2000/svg" xmlns:xlink="http://www.w3.org/1999/xlink" x="0px" y="0px"
	 width="400px" height="400px" viewBox="0 0 400 400" enable-background="new 0 0 400 400" xml:space="preserve">
<rect x="0" fill="none" stroke="#000000" stroke-width="3.7403" width="400" height="400"/>
<radialGradient id="SVGID_1_" cx="-2943.2478" cy="-580.0522" r="49.0516" gradientTransform="matrix(0.4205 0 0 0.4206 1318.434 413.2288)" gradientUnits="userSpaceOnUse">
	<stop  offset="0" style="stop-color:#FF0000;stop-opacity:0.95"/>
	<stop  offset="0.3636" style="stop-color:#FF0000;stop-opacity:0.6512"/>
	<stop  offset="0.9758" style="stop-color:#FF0000;stop-opacity:0"/>
</radialGradient>
<ellipse opacity="0.46" fill-rule="evenodd" clip-rule="evenodd" fill="url(#SVGID_1_)" cx="80.916" cy="169.271" rx="16.066" ry="24.35"/>
<radialGradient id="SVGID_2_" cx="-2847.5193" cy="-477.4219" r="26.4755" gradientTransform="matrix(0.4205 0 0 0.4713 1318.434 394.2585)" gradientUnits="userSpaceOnUse">
	<stop  offset="0" style="stop-color:#FF0000;stop-opacity:0.95"/>
	<stop  offset="0.3636" style="stop-color:#FF0000;stop-opacity:0.6512"/>
	<stop  offset="0.9758" style="stop-color:#FF0000;stop-opacity:0"/>
</radialGradient>
<ellipse opacity="0.46" fill-rule="evenodd" clip-rule="evenodd" fill="url(#SVGID_2_)" cx="121.166" cy="169.271" rx="8.672" ry="14.727"/>
<g>
	<g>
		<path d="M104.232,136.392c2.391,7.756,2.374,15.446,2.317,23.532c-0.007,1.097-0.001,1.996,0.095,3.054
			c0.257,2.813-1.646,1.464-3.243,0.737c-1.599-0.728-2.418-1.6-4.125-1.249c-0.311,0.064-0.476,0.481-0.302,0.743
			c1.422,2.143,9.376,6.724,9.704,1.579c0.281-4.412-0.047-9.114-0.288-13.529c-0.127-2.324-0.474-4.755-0.794-7.059
			c-0.416-2.98-2.027-5.098-2.989-7.912C104.527,136.053,104.157,136.15,104.232,136.392L104.232,136.392z"/>
	</g>
</g>
<g>
	<g>
		<path d="M67.569,140.961c0.809-3.421,4.513-5.711,6.775-8.236c2.836-3.165,9.157-3.118,13.112-3.715
			c3.245-0.49,10.138-2.129,8.324-6.78c-0.147-0.377-0.808-0.367-0.764,0.104c0.379,4.094-6.456,4.489-9.292,4.869
			c-3.75,0.503-7.655,0.936-11.104,2.579c-2.258,1.076-4.487,4.251-6.087,6.115c-1.272,1.482-2.477,3.243-1.534,5.139
			C67.12,141.277,67.509,141.215,67.569,140.961L67.569,140.961z"/>
	</g>
</g>
<g>
	<g>
		<path d="M111.043,127.853c8.534-2.478,16.864,3.126,19.414,11.29c0.145,0.463,0.827,0.374,0.84-0.114
			c0.273-9.501-12.623-17.661-20.435-11.485C110.713,127.663,110.875,127.901,111.043,127.853L111.043,127.853z"/>
	</g>
</g>
<g>
	<g>
		<path d="M91.495,152.329c2.559,0,2.559-3.969,0-3.969S88.936,152.329,91.495,152.329L91.495,152.329z"/>
	</g>
</g>
<g>
	<g>
		<path d="M122.095,151.236c0.764,0,1.401-0.637,1.401-1.401s-0.637-1.401-1.401-1.401s-1.401,0.637-1.401,1.401
			S121.331,151.236,122.095,151.236L122.095,151.236z"/>
	</g>
</g>
<g>
	<g>
		<path d="M78.494,158.352c0.478-1.386-0.095-2.968,2.917-2.51c1.176,0.179,2.31,0.111,3.493,0.107
			c2.625-0.007,5.095,0.262,7.583-0.719c0.209-0.082,0.188-0.393-0.054-0.401c-2.469-0.084-4.895,0.237-7.358-0.139
			c-1.629-0.249-3.535-1.317-5.23-0.93c-2.403,0.548-3.042,2.608-1.972,4.674C78.017,158.713,78.405,158.613,78.494,158.352
			L78.494,158.352z"/>
	</g>
</g>
<g>
	<g>
		<path d="M113.358,152.907c1.998,0.07,4.067,0.462,6.035,0.844c1.481,0.287,2.955,0.45,3.904,1.756
			c0.683,0.938,2.435,0.416,2.004-0.845c-0.546-1.6-2.027-2.259-3.656-2.188c-1.526,0.066-2.766,0.554-4.36,0.333
			c-1.318-0.182-2.591-0.392-3.928-0.406C113.031,152.398,113.033,152.896,113.358,152.907L113.358,152.907z"/>
	</g>
</g>
<g>
	<g>
		<path d="M88.672,142.092c-1.568-3.716-7.17-1.483-9.396,0.371c-1.679,1.399-2.14,3.047-2.546,5.116
			c-0.571,2.903-1.117,6.05-0.537,8.977c0.074,0.375,0.643,0.351,0.731,0c0.848-3.348,1.015-6.786,1.63-10.178
			c0.34-1.875,2.031-3.038,3.576-3.902c2.183-1.222,4.065-0.797,6.257-0.013C88.621,142.548,88.748,142.272,88.672,142.092
			L88.672,142.092z"/>
	</g>
</g>
<g>
	<g>
		<path d="M125.317,154.771c-0.09-0.133,0.368-2.079,0.396-2.306c0.143-1.175,0.021-2.417,0.005-3.599
			c-0.022-1.633-0.341-3.173-0.513-4.79c-0.124-1.164-0.868-2.036-1.272-3.123c-0.048-0.131-0.228-0.079-0.206,0.057
			c0.061,0.386,0.469,1.767,0.488,1.896c0.195,1.295-0.127,2.397-0.252,3.667c-0.136,1.383-0.212,2.779-0.302,4.166
			c-0.066,1.012-0.197,4.222,1.349,4.433C125.22,155.2,125.467,154.994,125.317,154.771L125.317,154.771z"/>
	</g>
</g>
<g>
	<g>
		<path d="M123.871,140.832c-1.042-0.265-1.654-0.922-2.712-1.14c-0.861-0.177-1.526-0.247-2.395-0.069
			c-1.644,0.336-3.18,1.491-3.557,3.17c-0.043,0.192,0.215,0.308,0.32,0.135c0.994-1.635,2.177-2.889,4.231-2.913
			c1.503-0.018,2.637,0.868,4.029,1.117C123.982,141.167,124.068,140.881,123.871,140.832L123.871,140.832z"/>
	</g>
</g>
<g>
	<g>
		<path d="M128.925,149.75c-1.049,8.747,0.707,17.542,0.13,26.338c-0.361,5.499-2.081,10.607-4.995,15.263
			c-2.71,4.331-6.421,5.079-10.313,7.736c-1.833,1.251-2.619,3.795-3.729,5.602c-3.782,6.155-10.847,5.172-16.762,3.335
			c-3.977-1.234-7.933-2.699-12.072-3.418c-5.53-0.961-10.186-3.976-13.375-8.665c-0.521-0.767-1.94-0.306-1.583,0.667
			c1.592,4.322,4.742,6.596,8.498,8.98c2.188,1.39,4.866,1.401,7.333,1.786c2.953,0.462,5.369,1.953,8.271,2.536
			c9.296,1.867,17.266,3.438,22.424-6.162c2.205-4.104,6.222-4.524,9.611-7.336c3.617-3,5.779-8.204,7.127-12.563
			c3.3-10.667,1.596-23.349,0.084-34.188C129.518,149.26,128.965,149.415,128.925,149.75L128.925,149.75z"/>
	</g>
</g>
<g>
	<g>
		<path d="M114.684,200.709c0.585,4.768,0.562,13.393-5.882,14.075c-5.202,0.552-11.132-0.124-16.033-1.764
			c-4.878-1.632-9.103-4.882-13.944-6.675c-3.188-1.181-7.219-4.36-10.825-3.261c-4.647,1.418,1.639,7.917,3.192,9.077
			c4.012,2.997,8.105,5.417,12.577,7.663c5.225,2.624,9.89,6.113,15.012,8.841c0.845,0.449,1.667-0.612,1.014-1.314
			c-6.261-6.73-16.118-9.334-23.646-14.324c-1.885-1.25-3.833-2.617-5.534-4.105c-0.571-0.588-1.042-1.244-1.412-1.97
			c1.013-0.364,2.025-0.729,3.038-1.093c0.838,0.472,1.697,0.9,2.578,1.285c4.631,2.161,9.411,3.938,14.027,6.217
			c3.386,1.671,6.934,2.507,10.667,2.913c2.731,0.296,8.426,1.018,10.971-0.194c6.163-2.936,6.486-9.568,4.948-15.472
			C115.324,200.204,114.631,200.277,114.684,200.709L114.684,200.709z"/>
	</g>
</g>
<g>
	<g>
		<path d="M67.484,209.904c1.099-3.426-4.531-2.147-6.09-1.641c-1.368,0.443-2.145,0.994-2.679,2.309
			c-0.918,2.259,1.365,3.609,2.198,5.288c1.469,2.959,4.157,3.835,6.335,6.208c2.398,2.613,5.376,3.974,8.643,5.23
			c2.712,1.044,5.773,1.674,8.212,3.313c1.936,1.303,3.66,2.785,5.694,3.956c2.442,1.406,4.293,0.551,6.415-0.664
			c0.486-0.279,0.44-1.153-0.165-1.263c-1.942-0.349-4.447-0.534-6.104-1.456c-2.071-1.153-3.883-2.788-5.869-4.083
			c-4.302-2.805-9.994-2.345-14.181-5.811c-2.093-1.733-5.868-4.135-7.288-6.421c-0.539-0.867-3.269-3.688-1.131-4.563
			c1.13-0.463,4.413-1.77,5.209-0.299C66.872,210.357,67.373,210.25,67.484,209.904L67.484,209.904z"/>
	</g>
</g>
<g>
	<g>
		<path d="M66.41,219.169c-0.841-1.571-2.634-0.881-3.44,0.495c-1.844,3.147-1.472,6.995,1.039,9.5
			c1.684,1.68,4.236,2.695,6.306,3.77c3.405,1.768,6.358,4.028,9.373,6.38c2.224,1.734,4.702,2.828,7.2,4.093
			c3.289,1.666,7.415,1.951,10.288,4.288c0.453,0.368,1.039-0.08,0.794-0.612c-1.067-2.329-2.13-3.111-4.498-3.951
			c-4.33-1.535-8.516-3.027-12.318-5.718c-3.23-2.286-6.141-4.615-9.666-6.486c-1.733-0.92-3.489-1.723-5.176-2.731
			c-2.183-1.849-2.915-4.031-2.193-6.547c0.222-1.597,0.874-2.336,1.956-2.22C66.247,219.609,66.523,219.38,66.41,219.169
			L66.41,219.169z"/>
	</g>
</g>
<g>
	<g>
		<path d="M53.704,141.628c-3.244-0.315-6.642-0.071-8.688,2.916c-1.419,2.072-2.857,5.551-1.203,7.986
			c2.345,3.451,3.219,8.187,6.585,10.799c1.599,1.241,2.65,1.156,3.835,3.18c0.555,0.947,1.115,1.866,2.112,2.345
			c0.542,0.261,1.394,0.208,1.673-0.439c0.068-0.158,0.137-0.316,0.205-0.474c0.272-0.629-0.045-1.282-0.764-1.332
			c-0.293-0.02-1.257-2.282-1.401-2.529c-0.915-1.562-2.563-2.011-4.102-2.771c-2.107-1.04-3.684-5.313-4.87-7.239
			c-1.597-2.593-2.741-4.45-1.334-7.544c1.422-3.127,4.98-3.972,7.951-4.334C54.063,142.148,54.071,141.664,53.704,141.628
			L53.704,141.628z"/>
	</g>
</g>
<g>
	<g>
		<path d="M52.345,148.512c-0.06-0.773-0.618-1.732-1.565-1.472c-1.127,0.31-1.331,2.188-1.59,3.103
			c-0.799,2.819-0.237,6.663,3.572,5.684c-0.439-0.179-0.878-0.357-1.318-0.537c0.834,1.724-0.365,4.792,2.26,5.122
			c0.301,0.038,0.687-0.257,0.731-0.557c0.156-1.041-0.294-1.929-0.358-2.986c-0.061-1.003-0.175-1.852-0.618-2.756
			c-0.164-0.336-0.632-0.615-1.008-0.578c-1.779,0.171-1.431-1.529-1.227-2.831c0.074-0.471,0.127-0.943,0.199-1.414
			c0.052-0.342,0.21-1.922,0.299-0.778C51.754,148.909,52.377,148.912,52.345,148.512L52.345,148.512z"/>
	</g>
</g>
<g>
	<g>
		<path d="M45.782,142.736c-0.116,1.537-5.871-4.967-3.633-2.056c-2.875-3.741,0.678-5.251,2.668-6.417
			c1.184-0.693,1.586-1.4,1.575-2.668c-0.002-0.301-0.193-0.49-0.454-0.597c-4.935-2.021-6.613-5.447-4.508-10.424
			c0.648-1.532,1.481-3.038,1.014-4.735c-0.275-0.999-3.54-4.086-1.827-4.896c1.892-0.894,3.674-1.36,5.152-2.868
			c0.242-0.246,0.202-0.578,0-0.828c-2.771-3.445-4.864-6.503-2.627-11.067c1.578-3.22,3.446-5.63,6.97-6.899
			c0.513-0.185,0.669-1.104,0-1.2c-4.702-0.677-5.223,2.203-8.017,5.208c-2.065,2.222-3.683,6.253-2.002,9.08
			c0.862,1.449,1.482,3.071,2.899,4.085c2.32,1.66-4.407,3.177-4.612,3.382c-2.856,2.856,2.547,5.688,1.92,8.548
			c-1.1,5.02-3.153,6.193,0.247,10.567c0.661,0.85,1.956,2.053,2.967,2.439c2.077,0.794-1.042,1.241-2.01,2.062
			c-4.517,3.827-1.076,13.948,4.907,10.076c0.124-0.081,0.23-0.224,0.218-0.38c-0.01-0.137-0.021-0.275-0.031-0.412
			C46.559,142.21,45.822,142.21,45.782,142.736L45.782,142.736z"/>
	</g>
</g>
<g>
	<g>
		<path d="M49.426,89.295c1.092-4.259,3.738-6.94,7.922-8.513c4.484-1.685,7.733-0.243,11.995,0.866
			c0.66,0.172,1.39-0.602,0.944-1.229c-2.913-4.102-9.387-3.355-13.605-2.051c-2.723,0.842-4.758,2.54-6.733,4.53
			c-2.106,2.123-1.561,3.167-1.987,5.994C47.821,89.833,49.177,90.266,49.426,89.295L49.426,89.295z"/>
	</g>
</g>
<g>
	<g>
		<path d="M66.001,79.796c4.077-4.286,10.684-6.702,16.41-7.685c3.713-0.638,6.86,1.099,8.695,4.271
			c0.711,1.229,1.18,2.032,2.534,2.47c0.398,0.129,0.838-0.381,0.571-0.743c-3.639-4.934-5.268-9.495-12.446-8.342
			c-4.048,0.65-17.347,3.909-16.219,9.908C65.584,79.878,65.868,79.937,66.001,79.796L66.001,79.796z"/>
	</g>
</g>
<g>
	<g>
		<path d="M96.963,76.702c2.447-4.168,7.677-6.006,11.702-2.841c2.081,1.636,4.185,3.818,6.532,4.992
			c0.409,0.205,0.801-0.054,0.849-0.487c0.205-1.843-1.081-2.949-2.535-3.959c-2.592-1.801-4.689-4.023-7.814-4.834
			c-3.814-0.989-10.095,2.565-10.208,6.731C95.466,77.101,96.572,77.369,96.963,76.702L96.963,76.702z"/>
	</g>
</g>
<g>
	<g>
		<path d="M119.656,77.24c1.169,0.127,2.019,0.064,3,0.835c0.989,0.777,2.199,1.901,2.599,3.111c0.688,2.081-0.34,4.48,2.189,5.534
			c0.402,0.168,0.74-0.305,0.658-0.658c-0.332-1.431,0.103-2.88-0.103-4.335c-0.238-1.681-0.936-2.779-2.2-3.859
			c-0.868-0.742-1.902-1.541-3.007-1.882c-1.221-0.376-2.044-0.076-3.275,0.222C118.899,76.358,119.101,77.18,119.656,77.24
			L119.656,77.24z"/>
	</g>
</g>
<g>
	<g>
		<path d="M64.023,160.362c-5.215,6.32-3.694,15.61-1.605,22.966c2.472,8.702,9.792,11.373,18.001,11.865
			c0.573,0.034,0.569-0.73,0.124-0.917c-2.196-0.921-4.384-1.612-6.674-2.258c-4.877-1.375-7.59-4.663-9.302-9.283
			c-1.151-3.105-1.15-6.492-1.775-9.714c-0.437-2.253-0.087-10.372,1.49-12.459C64.396,160.412,64.142,160.217,64.023,160.362
			L64.023,160.362z"/>
	</g>
</g>
<g>
	<g>
		<path d="M69.635,160.638c1.133,0.403,4.141-1.789,4.967-2.293c2.221-1.355,4.503-2.578,6.753-3.879
			c0.198-0.114,0.066-0.446-0.157-0.373c-2.764,0.903-5.427,2.185-8.1,3.326c-1.297,0.554-3.848,1.453-4.554,2.813
			c-0.139,0.269-0.109,0.571,0.103,0.793c0.06,0.063,0.119,0.125,0.179,0.188c0.131,0.138,0.39,0.187,0.551,0.071
			c0.086-0.047,0.172-0.093,0.258-0.14C69.885,161.056,69.885,160.727,69.635,160.638L69.635,160.638z"/>
	</g>
</g>
<g>
	<g>
		<path d="M120.907,154.159c0.814-0.053,1.619,1.24,2.076,1.782c0.594,0.706,1.077,1.338,2,1.593
			c0.275,0.076,0.525-0.183,0.455-0.455c-0.271-1.045-0.953-1.782-1.867-2.578c-0.725-0.632-1.835-1.299-2.806-0.868
			C120.508,153.748,120.637,154.177,120.907,154.159L120.907,154.159z"/>
	</g>
</g>
<g>
	<g>
		<path d="M125.499,95.361c0.101,0,0.101-0.155,0-0.155S125.399,95.361,125.499,95.361L125.499,95.361z"/>
	</g>
</g>
<g>
	<g>
		<path d="M119.894,91.749c5.187,5.808,5.615,12.14,6.71,19.475c1.054,7.061,2.631,13.615,2.749,20.784
			c0.006,0.365,0.526,0.434,0.63,0.085c2.281-7.645-1.153-15.138-2.03-22.78c-0.836-7.287-2.333-12.719-7.702-17.922
			C120.015,91.163,119.677,91.507,119.894,91.749L119.894,91.749z"/>
	</g>
</g>
<g>
	<g>
		<path d="M125.588,84.052c-1.615,3.958-4.413,6.347-8.746,4.874c-2.546-0.866-4.983-2.269-7.46-3.309
			c-2.596-1.091-4.122-3.054-6.949-2.88c-2.834,0.174-2.791-1.346-4.901-1.362c-0.283-0.002-0.408,0.407-0.147,0.544
			c0.419,0.221,1.562,1.16,2.122,1.394c2.11,0.883,4.438,0.653,6.512,1.736c3.461,1.807,6.716,4.164,10.325,5.685
			c6.403,2.698,8.348-0.729,9.901-6.501C126.362,83.797,125.749,83.657,125.588,84.052L125.588,84.052z"/>
	</g>
</g>
<g>
	<g>
		<path d="M95.938,80.982c-1.824-0.716-3.03,0.615-4.454,1.572c-0.808,0.542-1.508,1.409-2.22,2.078
			c-0.534,0.502-0.834,1.452-1.416,1.844c-0.132,0.088-0.089,0.309,0.083,0.308c1.009-0.007,1.62-1.081,2.241-1.724
			c1.249-1.292,3.545-4.304,5.614-3.534C96.131,81.654,96.271,81.113,95.938,80.982L95.938,80.982z"/>
	</g>
</g>
<g>
	<g>
		<path d="M72.488,90.147c-1.937,0.083-4.11,0.985-5.139,2.742c-1.397,2.385,1.539,2.264-0.972,3.419
			c-1.341,0.617-3.125,2.479-4.432,3.439c-0.64,0.47-0.547,1.188-0.627,1.931c0,0.189,0.048,0.366,0.143,0.53
			c1.134,2.186,0.134,4.636-0.368,6.84c-0.358,1.573-0.604,3.112-0.52,4.714c0.033,0.617,0.475,1.406,1.01,1.72
			c0.979,0.573-1.849,4.078-2.229,4.735c-1.648,2.853-1.415,5.655-0.123,8.515c1.231,2.726,1.3,4.504-0.601,6.896
			c-0.505,0.634-0.49,1.495-0.278,2.267c0.364,1.322,1.541,2.354,2.454,3.286c0.838,0.856,1.867,3.697,2.691,4.94
			c0.587,0.886,2.211,0.34,1.804-0.761c-0.607-1.639-0.729-3.847-1.9-5.213c-2.421-2.826-1.048-4.049-0.333-7.022
			c0.568-2.361-0.997-3.599-2.159-5.373c-3.075-4.691,1.858-8.092,3.28-12.007c0.104-0.289-0.011-0.688-0.236-0.891
			c-2.947-2.662,0.148-8.629-0.029-12.144c-0.098-1.93,0.232-2.026,1.982-2.835c1.255-0.581,1.813-2.434,3.2-3.125
			c0.309-0.153,0.407-0.528,0.342-0.839c-0.521-2.485,0.665-4.482,3.089-5.401C72.72,90.44,72.709,90.138,72.488,90.147
			L72.488,90.147z"/>
	</g>
</g>
<g>
	<g>
		<path d="M58.713,146.913c0.4,0.04,0.792,0.19,1.173,0.311c0.483,0.153,0.889,0.169,1.381,0.052c0.681-0.163,0.9-1.268,0.206-1.577
			c-0.84-0.375-1.834-0.566-2.761-0.537C57.566,145.198,57.607,146.803,58.713,146.913L58.713,146.913z"/>
	</g>
</g>
<g>
	<g>
		<path d="M59.094,180.432c-2.519,3.286-7.166,5.792-10.207,8.67c-2.008,1.9-4.33,3.358-6.269,5.321
			c-1.273,1.289-3.69,4.957-5.611,4.909c-0.701-0.018-1.09,0.552-1.172,1.172c-0.268,0.878-0.535,1.757-0.802,2.635
			c-0.335,0.571-0.181,1.508,0.473,1.805c7.779,3.53,12.953,11.765,22.371,11.146c0.646-0.042,1.095-1.049,0.368-1.359
			c-3.973-1.695-7.924-3.097-11.539-5.516c-3.399-2.275-6.357-5.125-10.184-6.681c0.263,0.646,0.525,1.291,0.788,1.938
			c0.737-1.357,0.98-2.424,0.868-3.967c-0.391,0.391-0.781,0.781-1.172,1.172c3.74-0.093,6.818-5.818,9.449-7.982
			c2.572-2.115,4.836-4.519,7.27-6.782c2.039-1.896,4.985-3.425,6.275-5.95C60.318,180.343,59.498,179.906,59.094,180.432
			L59.094,180.432z"/>
	</g>
</g>
<g>
	<g>
		<path d="M129.13,173.813c1.929,2.06,4.559,3.14,6.951,4.586c3.396,2.053,6.598,4.22,9.752,6.622
			c2.88,2.193,5.924,4.081,9.028,5.937c2.541,1.518,6.332,0.851,7.699,4.138c0.213-0.523,0.426-1.046,0.639-1.568
			c-5.41,2.358-10.451,5.192-14.958,9.021c-3.674,3.121-10.223,5.3-12.076,10.053c-0.414,1.063,1.054,1.681,1.772,1.032
			c3.389-3.061,7.794-4.956,11.078-8.028c4.556-4.264,9.908-7.192,15.587-9.679c0.511-0.224,0.856-1.05,0.639-1.568
			c-0.788-1.873-1.86-2.959-3.643-3.974c-3.213-1.829-6.778-2.599-10.011-4.611c-3.489-2.171-6.353-4.942-9.928-6.952
			c-3.843-2.161-7.702-4.158-11.598-6.215C129.286,172.197,128.526,173.167,129.13,173.813L129.13,173.813z"/>
	</g>
</g>
<g>
	<g>
		<path d="M89.277,116.488c3.314-1.86,3.946-0.986,6.71,0.725c1.216,0.753,3.353,0.861,4.69,0.494
			c1.827-0.502,1.534-1.346,2.641-2.619c2.23-2.566,5.904-2.818,8.782-4.251c0.269-0.134,0.177-0.525-0.079-0.604
			c-2.84-0.883-5.42,0.413-7.976,1.752c-1.169,0.613-2.052,1.586-2.912,2.554c-1.876,2.11-5.148-0.201-7.01-1.228
			c-0.262-0.145-0.646-0.186-0.904,0c-1.368,0.983-2.669,1.985-4.128,2.858C88.886,116.291,89.069,116.604,89.277,116.488
			L89.277,116.488z"/>
	</g>
</g>
<g>
	<g>
		<path d="M122.516,129.125c-5.004-0.536-9.744-2.562-14.744-3.145c-0.557-0.065-0.636,0.702-0.26,0.961
			c3.956,2.728,10.26,3.633,15.004,3.584C123.438,130.516,123.394,129.219,122.516,129.125L122.516,129.125z"/>
	</g>
</g>
<g>
	<g>
		<path d="M108.182,185.946c0.149-1.193-0.361-2.028-1.661-2.068c-1.111-0.034-2.202,1.381-2.713,2.229
			c-1.325,2.194,0.586,4.712,2.826,5.14c1.113,0.212,1.741-0.961,1.056-1.814c-0.412-0.512-1.33-1.022-1.537-1.646
			c-0.181-0.545,1.085-1.209,1.438-1.328c-0.315-0.128-0.631-0.257-0.946-0.385c0.009,0.026,0.018,0.052,0.027,0.078
			C106.855,187.077,108.084,186.733,108.182,185.946L108.182,185.946z"/>
	</g>
</g>
<g>
	<g>
		<path d="M51.837,183.315c-3.473,2.395-7.24,4.234-10.671,6.798c-3.917,2.927-7.906,5.752-11.88,8.6
			c-7.311,5.24-16.228,10.387-21.632,17.77c-2.517,3.439-3.968,4.479-3.816,8.839c0.123,3.532,1.784,6.967,3.322,10.073
			c2.001,4.039,4.348,7.827,6.194,11.957c2.168,4.853,3.895,9.888,6.068,14.737c1.728,3.855,3.558,7.767,5.537,11.502
			c1.94,3.662,5.334,6.492,8.279,9.318c3.421,3.284,6.692,6.637,9.771,10.246c2.704,3.171,4.797,7.563,8.28,10.008
			c6.124,4.298,12.415,2.502,19.163,0.847c10.382-2.547,20.442,2.445,30.843,1.627c1.355-0.107,1.323-1.936,0-2.082
			c-8.426-0.933-16.66-3.445-25.169-3.521c-7.379-0.065-14.784,4.979-21.882,1.263c-3.494-1.829-5.425-6.175-7.888-9.12
			c-2.618-3.129-5.339-6.137-8.25-8.995c-3.257-3.198-7.081-6.185-9.702-9.957c-2.318-3.335-3.734-7.619-5.601-11.256
			c-3.736-7.279-5.924-15.255-9.966-22.408c-2.113-3.739-4.294-7.306-5.637-11.421c-1.792-5.492,1.297-8.779,4.871-12.519
			c6.306-6.597,14.303-11.542,21.628-16.922c2.997-2.201,5.958-4.457,8.89-6.745c3.328-2.598,7.131-4.572,10.347-7.219
			C53.726,184.083,52.679,182.735,51.837,183.315L51.837,183.315z"/>
	</g>
</g>
<g>
	<g>
		<path d="M51.415,232.475c7.163,8.589,15.818,17.774,18.993,28.782c2.38,8.255,3.305,17.644,8.677,24.548
			c0.44,0.565,1.57,0.267,1.675-0.441c0.222-1.504,0.291-1.809-0.608-3.061c-1.51-2.104-2.232-5.515-3.095-7.938
			c-1.833-5.147-2.224-11.049-4.512-16c-4.988-10.791-12.697-17.877-20.373-26.646C51.713,231.195,50.979,231.952,51.415,232.475
			L51.415,232.475z"/>
	</g>
</g>
<g>
	<g>
		<path d="M74.881,267.482c-0.077,0.168-0.153,0.335-0.229,0.502c-0.178,0.267-0.191,0.724,0,0.988
			c1.541,2.146,4.417,2.295,6.755,3.026c3.027,0.948,6.018,1.753,8.479,3.871c2.308,1.987,2.365,4.215,3.543,6.732
			c0.409,0.873,1.551,0.475,1.832-0.239c1.996-5.081-3.226-9.479-7.319-11.338c-2.347-1.065-4.959-1.733-7.494-2.175
			c-1.159-0.202-4.556-0.791-4.74-1.368C75.573,267.068,75.019,267.083,74.881,267.482L74.881,267.482z"/>
	</g>
</g>
<g>
	<g>
		<path d="M90.293,269.943c2.021,0.004,3.765-0.466,5.636-1.259c3.572-1.514,7.245-1.671,10.933-2.656
			c8.091-2.164,16.975-2.971,25.283-3.762c14.225-1.354,27.746-2.882,41.569-6.641c-0.65-0.369-1.301-0.738-1.951-1.107
			c1.211,3.413-0.41,7.521-0.859,11.013c-0.703,5.468,0.704,11.416,0.673,16.94c-0.026,4.567-0.511,9.068-0.514,13.625
			c-0.005,7.425-9.671,8.461-15.304,8.797c-12.086,0.722-24.474,0.4-36.579,0.208c-12.404-0.197-25.181-0.887-37.147-4.377
			c-0.968-0.282-1.638,1.21-0.697,1.653c11.802,5.559,25.014,5.791,37.844,6.05c7.756,0.156,15.519-0.036,23.274-0.141
			c6.996-0.094,14.024,0.28,20.914-1.138c3.936-0.81,7.722-2.564,10.055-5.878c1.134-1.609,1.1-3.243,1.099-5.175
			c-0.002-2.704,0.349-5.313,0.495-8c0.396-7.246-0.705-14.422-0.919-21.643c-0.127-4.288,2.166-8.512,0.724-12.779
			c-0.28-0.83-1.077-1.331-1.951-1.107c-14.154,3.618-28.106,5.229-42.614,6.707c-6.94,0.707-13.855,1.893-20.708,3.176
			c-3.358,0.629-6.727,1.438-10.054,2.215c-3.318,0.775-6.135,2.834-9.427,3.615C89.126,268.504,89.348,269.94,90.293,269.943
			L90.293,269.943z"/>
	</g>
</g>
<g>
	<g>
		<path d="M173.793,265.03c9.108,1.191,19.139-4.612,27.213-8.214c-0.57-0.073-1.142-0.147-1.712-0.221
			c1.56,1.948,3.409,4.458,6.115,4.785c2.055,0.248,3.156-0.105,1.622,2.129c-1.686,2.455-4.195,3.678-6.95,4.568
			c-2.269,0.734-4.252,0.064-5.49,2.315c-0.673,1.225,0.348,2.312,1.29,2.908c0.509,0.323,1.26-0.094,1.229-0.705
			c-0.065-1.283,6.747-2.734,8.098-3.439c2.588-1.352,4.295-3.683,5.618-6.198c0.653-1.243,0.593-3.123-0.763-3.917
			c-0.749-0.439-1.396-0.47-2.239-0.457c-3.063,0.045-4.797-1.846-6.532-3.987c-0.423-0.521-1.175-0.465-1.712-0.221
			c-8.629,3.912-16.778,6.929-26.035,8.819C172.417,263.427,172.84,264.905,173.793,265.03L173.793,265.03z"/>
	</g>
</g>
<g>
	<g>
		<path d="M201.293,269.975c-6.445,0.534-16.445,9.165-13.552,16.496c3.54,8.971,20.966-5.637,23.877-9.049
			c0.834-0.977-0.218-2.536-1.414-1.833c-2.812,1.653-5.347,3.763-8.093,5.534c-1.22,0.787-2.501,1.479-3.745,2.227
			c-0.77,0.471-1.554,0.916-2.353,1.336c-1.996,1.525-3.827,1.1-5.495-1.278c0.826-4.007,3.4-7.285,6.685-9.613
			c1.452-1.029,3.336-1.411,4.53-2.757C202.062,270.667,201.875,269.926,201.293,269.975L201.293,269.975z"/>
	</g>
</g>
<g>
	<g>
		<path d="M209.989,276.117c4.089,2.722,9.575,2.927,14.305,3.187c5.919,0.325,3.509,9.129,1.552,11.618
			c-1.977,2.513-5.652,2.691-8.552,2.745c-1.576,0.029-1.996,2.457-0.38,2.809c0.348,0.631,0.694,1.262,1.042,1.893
			c-1.573,0.387-3.172,0.617-4.795,0.69c-1.724,0.141-3.446,0.194-5.169,0.361c0.432,0.566,0.863,1.133,1.294,1.699
			c0.797-3.811-1.209-4.622-4.645-4.33c-1.479,0.126-2.776,0.483-4.233-0.161c-1.229-0.545-2.074-1.842-3.166-2.598
			c-2.079-1.441-3.854-1.513-6.234-0.794c0.44,0.758,0.882,1.515,1.322,2.271c0.081-0.09,0.162-0.18,0.243-0.269
			c0.543-0.599,0.478-1.319,0-1.924c-1.027-1.302-3.471-1.864-5.049-1.614c-3.61,0.571-3.575,3.635-7.503,3.07
			c-0.902-0.13-1.569,1.048-0.659,1.564c1.487,0.844,2.889,1.601,4.604,1.008c1.95-0.674,4.058-5.375,6.685-2.104
			c0-0.642,0-1.283,0-1.924c-0.081,0.09-0.161,0.181-0.242,0.271c-0.86,0.966-0.048,2.697,1.322,2.271
			c4.238-1.32,5.629,3.007,9.344,3.564c1.604,0.241,6.207-1.808,5.624,0.984c-0.163,0.779,0.373,1.788,1.294,1.699
			c4.308-0.419,10.037,0.056,13.479-2.957c2.699-2.362-2.105-5.063-3.797-5.431c-0.126,0.937-0.253,1.872-0.38,2.809
			c8.4-0.155,13.376-4.312,13.38-12.93c0.001-2.365-0.986-6.087-3.865-6.498c-5.454-0.779-11.055-0.325-16.354-2.083
			C209.775,274.79,209.443,275.754,209.989,276.117L209.989,276.117z"/>
	</g>
</g>
<g>
	<g>
		<path d="M243.53,283.959c-3.585-5.67-4.676-12.792-9.638-17.532c-5.446-5.202-16.494-5.844-23.599-6.025
			c-0.68-0.018-0.966,0.973-0.351,1.296c7.424,3.896,16.519,1.26,23.293,7.206c4.548,3.99,5.945,10.796,9.864,15.387
			C243.303,284.528,243.694,284.219,243.53,283.959L243.53,283.959z"/>
	</g>
</g>
<g>
	<g>
		<path d="M181.865,294.763c-0.05-0.068-0.099-0.137-0.148-0.205c-0.478-0.662-1.781-0.755-1.953,0.255
			c-1.436,8.436,5.08,12.208,12.32,9.953c2.358-0.734,3.167-0.441,4.576,1.432c0.692,0.92,1.989,1.742,3.134,1.896
			c4.627,0.62,10.465-0.57,12.597-5.147c0.229-0.493-0.152-1.242-0.78-1.015c-3.646,1.321-7.946,4.999-12.046,2.861
			c-1.975-1.03-1.368-4.106-4.169-3.93c-1.872,0.119-4.05,0.642-5.775,1.378c-2.202,0.94-4.909-0.046-6.192-1.979
			c-0.107-0.162-1.842-4.444-1.563-4.83C181.99,295.257,181.99,294.937,181.865,294.763L181.865,294.763z"/>
	</g>
</g>
<g>
	<g>
		<path d="M222.357,301.352c1.603,2.126,5.617,1.975,8.001,1.639c4.746-0.669,10.823-3.601,13.326-7.873
			c0.428-0.73-0.287-1.844-1.165-1.515c-3.109,1.165-5.724,3.584-8.686,5.12c-2.582,1.338-7.89,2.414-10.905,1.887
			C222.548,300.543,222.058,300.956,222.357,301.352L222.357,301.352z"/>
	</g>
</g>
<g>
	<g>
		<path d="M270.257,261.966c-3.721-6.196-9.724-8.891-16.828-8.219c-6.949,0.657-16.175,4.558-20.994,9.657
			c-0.345,0.366-0.006,0.985,0.494,0.849c5.977-1.631,11.124-5.583,17.153-7.33c7.692-2.23,13.742,0.099,18.727,6.16
			C269.486,263.904,270.785,262.846,270.257,261.966L270.257,261.966z"/>
	</g>
</g>
<g>
	<g>
		<path d="M363.191,184.833c1.572,8.291-3.031,14.208-10.003,18.07c-4.802,2.661-8.843,6.385-13.113,9.803
			c-4.291,3.435-8.928,7.376-12.19,11.834c-1.647,2.253-2.731,4.488-4.752,6.475c-1.143,1.123-1.397,2.519-1.549,4.03
			c-0.11,1.105,1.493,1.171,1.824,0.247c0.93-2.591,3.781-4.069,5.123-6.47c1.844-3.299,4.722-5.96,7.386-8.606
			c4.794-4.766,10.374-9.338,15.897-13.23c4.792-3.378,9.095-5.153,12.31-10.327c2.347-3.776,3.076-8.652,0.885-12.591
			C364.432,183.032,362.99,183.77,363.191,184.833L363.191,184.833z"/>
	</g>
</g>
<g>
	<g>
		<path d="M308.369,193.631c-4.669,0.036-5.723,6.432-7.733,9.804c-3.844,6.448-8.296,12.638-11.386,19.502
			c-0.739,1.643,1.084,3.149,2.497,1.927c5.774-4.993,9.152-12.593,16.798-15.402c-0.625-0.254-1.25-0.509-1.875-0.763
			c0.943,1.819,2.418,3.158,3.595,4.858c0.33,0.475,0.744,0.87,1.241,1.187c1.98,1.711,0.839,2.42,1.859,4.059
			c2.788,4.479,3.525,9.915,6.623,14.187c0.716,0.987,2.301,0.42,2.006-0.846c-1.103-4.715-2.533-9.432-4.779-13.735
			c-0.859-1.646-1.212-3.743-2.505-5.161c-1.695-1.858-3.992-3.966-5.173-6.224c-0.321-0.614-1.209-1.011-1.875-0.764
			c-3.235,1.201-5.562,2.88-8.027,5.272c-1.72,1.67-3.554,3.094-5.126,4.932c-1.725,2.017-3.057,4.332-5.01,6.152
			c0.886,0.516,1.771,1.031,2.657,1.547c2.113-5.199,5.255-9.997,8.068-14.831c1.138-1.954,2.36-3.853,3.483-5.812
			c1.212-2.114,2.355-7.155,4.915-8.01C309.626,195.176,309.485,193.623,308.369,193.631L308.369,193.631z"/>
	</g>
</g>
<g>
	<g>
		<path d="M354.411,205.449c1.306,5.383,4.656,9.816,6.276,15.089c0.981,3.196,1.553,8.419,4.446,10.507
			c0.595,0.429,1.593,0.258,2.07-0.267c2.326-2.556,1.354-5.881,2.129-9.063c1.39-5.707,1.444-11.632,2.64-17.408
			c0.728-3.518,5.18-14.584-3.174-11.63c-1.035,0.366-0.798,1.729,0.249,1.842c2.646,0.288,0.245,5.934-0.075,7.261
			c-0.727,3.006-1.449,6.05-1.77,9.132c-0.345,3.313-0.438,6.627-1.211,9.882c-0.376,1.58-0.165,6.414-1.204,7.567
			c0.69-0.089,1.38-0.178,2.07-0.267c-1.048-0.716-0.678-2.415-1.339-3.353c-1.377-1.953-1.629-4.623-2.618-6.769
			c-2.041-4.428-5.07-8.404-6.682-13.023C355.824,203.817,354.123,204.264,354.411,205.449L354.411,205.449z"/>
	</g>
</g>
<g>
	<g>
		<path d="M311.308,165.829c0.008-0.083,0.017-0.166,0.025-0.248c-0.66,0.379-1.32,0.757-1.98,1.136
			c0.901,0.688,2.178,0.636,2.993-0.18c0.879-0.878,0.879-2.345,0-3.224c-0.878-0.878-2.345-0.878-3.223,0
			c-0.426,0.426-0.668,1.01-0.668,1.612c0,0.502,0.249,0.896,0.384,1.237C309.366,167.501,311.164,167.273,311.308,165.829
			L311.308,165.829z"/>
	</g>
</g>
<g>
	<g>
		<path d="M332.694,167.097c2.577,0,2.577-3.996,0-3.996S330.116,167.097,332.694,167.097L332.694,167.097z"/>
	</g>
</g>
<g>
	<g>
		<path d="M307.97,134.93c0.06-3.849,3.362-6.821,5.519-9.708c1.206-1.616,2.414-3.208,3.776-4.698
			c2.698-2.948,4.285-0.644,4.444,2.545c0.186,3.719,1.297,7.598,2.752,11.011c1.288,3.024,4.882,4.103,7.721,4.936
			c3.851,1.13,9.121,0.472,12.655-1.279c2.66-1.318,5.292-2.211,8.068-3.189c0.956-0.337,2.443-1.276,2.896-2.235
			c1.442-3.062,0.962-5.712-1.311-8.352c-3.977-4.619-7.336-10.288-10.886-15.269c-0.292-0.41-0.917-0.06-0.68,0.397
			c2.418,4.667,4.956,9.243,7.663,13.748c1.377,2.291,6.291,7.151,0.373,9.245c-2.095,0.741-3.841,1.213-5.922,2.248
			c-4.93,2.45-14.775,4.059-18.596-1.408c-2.54-3.636-2.562-9.084-3.2-13.321c-0.834-5.535-5.947-1.682-7.943,0.577
			c-3.277,3.707-8.754,9.597-8.662,14.753C306.654,135.788,307.956,135.789,307.97,134.93L307.97,134.93z"/>
	</g>
</g>
<g>
	<g>
		<path d="M308.13,123.406c-4.421,0.129,0.278-6.692,1.1-7.576c1.149-1.234,2.476-2.745,3.836-3.725
			c3.051-2.198,5.476-5.067,9.082-6.426c7.077-2.667,10.505,7.592,17.296,5.561c0.687-0.206,0.652-1.137,0-1.356
			c-4.921-1.657-8.26-6.178-13.374-7.177c-4.958-0.968-9.134,2.666-12.581,5.636c-3.546,3.056-8.183,6.369-9.305,11.191
			c-0.845,3.629,1.261,4.607,3.972,4.056C308.26,123.569,308.235,123.403,308.13,123.406L308.13,123.406z"/>
	</g>
</g>
<g>
	<g>
		<path d="M353.386,122.05c0.108,1.159-1.875-1.562-0.231,0.751c0.631,0.887,1.479,1.597,2.295,2.303
			c2.285,1.979,5.412,2.432,8.233,3.218c10.087,2.81,0.124,16.409,2.324,22.77c0.284,0.823,1.593,0.964,1.809,0
			c1.493-6.662,4.929-14.099,2.597-20.973c-0.904-2.668-3.554-3.645-6.01-4.409c-4.002-1.245-7.899-1.534-10.888-4.891
			c-0.835-0.938-1.587,1.205-0.438,1.057c-0.026,0.075-0.053,0.151-0.079,0.226C353.039,122.319,353.406,122.271,353.386,122.05
			L353.386,122.05z"/>
	</g>
</g>
<g>
	<g>
		<path d="M360.563,154.484c1.378-2.796,7.755-3.364,10.538-3.767c-0.534-0.407-1.068-0.814-1.603-1.221
			c-0.145,4.664-10.119,12.898-4.157,17.446c7.11,5.424-3.311,10.556-7.432,6.387c-0.573-0.581-1.716-0.176-1.665,0.69
			c0.365,6.256,11.196,3.791,13.639,0.129c1.67-2.502,1.369-6.406-1.188-8.293c-5.63-4.155,3.338-11.074,3.334-16.36
			c0-0.881-0.803-1.362-1.603-1.221c-2.427,0.43-11.706,2.137-10.824,6.083C359.699,154.789,360.364,154.889,360.563,154.484
			L360.563,154.484z"/>
	</g>
</g>
<g>
	<g>
		<path d="M360.996,160.981c0.091-0.001,0.501,0.406,0.792,0.418c0-0.634,0-1.268,0-1.901c-0.796-0.034-1.583-0.038-2.378,0.052
			c-1.777,0.201-1.445,2.689,0.327,2.42c0.574-0.087,1.355-0.148,1.688,0.42c0.306,0.524-0.598,1.585-0.841,1.947
			c-1.046,1.556,1.491,3.037,2.509,1.467c0.897-1.384,1.181-3.127,0.386-4.615c-0.752-1.407-2.632-1.756-4.068-1.64
			c0.109,0.807,0.219,1.613,0.327,2.42c0.79-0.133,1.546-0.354,2.304-0.604c1.158-0.383,0.662-2.219-0.506-1.833
			c-0.177,0.059-0.323,0.122-0.458,0.256c-0.041,0.041-0.184,0.361-0.193,0.364C360.425,160.277,360.517,160.987,360.996,160.981
			L360.996,160.981z"/>
	</g>
</g>
<g>
	<g>
		<path d="M305.4,186.206c0.621,11.22,9.962,21.074,21.596,19.392c7.768-1.124,14.182-4.846,20.888-8.66
			c4.924-2.8,9.304-6.266,10.321-12.135c0.096-0.554-0.663-0.966-0.96-0.405c-2.466,4.656-6.413,7.366-10.872,9.955
			c-4.9,2.845-9.749,5.641-15.171,7.392c-13.157,4.25-20.965-3.965-24.254-15.749C306.713,185.156,305.35,185.301,305.4,186.206
			L305.4,186.206z"/>
	</g>
</g>
<g>
	<g>
		<path d="M304.145,129.027c0.123-0.104,0.245-0.209,0.368-0.313c0.713-0.606-0.242-1.854-1.003-1.3
			c-2.259,1.645-1.631,4.766-1.491,7.237c0.178,3.124-1.322,6.167-1.209,9.35c0.127,3.567,0.229,7.134,0.353,10.701
			c0.423,12.156-0.297,23.786,5.922,34.637c0.333,0.58,1.271,0.191,1.08-0.456c-1.586-5.366-3.363-10.036-4.045-15.673
			c-0.666-5.519-0.442-11.189-0.631-16.743c-0.188-5.533-1.154-11.683-0.032-17.118c0.445-2.158,0.764-4.031,0.624-6.242
			c-0.033-0.539,0.732-3.666-0.118-4.056C304.029,129.081,304.088,129.075,304.145,129.027L304.145,129.027z"/>
	</g>
</g>
<g>
	<g>
		<path d="M317.595,176.675c-2.701,1.871,0.643,5.766,2.478,6.819c2.87,1.647,7.097,0.805,8.824-2.053
			c0.256-0.422-0.067-1.068-0.591-1.03c-2.065,0.147-3.902,1.254-6.027,0.934c-2.604-0.392-3.063-2.532-4.007-4.492
			C318.161,176.622,317.804,176.53,317.595,176.675L317.595,176.675z"/>
	</g>
</g>
<g>
	<g>
		<path d="M359.278,176.39c-1.209,0.684-1.472,3.122-1.723,4.354c-0.448,2.195-0.915,4.398-1.088,6.635
			c-0.046,0.598,0.849,0.818,1.119,0.303c0.813-1.55,1.323-3.226,1.694-4.931c0.207-0.95,0.326-1.91,0.616-2.838
			c0.285-0.915,0.143-1.852,0.392-2.745C360.452,176.578,359.799,176.095,359.278,176.39L359.278,176.39z"/>
	</g>
</g>
<g>
	<g>
		<path d="M346.602,110.85c5.129,5.042,15.877,0.404,22.327,1.595c4.064,0.75,5.031,14.005,5.098,16.75
			c0.182,7.51-4.442,12.477-7.476,18.752c-0.414,0.855,0.587,1.657,1.311,1.012c10.184-9.076,10.203-22.591,6.071-34.643
			c-3.378-9.855-19.912-1.566-27.003-4.03C346.603,110.172,346.369,110.622,346.602,110.85L346.602,110.85z"/>
	</g>
</g>
<g>
	<g>
		<path d="M323.278,191.154c0.072,0,0.072-0.112,0-0.112S323.205,191.154,323.278,191.154L323.278,191.154z"/>
	</g>
</g>
<g>
	<g>
		<path d="M302.205,199.364c-4.302,3.097-9.438,4.956-13.603,8.259c-5.067,4.021-9.61,8.571-14.088,13.229
			c-7.187,7.475-13.879,15.604-15.165,26.245c-0.111,0.917,1.262,0.99,1.529,0.207c1.583-4.643,3.131-9.15,5.685-13.367
			c2.885-4.764,6.909-8.809,10.696-12.848c4.351-4.64,8.843-9.123,13.884-13.018c3.813-2.946,7.836-4.934,11.334-8.354
			C302.656,199.543,302.416,199.212,302.205,199.364L302.205,199.364z"/>
	</g>
</g>
<g>
	<g>
		<path d="M308.333,153.857c1.794-0.105,3.213-1.108,5.103-1.026c2.057,0.089,3.658,0.718,5.125,2.168
			c0.268,0.265,0.793,0.001,0.658-0.383c-0.645-1.839-1.979-2.934-3.866-3.3c-1.049-0.203-2.255-0.192-3.303,0.016
			c-1.495,0.296-2.401,1.461-3.807,1.861C307.885,153.296,307.945,153.88,308.333,153.857L308.333,153.857z"/>
	</g>
</g>
<g>
	<g>
		<path d="M331.445,156.406c5.62-1.333,9.329,2.847,13.931,4.836c0.873,0.377,1.73-0.395,1.297-1.296
			c-2.388-4.962-10.894-7.422-15.825-5.711C329.484,154.708,330.022,156.744,331.445,156.406L331.445,156.406z"/>
	</g>
</g>
<g>
	<g>
		<path d="M318.127,189.351c4.619,3.702,12.867,3.285,17.064-0.868c0.363-0.359,0.12-1.128-0.444-1.073
			c-3.338,0.327-6.569,1.334-9.905,1.599c-2.245,0.178-4.511-1.468-6.598-0.571C317.919,188.577,317.855,189.132,318.127,189.351
			L318.127,189.351z"/>
	</g>
</g>
<g>
	<g>
		<path d="M337.738,186.758c-0.437-1.802-2.512-1.081-2.589,0.552c-0.035,0.747,0.229,1.44,0.255,2.171
			c0.037,0.982,0.028,2.309,0.619,3.117c0.587,0.803,1.676,0.868,2.252,0c0.764-1.151,0.121-2.415,0.025-3.659
			c-0.044-0.561-0.376-0.995-0.548-1.516c-0.069-0.209,0.019-0.609-0.086-0.277c0.079-0.25,0.044-0.565-0.044-0.811
			c-0.077,0.292-0.154,0.585-0.231,0.877c0.069-0.039,0.14-0.077,0.209-0.115C337.718,187.025,337.77,186.891,337.738,186.758
			L337.738,186.758z"/>
	</g>
</g>
<g>
	<g>
		<path d="M247.054,297.651c-0.105,0.341-0.211,0.682-0.316,1.022c-0.207,0.432-0.076,1.148,0.501,1.23
			c6.416,0.915,11.857-2.566,17.502-5.094c3.57-1.599,6.979-4.13,10.467-5.971c2.86-1.51,5.787-2.938,7.891-5.439
			c0.306-0.363-0.076-0.927-0.521-0.675c-5.204,2.95-10.852,5.112-16.068,8.094c-1.893,1.082-18.041,9.941-18.641,6.832
			C247.79,297.247,247.132,297.247,247.054,297.651L247.054,297.651z"/>
	</g>
</g>
<g>
	<g>
		<path d="M289.183,243.02c-0.844,2.648-2.671,4.753-3.447,7.523c-0.88,3.14-1.156,6.438-1.997,9.597
			c-1.948,7.326-2.583,15.348-3.577,22.859c-1.305,9.851-4.349,25.996,6.381,31.863c0.492,0.27,1.02-0.38,0.605-0.785
			c-9.224-9.016-5.486-25.049-3.937-36.356c0.846-6.171,1.561-12.525,3.02-18.582c0.638-2.647,0.874-5.403,1.377-8.08
			c0.509-2.704,1.743-5.157,2.132-7.885C289.791,242.813,289.299,242.655,289.183,243.02L289.183,243.02z"/>
	</g>
</g>
<g>
	<g>
		<path d="M279.627,315.598c-0.119-0.103-0.238-0.206-0.357-0.309c-0.665-0.575-1.492,0.281-0.951,0.949
			c8.063,9.961,13.834,20.255,27.604,22.168c11.605,1.612,24.458-2.574,34.597-7.975c0.78-0.416,0.241-1.656-0.597-1.414
			c-10.653,3.083-20.896,7.266-32.213,6.708c-6.587-0.323-12.346-3.223-16.987-7.793c-1.029-1.014-10.379-12.623-11.095-12.003
			C279.719,315.85,279.719,315.678,279.627,315.598L279.627,315.598z"/>
	</g>
</g>
<g>
	<g>
		<path d="M116.419,201.764c0.181,1.434,0.071,1.127,0.979,2.427c1.798,2.574,2.2,5.336,2.41,8.413
			c0.165,2.408,0.667,4.699,0.151,7.12c-0.518,2.427-1.406,4.746-1.903,7.17c-0.137,0.669,0.768,1.406,1.28,0.744
			c3.002-3.881,3.503-8.816,2.973-13.541c-0.298-2.656-0.451-4.96-1.352-7.49c-0.822-2.31-2.464-3.277-3.897-5.108
			C116.865,201.251,116.38,201.449,116.419,201.764L116.419,201.764z"/>
	</g>
</g>
<g>
	<g>
		<path d="M120.601,231.427c1.553,0.735,2.266,2.74,3.313,4.06c1.287,1.619,2.717,3.07,3.932,4.76c1.655,2.301,3.3,5.24,6.083,6.241
			c0.649,0.233,1.144-0.564,0.847-1.103c-1.546-2.794-4.209-5.361-6.234-7.854c-1.214-1.494-2.719-2.736-4.049-4.121
			c-1.177-1.227-1.766-2.434-3.597-2.683C120.507,230.675,120.171,231.224,120.601,231.427L120.601,231.427z"/>
	</g>
</g>
<g>
	<g>
		<path d="M155.13,206.431c-0.053-0.526-0.075-0.51-0.389-1.025c-0.479-0.787-1.643-0.096-1.227,0.717
			c3.121,6.096,7.868,10.519,10.173,17.198c1.29,3.74,2.543,7.611,2.972,11.548c0.353,3.245,0.346,6.512,0.798,9.747
			c0.094,0.667,1.249,0.668,1.342,0c0.981-7.106-0.125-13.407-2.297-20.161c-1.145-3.561-2.421-6.847-4.501-9.947
			c-2.173-3.24-5.153-5.811-7.26-9.102c-0.204,0.356-0.409,0.713-0.613,1.068c0.114,0.016,0.229,0.031,0.342,0.046
			C154.601,206.839,155.171,206.841,155.13,206.431L155.13,206.431z"/>
	</g>
</g>
<g>
	<g>
		<path d="M121.009,232.306c-0.383,1.277-0.746,2.558-1.14,3.832c-0.679,2.198-2.564,3.658-4.229,5.087
			c-2.774,2.382-6.093,4.116-8.688,6.698c-0.474,0.472,0.005,1.49,0.699,1.201c3.514-1.467,6.588-3.967,9.484-6.403
			c1.425-1.198,2.73-2.465,3.664-4.081c0.941-1.63,0.841-4.297,1.113-6.084C122.002,231.972,121.187,231.713,121.009,232.306
			L121.009,232.306z"/>
	</g>
</g>
<g>
	<g>
		<path d="M93.548,250.103c1.421,2.371,3.21,4.503,4.246,7.086c0.892,2.223,1.435,4.685,3.109,6.466
			c0.601,0.64,1.415-0.056,1.319-0.768c-0.646-4.785-3.723-10.907-7.755-13.703C93.9,248.79,93.216,249.549,93.548,250.103
			L93.548,250.103z"/>
	</g>
</g>
<g>
	<g>
		<path d="M134.632,242.352c5.863,0.909,8.476,7.886,13.129,10.706c0.543,0.329,1.246-0.211,1.067-0.82
			c-0.801-2.732-3.691-4.914-5.773-6.687c-2.477-2.108-4.858-4.305-8.261-4.396C134.119,241.136,133.945,242.244,134.632,242.352
			L134.632,242.352z"/>
	</g>
</g>
<g>
	<g>
		<path d="M131.164,216.257c-0.478,1.031-1.462,1.636-2.01,2.639c-0.583,1.066-1.288,2.196-1.494,3.406
			c-0.076,0.446,0.448,0.853,0.81,0.472c0.85-0.895,1.313-2.102,1.831-3.208c0.475-1.015,1.65-1.929,1.503-3.135
			C131.769,216.134,131.325,215.909,131.164,216.257L131.164,216.257z"/>
	</g>
</g>
<g>
	<g>
		<path d="M27.25,282.431c-0.208,5.22,1.219,9.514,2.423,14.604c1.823,7.716,2.192,15.812,1.998,23.714
			c-0.175,7.151-1.666,14.462-2.735,21.532c-0.5,3.311-1.145,6.584-2.012,9.817c-0.57,2.127,0.625,5.016-0.942,6.853
			c-0.963,1.13,0.494,2.588,1.624,1.625c1.24-1.058,1.351-2.122,1.588-3.78c0.505-3.529,0.931-7.012,1.56-10.539
			c1.202-6.738,1.952-13.616,2.727-20.414c0.827-7.256,0.327-14.645-0.667-21.856c-1.009-7.32-4.85-14.216-5.141-21.556
			C27.661,282.159,27.261,282.159,27.25,282.431L27.25,282.431z"/>
	</g>
</g>
<g>
	<g>
		<path d="M77.899,302.564c0.918,2.136,0.131,4.741,0.01,7.001c-0.154,2.876-0.362,5.748-0.572,8.621
			c-0.418,5.701-0.341,11.416-0.711,17.12c-0.412,6.339-1.399,12.625-2.825,18.811c-1.429,6.2-4.391,11.948-5.79,18.098
			c-0.215,0.944,0.947,1.345,1.485,0.626c3.766-5.029,5.32-12.039,6.786-18.04c1.559-6.384,2.359-12.946,2.784-19.494
			c0.442-6.81,0.324-13.68,0.542-20.502c0.114-3.554,1.22-9.6-1.292-12.562C78.103,301.992,77.79,302.312,77.899,302.564
			L77.899,302.564z"/>
	</g>
</g>
<g>
	<g>
		<path d="M123.555,308.589c4.287,18.224,36.775,13.053,45.47,1.699c0.622-0.812-0.609-2.041-1.422-1.422
			c-6.31,4.816-12.548,7.932-20.541,8.858c-8.21,0.951-19.173-0.54-22.362-9.452C124.445,307.558,123.379,307.836,123.555,308.589
			L123.555,308.589z"/>
	</g>
</g>
<g>
	<g>
		<path d="M116.253,317.638c1.364,1.063,1.696,4.006,2.177,5.562c1.063,3.434,1.438,7.03,1.699,10.599
			c0.399,5.464-0.024,10.95,0.063,16.419c0.122,7.652,4.502,16.421,13.27,16.273c0.666-0.011,1.067-1.052,0.367-1.354
			c-5.018-2.164-9.175-4.959-10.653-10.576c-1.418-5.392-0.471-11.716-0.596-17.244c-0.113-5-0.787-9.855-2.195-14.656
			c-0.565-1.929-1.269-5.162-3.203-6.225C116.448,316.032,115.545,317.087,116.253,317.638L116.253,317.638z"/>
	</g>
</g>
<g>
	<g>
		<path d="M160.044,321.097c-0.72,8.256-1.487,16.305-1.753,24.611c-0.259,8.076-0.663,16.041,3.99,23.022
			c0.353,0.528,1.354,0.196,1.085-0.458c-5.999-14.56-2.156-31.945-1.822-47.176C161.566,320.116,160.127,320.148,160.044,321.097
			L160.044,321.097z"/>
	</g>
</g>
<g>
	<g>
		<path d="M361.789,258.431c0.085-1.076-1.273,0.202-1.293,0.858c-0.039,1.344,0.003,2.603,0.166,3.937
			c0.418,3.433,0.814,6.849,1.141,10.296c0.752,7.938,1.215,15.828,1.593,23.791c0.768,16.181,0.94,32.261,0.875,48.451
			c-0.002,0.578,0.919,0.731,1.028,0.139c2.717-14.7,1.578-30.029,0.852-44.864c-0.391-7.979-0.66-15.936-1.497-23.881
			c-0.646-6.138-0.421-13.754-2.825-19.495c-0.151-0.36-0.785-0.366-0.748,0.102c0.018,0.223,0.035,0.444,0.053,0.667
			C361.166,258.854,361.756,258.854,361.789,258.431L361.789,258.431z"/>
	</g>
</g>
<g>
	<g>
		<path d="M378.17,205.613c-0.19-0.099-0.38-0.196-0.57-0.294c0.329-1.295-1.868-1.399-1.611,0c0.679,3.702,2.186,7.111,2.785,10.85
			c0.587,3.661,1.278,7.184,2.828,10.569c0.248,0.541,1.195,0.285,1.136-0.308c-0.754-7.554-2.349-14.523-5.138-21.557
			c-0.269,0.354-0.537,0.706-0.806,1.059c0.443,0.058,0.889,0.054,1.334-0.013C378.299,205.911,378.348,205.655,378.17,205.613
			L378.17,205.613z"/>
	</g>
</g>
<g>
	<g>
		<path d="M285.69,326.841c-1.947,2.919-1.711,5.334-1.778,8.84c-0.1,5.17-0.243,10.33,0.051,15.496
			c0.489,8.629,1.397,17.921,5.613,25.577c0.351,0.639,1.376,0.203,1.171-0.493c-2.242-7.611-3.508-15.472-4.424-23.36
			c-0.461-3.977-0.493-7.973-0.545-11.97c-0.056-4.363-1.038-9.518,0.789-13.578C286.832,326.762,286.059,326.287,285.69,326.841
			L285.69,326.841z"/>
	</g>
</g>
<g>
	<g>
		<path d="M304.836,351.764c0.175,3.431,2.23,6.878,4.395,9.487c2.418,2.916,4.924,5.063,8.761,5.677
			c0.551,0.088,0.934-0.628,0.397-0.942c-5.314-3.115-10.511-8.328-12.325-14.388C305.866,350.938,304.799,351.04,304.836,351.764
			L304.836,351.764z"/>
	</g>
</g>
<g>
	<g>
		<path d="M319.987,364.348c-0.338,0.479-0.794,0.734-1.371,0.769c-0.215,0.057-0.422,0.246-0.469,0.469
			c-0.785,3.7-0.072,7.759,1.448,11.157c0.25,0.558,1.198,0.283,1.15-0.312c-0.207-2.597-0.972-5.075-1.066-7.693
			c-0.032-0.872-0.047-1.745-0.139-2.614c-0.041-0.392,0.568-1.162,0.746-1.648C320.35,364.301,320.061,364.178,319.987,364.348
			L319.987,364.348z"/>
	</g>
</g>
</svg>
