<?xml version="1.0" encoding="utf-8"?>
<!-- Generator: Adobe Illustrator 14.0.0, SVG Export Plug-In . SVG Version: 6.00 Build 43363)  -->
<!DOCTYPE svg PUBLIC "-//W3C//DTD SVG 1.1//EN" "http://www.w3.org/Graphics/SVG/1.1/DTD/svg11.dtd">
<svg version="1.1" id="Layer_1" xmlns="http://www.w3.org/2000/svg" xmlns:xlink="http://www.w3.org/1999/xlink" x="0px" y="0px"
	 width="400px" height="400px" viewBox="0 0 400 400" enable-background="new 0 0 400 400" xml:space="preserve">
<rect fill="none" stroke="#000000" stroke-width="3.7403" width="400" height="400"/>
<g>
	<g>
		<path d="M166.025,280.445c-2.864-1.186-3.869-5.045-4.65-7.672c-1.056-3.549-2.17-6.52-2.267-10.326
			c-0.18-7.092-2.027-14.475-2.695-21.586c-1.428-15.203-1.265-30.426,2.584-45.269c1.882-7.256,5.235-13.769,8.301-20.551
			c2.547-5.637,5.469-11.086,8.968-16.191c4.123-6.016,9.572-11.51,16.514-14.054c7.096-2.6,15.362-2.665,22.813-2.241
			c9.061,0.515,14.97,5.978,20.851,12.228c5.145,5.466,9.956,11.354,14.436,17.373c8.206,11.026,10.526,25.007,10.518,38.431
			c-0.009,13.443-2.428,26.867-4.827,40.049c-1.242,6.824-2.784,13.604-5.269,20.092c-2.266,5.918-4.411,11.723-2.189,17.975
			c0.337,0.947,1.161,1.416,2.148,1.221c5.708-1.129,11.291-3.027,17.179-2.713c2.162,0.115,2.075-3.086,0-3.307
			c-6.185-0.662-12.109,1.461-18.106,2.65c0.716,0.406,1.432,0.813,2.148,1.221c-2.539-7.129,1.585-13.9,3.769-20.564
			c2.411-7.359,3.63-15.152,4.903-22.77c2.128-12.734,3.979-25.535,3.58-38.484c-0.373-12.112-3.416-23.976-10.145-34.135
			c-3.558-5.372-8.044-10.344-12.288-15.175c-4.732-5.384-9.604-11.043-16.031-14.411c-5.35-2.804-11.816-2.903-17.688-2.724
			c-6.181,0.188-12.677,0.61-18.447,3.077c-11.245,4.807-18.371,16.218-23.686,26.693c-6.21,12.238-11.729,24.837-13.433,38.598
			c-1.866,15.074-0.545,30.475,1.341,45.477c0.771,6.146,0.741,13.506,3.534,19.152c2.005,4.055,3.019,8.154,7.593,9.906
			C166.727,282.891,167.215,280.936,166.025,280.445L166.025,280.445z"/>
	</g>
</g>
<g>
	<g>
		<path d="M215.008,141.099c13.471,0.933,28.585,0.875,40.544,7.913c12.857,7.567,22.237,23.538,23.422,38.177
			c1.262,15.594-1.305,32.124-3.312,47.553c-1.096,8.426-2.149,16.852-3.485,25.242c-1.26,7.91-2.421,15.934-1.547,23.92
			c0.163,1.49,2.106,1.463,2.295,0c2.271-17.627,4.608-35.268,6.795-52.92c1.156-9.336,1.892-18.666,2.45-28.053
			c0.444-7.447,0.733-14.829-0.568-22.208c-2.397-13.586-12.876-27.289-24.364-34.596c-12.019-7.645-28.604-7.496-42.229-6.605
			C213.991,139.589,213.994,141.028,215.008,141.099L215.008,141.099z"/>
	</g>
</g>
<g>
	<g>
		<path d="M205.439,162.486c-1.214,4.443-1.551,9.31-1.858,13.89c-0.401,5.983-1.366,11.621-2.59,17.488
			c-1.038,4.976-1.002,9.89-1.225,14.946c-0.241,5.467-1.074,11.363,0.196,16.736c0.202,0.854,1.496,0.838,1.707,0
			c2.648-10.551,0.603-21.938,2.745-32.61c0.983-4.898,1.97-9.651,2.038-14.665c0.07-5.139,0.945-10.749-0.244-15.786
			C206.116,162.096,205.541,162.114,205.439,162.486L205.439,162.486z"/>
	</g>
</g>
<g>
	<g>
		<path d="M177.441,187.612c7.943-0.854,17,0.745,24.818,1.981c7.91,1.251,16.442,2.064,24.436,2.089
			c1.007,0.003,1.434-1.427,0.521-1.921c-3.329-1.805-7.125-2.135-10.858-2.377c-5.665-0.367-11.127-0.699-16.774-1.517
			c-4.686-0.679-9.319-0.772-14.042-0.875c-3.221-0.07-5.957-0.224-8.285,2.172C177.109,187.314,177.202,187.638,177.441,187.612
			L177.441,187.612z"/>
	</g>
</g>
<g>
	<g>
		<path d="M152.623,269.182c2.56-4.303-7.827-4.848-9.815-4.879c-6.001-0.094-11.954-0.887-17.957-0.885
			c-5.22,0.002-11.174-1.053-16.264,0.061c-0.742,0.162-1.329,1.109-1.047,1.844c0.391,1.018-4.804,0.713-5.129,0.721
			c-1.685,0.033-3.673,0.34-5.27-0.336c-1.833-0.775-2.319-3.354-2.9-4.986c-0.104-0.293-0.602-0.27-0.573,0.076
			c0.495,6.072,2.799,7.785,8.743,7.959c3.298,0.096,10.14,1.305,8.02-4.23c-0.349,0.615-0.698,1.23-1.047,1.844
			c3.837-0.836,8.298,0.059,12.228,0.061c4.487,0.002,8.922,0.121,13.397,0.453c2.77,0.207,15.716-1.049,17.16,2.299
			C152.251,269.371,152.532,269.336,152.623,269.182L152.623,269.182z"/>
	</g>
</g>
<g>
	<g>
		<path d="M91.966,256.623c-1.573-1.137-2.746-1.51-4.685-1.602c-0.386-0.018-0.671,0.27-0.794,0.605
			c-0.621,1.693-2.995,7.104-0.313,8.359c1.373,0.643,0.713-0.23-0.672,0.266c-0.927,0.332-1.456,0.844-2.16,1.48
			c-0.36,0.324-0.626,0.893-0.683,1.385c-0.141,0.422-0.177,0.842-0.107,1.262c0.577,2.535-2.398,3.18-4.453,3.127
			c-3.058-0.08-6.212,0.531-8.945,1.879c-3.908,1.924-8.369,0.305-12.555,0.949c-10.54,1.621-20.61,5.266-31.155,6.879
			c-0.248,0.039-0.19,0.469,0.06,0.439c13.605-1.58,26.701-6.254,40.442-5.695c2.421,0.098,4.16-1.664,6.516-2.025
			c2.756-0.422,5.914-0.34,8.65-0.969c0.643-0.148,2.406-0.363,2.623-1.264c0.769-3.197,1.689-5.564,4.627-7.182
			c0.435-0.238,0.226-0.895-0.246-0.906c-3.784-0.082-2.013-4.119-1.122-5.648c1.168-2.002,2.275-0.84,3.949,0.406
			C91.987,259.146,93.016,257.383,91.966,256.623L91.966,256.623z"/>
	</g>
</g>
<g>
	<g>
		<path d="M321.731,279.777c0.074-0.285-0.006-0.299-0.24-0.037c1.468-1.119-1.126-2.633-1.37-0.787
			c-0.304,2.287-0.281,4.168-1.605,6.182c-0.931,1.414-2.087,2.74-2.715,4.332c-0.854,2.168,1.148,3.781,3.127,2.555
			c0.531-0.33,0.496-1.041,0-1.377c-0.958-0.65-0.482-0.463,0.076-1.486c0.642-1.174,1.438-2.27,2.128-3.418
			c1.336-2.223,1.143-4.275,0.81-6.787c-0.244-1.846-2.838-0.332-1.37,0.787c-0.234-0.262-0.314-0.248-0.24,0.037
			C320.387,280.68,321.676,280.68,321.731,279.777L321.731,279.777z"/>
	</g>
</g>
<g>
	<g>
		<path d="M327.704,287.191c-0.554,0.533-1.198,0.961-1.728,1.525c-0.685,0.727-1.072,1.617-1.105,2.615
			c-0.035,1.09,1.266,1.451,1.993,0.826c0.041-0.035,0.082-0.07,0.123-0.105c-0.15,0.088-0.3,0.176-0.45,0.262
			c0.109-0.02,0.216-0.053,0.317-0.096c0.073-0.031,0.146-0.063,0.22-0.094c0.244-0.182,0.248-0.191,0.011-0.029
			c0.319-0.074,0.586-0.18,0.879-0.326c0.33-0.166,0.33-0.709,0-0.873c-0.249-0.125-0.484-0.246-0.759-0.303
			c-0.436-0.092,0.487,0.309-0.131-0.055c-0.159-0.092-0.359-0.145-0.537-0.189c0.15,0.088,0.3,0.176,0.45,0.262
			c-0.041-0.035-0.082-0.068-0.123-0.104c0.114,0.273,0.229,0.549,0.343,0.824c0.046-1.115,1.455-1.781,2.175-2.463
			C330.494,287.814,328.806,286.127,327.704,287.191L327.704,287.191z"/>
	</g>
</g>
<g>
	<g>
		<path d="M328.727,297.109c0.051,1.07,0.484,2.055,1.561,2.424c0.852,0.293,2.32,0.008,2.711-0.891
			c-0.162,0.162-0.323,0.322-0.485,0.484c0.545-0.389,0.828-0.707,1.082-1.326c-0.093,0.156-0.185,0.314-0.276,0.473
			c0.476-0.537,1.162-1.383,0.863-2.162c-0.195-0.508-0.885-0.68-1.191-0.156c0.061-0.104-0.182,0.152-0.207,0.17
			c-0.246,0.17-0.498,0.326-0.767,0.463c0.181-0.049,0.361-0.1,0.542-0.148c-0.388,0.029-0.717,0.104-1.088,0.217
			c0.24,0,0.479,0,0.719,0c-0.329-0.109-0.625-0.076-0.957-0.004c-0.068,0.025-0.138,0.047-0.209,0.064
			c-0.34,0.098,0.321-0.008-0.006,0.002c0.238,0.047,0.281,0.051,0.129,0.014c0.14,0.037,0.262,0.104,0.366,0.201
			c0.095,0.086,0.16,0.189,0.196,0.311c-0.114-0.332-0.001,0.297-0.006-0.135C331.68,295.186,328.637,295.195,328.727,297.109
			L328.727,297.109z"/>
	</g>
</g>
<g>
	<g>
		<path d="M345.101,298.125c0.73-2.609,14.528,3,16.442,3.48c6.805,1.703,13.253,5.168,20.43,4.604
			c0.966-0.076,1.136-1.334,0.225-1.664c-6.978-2.529-14.247-4.926-21.491-6.551c-5.783-1.299-10.54-4.033-16.539-1.752
			c-0.479,0.182-0.739,0.59-0.628,1.105c0.042,0.264,0.1,0.523,0.173,0.777C343.904,298.813,344.908,298.813,345.101,298.125
			L345.101,298.125z"/>
	</g>
</g>
<g>
	<g>
		<path d="M306.25,290.441c-2.628-0.557-4.942-2.039-7.668-2.596c-2.619-0.535-5.78-1.832-8.441-1.848
			c-4.104-0.023-8.135-0.113-12.191-0.814c-2.528-0.436-3.761-1.021-6.324-0.182c-0.553,0.182-0.54,0.922,0,1.107
			c5.373,1.846,11.063,2.281,16.728,2.309c6.155,0.029,11.712,3.314,17.651,3.838C307.045,292.348,307.262,290.656,306.25,290.441
			L306.25,290.441z"/>
	</g>
</g>
<g>
	<g>
		<path d="M346.074,311.352c4.544,0.326,8.363-1.896,12.664,0.725c3.103,1.891,7.304,1.527,10.713,1.102
			c0.502-0.063,0.499-0.713,0-0.777c-2.356-0.311-4.688-0.59-6.98-1.223c-2.033-0.563-3.757-1.697-5.838-2.088
			c-3.59-0.676-6.83,2.305-10.559,1.834C345.806,310.889,345.797,311.332,346.074,311.352L346.074,311.352z"/>
	</g>
</g>
<g>
	<g>
		<path d="M285.969,265c-0.278-0.012-0.558-0.021-0.836-0.033c0.132,0.486,0.263,0.971,0.395,1.457
			c6.321-4.826,15.42-4.852,22.915-6.061c8.765-1.414,18.603-2.996,27.449-1.266c7.47,1.461,12.491,7.484,20.274,8.508
			c4.06,0.533,8.181-0.004,12.24,0.561c3.794,0.529,8.323,3.584,11.514,5.666c0.768,0.5,1.441-0.568,0.919-1.191
			c-5.225-6.242-12.024-7.385-19.736-7.35c-5.999,0.027-10.699-1.283-15.695-4.604c-3.287-2.184-6.718-3.844-10.693-4.33
			c-9.559-1.174-19.321,0.377-28.743,1.896c-5.382,0.869-10.162,1.111-15.325,3.125c-2.172,0.846-5.889,1.459-6.266,4.162
			c-0.066,0.477,0.194,1.01,0.753,0.988c0.278-0.01,0.558-0.021,0.836-0.031C286.935,266.461,286.935,265.037,285.969,265
			L285.969,265z"/>
	</g>
</g>
<g>
	<g>
		<path d="M246.237,297.934c0.037-0.232,0.073-0.467,0.11-0.701c0.063-0.307-0.134-0.576-0.451-0.592
			c-6.126-0.295-11.16,0.41-16.795,3.057c-1.112,0.523-2.035,1.572-1.965,2.822c0.083,1.471-0.057,1.023-1.492,1.229
			c-2.217,0.316-4.338,0.949-6.546,1.305c-0.367,0.059-0.266,0.625,0.085,0.631c3.089,0.037,6.08-0.391,9.182-0.188
			c0.556,0.035,0.917-0.467,0.96-0.961c0.291-3.324,2.813-3.09,5.52-4.303c0.912-0.408,10.582-3.482,10.711-2.299
			C245.604,298.371,246.189,298.371,246.237,297.934L246.237,297.934z"/>
	</g>
</g>
<g>
	<g>
		<path d="M171.699,290.766c1.112-4.074,1.573-9.002-3.686-9.803c-5.89-0.896-13.619,1.725-19.167,3.373
			c-2.546,0.756-5.079,1.74-7.12,3.469c-3.178,2.693-3.555,7.488-5.395,10.979c-2.765,5.244-9.754,3.988-14.591,4.385
			c-4.903,0.4-6.666,3.619-10.806,5.367c-1.392,0.588-2.887,2.205-3.974,3.18c-2.422,2.17-4.836,2.652-7.543,4.139
			c-3.049,1.674-5.952,2.584-9.415,2.867c-1.778,0.146-4.32,1.863-5.9,2.471c-4.97,1.912-10.47,2.648-15.572,4.234
			c-2.481,0.771-3.893,2.914-6.68,3.291c-2.905,0.393-5.855,1.348-8.731,1.953c-4.847,1.02-9.678,2.105-14.538,3.059
			c-3.712,0.729-7.618,1.715-10.52,4.268c-1.199,1.055-3.032,2.537-1.988,4.318c0.809,1.381,2.759,1.67,4.133,1.088
			c-0.352-0.604-0.705-1.205-1.057-1.807c-4.281,1.836-8.607,3.41-10.268,8.115c-0.32,0.906,0.99,1.346,1.476,0.621
			c2.413-3.596,5.617-5.355,9.599-6.824c0.782-0.289,1.127-1.467,0.25-1.912c-2.689-1.367,1.943-3.158,3.4-3.748
			c3.083-1.25,6.541-1.676,9.788-2.299c4.068-0.783,8.106-1.748,12.182-2.516c3.838-0.725,7.958-1.08,11.37-3.068
			c7.063-4.119,15.373-4.635,22.282-8.873c3.31-2.031,7.599-1.793,11.108-3.057c3.232-1.164,5.621-2.498,8.11-4.834
			c2.381-2.234,7.896-6.15,10.943-7.209c3.176-1.104,6.96-0.535,10.274-0.846c5.502-0.516,8.551-4.238,10.21-9.184
			c1.429-4.256,2.966-7.01,7.248-8.66c3.146-1.215,6.54-1.861,9.838-2.512c2.659-0.523,5.343-1.047,8.034-1.367
			c4.979-0.592,5.543,2.461,4.83,6.824C169.626,291.459,171.362,292,171.699,290.766L171.699,290.766z"/>
	</g>
</g>
<g>
	<g>
		<path d="M90.026,347.691c3.472-3.328,7.071-6.137,11.643-7.785c2.284-0.822,7.52-2.525,9.396-0.283
			c0.184,0.219,0.499,0.199,0.73,0.094c5.31-2.438,8.285-7.463,14.723-7.742c5.258-0.229,9.938,1.236,14.491-2.168
			c0.509-0.381,0.235-1.285-0.457-1.086c-5.598,1.623-12.317-0.354-17.586,1.924c-2.372,1.025-4.426,2.426-6.434,4.035
			c-1.461,1.172-3.57,4.625-5.413,3.055c-1.986-1.691-6.405-0.35-8.583,0.271c-5.38,1.531-9.178,5.346-12.991,9.203
			C89.235,347.521,89.709,347.994,90.026,347.691L90.026,347.691z"/>
	</g>
</g>
<g>
	<g>
		<path d="M219.87,305.896c0.269,0.031,0.528,0.096,0.78,0.193c0-0.484,0-0.971,0-1.457c-1.753,0.43-3.335,2-4.738,3.059
			c-2.306,1.738-4.98,2.945-7.67,3.941c-2.649,0.98-7.479,2.604-6.899,6.193c0.044,0.27,0.474,0.318,0.587,0.076
			c1.305-2.783,6.938-3.701,9.527-4.861c3.817-1.709,6.308-4.938,9.775-7.027c0.722-0.434,0.252-1.643-0.582-1.381
			c-0.252,0.098-0.512,0.162-0.78,0.195C219.339,304.924,219.339,305.799,219.87,305.896L219.87,305.896z"/>
	</g>
</g>
<g>
	<g>
		<path d="M200.679,318.428c-5.227,5.984-13.081,7.996-20.733,7.604c-4.867-0.25-10.767-1.143-15.214,1.293
			c-0.393,0.215-0.105,0.74,0.285,0.676c6.36-1.051,13.036,0.424,19.435-0.783c5.985-1.129,12.444-3.83,16.503-8.514
			C201.117,318.514,200.845,318.238,200.679,318.428L200.679,318.428z"/>
	</g>
</g>
<g>
	<g>
		<path d="M156.817,334.063c-2.117,1.529-4.257,2.982-6.511,4.303c-1.623,0.949-3.798,1.236-5.246,2.465
			c-1.366,1.158-1.408,1.135-1.18,2.906c0.198,1.533-2.657,1.92-3.89,2.469c-4.93,2.195-9.6,4.77-14.625,6.777
			c-3.382,1.352-5.984,3.883-6.073,7.672c-0.011,0.465,0.608,0.734,0.93,0.385c1.547-1.682,2.437-3.785,4.388-5.137
			c2.213-1.535,5.361-2.242,7.831-3.424c3.808-1.824,7.295-4.195,11.202-5.793c2.933-1.201,0.831-2.516,2.914-3.916
			c1.337-0.898,3.521-1.494,4.975-2.309c2.271-1.271,4.376-2.836,6.463-4.383C159.187,335.197,158.045,333.176,156.817,334.063
			L156.817,334.063z"/>
	</g>
</g>
<g>
	<g>
		<path d="M223.826,298.063c1.264-3.221,0.645-7.055,0.446-10.443c-0.198-3.379,0.191-7.342-1.057-10.508
			c-0.266-0.674-1.129-0.691-1.389,0c-1.202,3.203-0.419,7.148-0.221,10.508c0.202,3.4-0.025,7.264,1.282,10.443
			C223.075,298.518,223.644,298.529,223.826,298.063L223.826,298.063z"/>
	</g>
</g>
<g>
	<g>
		<path d="M223.635,289.844c0.837-1.93,2.229-2.805,2.873-4.936c0.614-2.035,1.465-3.414,2.689-5.082
			c0.558-0.76,4.955-6.049,5.967-3.592c0.565,1.375-0.769,3.523-1.365,4.66c-1.683,3.211-4.071,6.098-6.331,8.906
			c-1.104,1.373-2.892,2.953-2.987,4.832c-0.017,0.324,0.367,0.662,0.689,0.525c2.859-1.203,5.084-5.463,6.809-7.879
			c2.103-2.945,5.312-7.027,5.075-10.889c-0.214-3.516-4.266-2.613-6.089-0.988c-1.941,1.73-3.461,3.807-4.706,6.082
			c-0.729,1.332-0.992,2.857-1.352,4.314c-0.37,1.502-1.595,2.273-1.859,3.797C222.99,289.926,223.479,290.201,223.635,289.844
			L223.635,289.844z"/>
	</g>
</g>
<g>
	<g>
		<path d="M217.514,292.508c0.11,0.051,0.221,0.102,0.332,0.15c0.546,0.688,1.408-0.188,1.115-0.859
			c-0.98-2.256-1.69-4.637-2.819-6.906c-1.479-2.971-3.682-3.545-5.839-5.848c-1.592-1.697-5.718-4.924-6.258-0.648
			c-0.364,2.875,4.155,6.502,5.83,8.256c1.911,2,3.738,4.166,5.416,6.361c1.865,2.438,4.733,4.979,5.909,7.682
			c0.202,0.465,0.916,0.299,1.031-0.135c0.979-3.697-2.014-4.826-4.026-7.51c-2.256-3.008-4.741-5.842-7.387-8.51
			c-1.057-1.066-2.084-2.15-3.06-3.291c-2.754-3.225,0.394-0.348,1.592,0.463c2.877,1.949,4.238,3.949,5.793,6.971
			c0.526,1.021,0.993,2.203,1.565,3.18c0.422,0.723,0.288-0.018,0.805-0.057C217.063,291.842,217.063,292.473,217.514,292.508
			L217.514,292.508z"/>
	</g>
</g>
<g>
	<g>
		<path d="M221.94,273.176c0.065-0.963,0.743-2.553-0.414-3.195c-0.723-0.4-1.814-0.809-2.688,0.344
			c-1.229,1.617-1.45,5.289-0.697,7.145c1.297,3.197,6.566,2.617,7.263-0.707c0.571-2.723-1.45-6.492-4.64-5.555
			c-0.332,0.098-0.297,0.525,0,0.639c0.792,0.297,1.506,0.471,1.957,1.248c0.391,0.672,0.208,1.82,0.183,2.559
			c-0.048,1.4-2.188,1.502-2.324,0.092c-0.102-1.059-0.021-2.131,0.045-3.188c0.016-0.25,0.063-0.477,0.119-0.719
			c0.125-0.531,0.21-0.129-0.1-0.139c0.554,0.016,0.747,0.879,0.791,1.477C221.459,273.502,221.918,273.502,221.94,273.176
			L221.94,273.176z"/>
	</g>
</g>
<g>
	<g>
		<path d="M222.403,272.553c2.521,1.699,5.154,2.023,7.789,0.404c2.143-1.318,4.019-3.908,3.212-6.525
			c-0.698-2.266-3.492-2.186-5.322-1.711c-2.786,0.723-5.021,4.184-5.907,6.709c-0.128,0.365,0.351,0.57,0.602,0.352
			c1.292-1.135,2.246-2.596,3.603-3.684c0.894-0.719,3.642-2.475,4.64-0.979c0.795,1.193-1.041,3.023-1.804,3.715
			c-1.743,1.58-4.437,2.701-6.575,1.316C222.385,271.984,222.156,272.387,222.403,272.553L222.403,272.553z"/>
	</g>
</g>
<g>
	<g>
		<path d="M222.794,267.398c0.091-1.002,0.474-1.844,0.484-2.887c0.012-1.096-0.157-2.156-0.568-3.17
			c-0.439-1.086-1.228-2.105-2.243-2.701c-1.88-1.102-3.869,0.354-4.963,1.846c-1.486,2.029-2.302,4.547-2.491,7.041
			c-0.135,1.762,0.557,4.623,2.831,4.484c0.417-0.025,0.652-0.514,0.344-0.83c-2.16-2.213-0.807-6.303,0.489-8.627
			c0.433-0.775,1.583-2.605,2.72-2.084c0.892,0.41,1.401,1.664,1.717,2.498c0.481,1.273,1.008,3.07,1.136,4.43
			C222.282,267.75,222.762,267.75,222.794,267.398L222.794,267.398z"/>
	</g>
</g>
<g>
	<g>
		<path d="M218.533,271.34c-1.736-1.58-4.365-2.004-6.591-1.43c-2.069,0.535-3.751,2.668-2.816,4.777
			c1.636,3.693,8.899,5.672,12.042,2.932c0.336-0.293-0.018-0.887-0.436-0.748c-1.26,0.42-2.361-0.012-3.602-0.23
			c-1.587-0.281-3.18-0.742-4.607-1.5c-1.752-0.932-2.454-2.561-0.551-3.973c1.698-1.26,4.671-0.754,6.189,0.543
			C218.417,271.93,218.786,271.57,218.533,271.34L218.533,271.34z"/>
	</g>
</g>
<g>
	<g>
		<path d="M182.449,293.195c0.115,0.094,0.23,0.186,0.346,0.277c0.363,0.428,1,0.145,1.159-0.307c1-2.836,0.684-6.441,0.378-9.385
			c-0.217-2.076-0.777-5.379-3.262-5.877c-0.871-0.176-1.792,0.74-1.229,1.6c0.142,0.328,0.059,0.627-0.248,0.893
			c-0.194,0.361,0.194,0.762,0.559,0.559c0.73-0.404,1.085-0.787,1.57-1.451c-0.497,0.129-0.993,0.26-1.49,0.391
			c2.207,1.174,2.176,12.875,2.218,12.873C182.173,292.775,182.173,293.188,182.449,293.195L182.449,293.195z"/>
	</g>
</g>
<g>
	<g>
		<path d="M181.093,269.875c0.012-0.514,0-1.021,0.134-1.527c0.051-0.191-0.028-0.426-0.212-0.521
			c-0.708-0.363-1.229-0.764-2.073-0.496c-0.741,0.234-1.238,0.963-1.486,1.662c-0.541,1.527-0.532,3.545-0.187,5.119
			c0.443,2.014,2.441,2.404,4.182,1.91c2.09-0.594,2.345-3.041,1.461-4.766c-0.179-0.35-0.744-0.348-0.924,0
			c-0.318,0.615-0.371,2.244-1.206,2.307c-0.968,0.072-1.104,0.379-1.248-0.773c-0.149-1.195-0.684-4.246,1.248-4.102
			c-0.148-0.113-0.297-0.227-0.445-0.34c0.134,0.506,0.122,1.014,0.134,1.527C180.479,270.277,181.084,270.277,181.093,269.875
			L181.093,269.875z"/>
	</g>
</g>
<g>
	<g>
		<path d="M174.401,274.084c0.265-1.455,1.01-2.49-0.204-3.594c-0.936-0.854-2.194-0.998-3.37-0.705
			c-2.727,0.682-2.55,4.201-1.545,6.127c1.368,2.623,4.657,5.738,7.775,5.879c1.667,0.074,5.916,0.787,5.868-2.014
			c-0.005-0.297-0.303-0.559-0.604-0.459c-2.375,0.785-5.456,0.346-7.594-0.879c-1.661-0.951-3.152-2.361-3.935-4.119
			c-0.558-1.254-0.452-3.123,1.513-2.852c1.175,0.164,1.342,1.775,1.495,2.615C173.855,274.383,174.348,274.383,174.401,274.084
			L174.401,274.084z"/>
	</g>
</g>
<g>
	<g>
		<path d="M186.625,279.256c2.714-0.059,5.306-0.449,6.514-3.211c0.829-1.896-0.697-3.406-2.396-3.867
			c-1.757-0.479-4.395-0.27-6.025,0.582c-0.698,0.363-1.595,0.941-1.695,1.805c-0.095,0.805,0.311,1.326,1.1,1.41
			c0.248,0.025,0.393-0.291,0.277-0.484c-1.122-1.871,4.745-2.072,5.619-1.932c1.512,0.244,2.095,1.131,1.424,2.574
			c-0.805,1.727-3.063,2.482-4.816,2.52C186.236,278.66,186.236,279.264,186.625,279.256L186.625,279.256z"/>
	</g>
</g>
<g>
	<g>
		<path d="M186.777,270.961c1.756-1.16,2.616-3.016,2.427-5.092c-0.193-2.115-1.929-4.619-4.259-4.484
			c-3.769,0.219-6.26,7.793-2.786,9.811c0.363,0.211,0.884-0.053,0.864-0.494c-0.107-2.365-0.319-5.131,1.479-6.98
			c1.289-1.328,2.663,1.453,2.943,2.387c0.444,1.484,0.193,3.391-1.033,4.381C186.145,270.703,186.494,271.148,186.777,270.961
			L186.777,270.961z"/>
	</g>
</g>
<g>
	<g>
		<path d="M180.64,262.578c-2.464-1.949-6.709-3.268-8.924-0.318c-2.708,3.605-1.272,8.893,2.146,11.328
			c0.398,0.285,0.889-0.262,0.651-0.652c-1.605-2.641-2.386-6.176-1.104-9.094c0.966-2.199,4.639-0.752,6.041,0.279
			C180.346,264.781,181.513,263.268,180.64,262.578L180.64,262.578z"/>
	</g>
</g>
<g>
	<g>
		<path d="M176.76,235.475c-0.092-0.406-0.183-0.811-0.273-1.217c-1.037,1.051,0.054,2.438,1.314,2.258
			c2.979-0.422,5.859-2.469,7.79,0.74c0.974,1.617,1.781,2.844,3.539,3.592c1.604,0.68,3.377,0.014,4.977-0.316
			c2.436-0.504,2.411-0.434,4.277,0.939c1.495,1.102,3.404,2.088,5.34,1.809c2.714-0.393,4.655-2.715,7.306-2.887
			c2.952-0.189,5.919,0.064,8.884-0.137c4.299-0.291,4.97,3.193,7.985,4.834c0.648,0.354,1.673-0.24,1.357-1.043
			c-1.404-3.588-4.104-6.152-8.032-6.328c-2.738-0.123-5.645,0.504-8.407,0.564c-1.068,0.023-2.96-0.348-3.964-0.072
			c-2.635,0.725-3.226,2.426-6.768,1.9c-2.522-0.373-2.05-3.049-4.063-3.604c-2.429-0.67-3.557,0.885-5.953,1.387
			c-4.108,0.859-4.625-3.441-7.229-4.969c-0.962-0.563-6.52,1.059-6.479,1.211c-0.356-1.309-2.341-0.549-1.742,0.734
			c-0.09,0.063-0.181,0.127-0.271,0.189C176.172,235.305,176.518,235.645,176.76,235.475L176.76,235.475z"/>
	</g>
</g>
<g>
	<g>
		<path d="M180.98,249.443c0.451-0.447,6.146,0.291,6.955,0.252c4.308-0.215,8.064-3.031,11.671,1.578
			c2.509,3.207,5.863,2.26,9.558,1.826c5.021-0.59,11.688-0.35,15.877,2.498c2.921,1.986,6.383,0.027,8.747-1.814
			c0.492-0.385-0.051-1.1-0.568-0.977c-3.27,0.773-5.813,0.824-8.302-1.613c-0.813-0.797-2.134-1.129-3.23-1.127
			c-2.66,0.002-4.86-0.285-7.514-0.602c-2.561-0.307-4.745,0.475-7.286,0.742c-2.982,0.314-4.729,0.172-7.312-1.697
			c-1.469-1.063-2.874-1.426-4.621-1.783c-4.222-0.863-10.198-0.096-14.404,0.855c-0.645,0.145-0.83,1.006-0.383,1.449
			c0.138,0.139,0.275,0.275,0.414,0.412C180.69,249.553,180.872,249.553,180.98,249.443L180.98,249.443z"/>
	</g>
</g>
</svg>
