<?xml version="1.0" encoding="utf-8"?>
<!-- Generator: Adobe Illustrator 14.0.0, SVG Export Plug-In . SVG Version: 6.00 Build 43363)  -->
<!DOCTYPE svg PUBLIC "-//W3C//DTD SVG 1.1//EN" "http://www.w3.org/Graphics/SVG/1.1/DTD/svg11.dtd">
<svg version="1.1" id="Layer_1" xmlns="http://www.w3.org/2000/svg" xmlns:xlink="http://www.w3.org/1999/xlink" x="0px" y="0px"
	 width="400px" height="400px" viewBox="0 0 400 400" enable-background="new 0 0 400 400" xml:space="preserve">
<rect fill="none" stroke="#000000" stroke-width="3.7403" width="400" height="400"/>
<radialGradient id="SVGID_1_" cx="158.7905" cy="574.3438" r="107.8055" gradientTransform="matrix(0.3316 -9.602403e-004 5.343634e-004 0.1846 104.8814 112.4174)" gradientUnits="userSpaceOnUse">
	<stop  offset="0" style="stop-color:#FF0000;stop-opacity:0.95"/>
	<stop  offset="0.3636" style="stop-color:#FF0000;stop-opacity:0.6512"/>
	<stop  offset="0.9758" style="stop-color:#FF0000;stop-opacity:0"/>
</radialGradient>
<path opacity="0.46" fill-rule="evenodd" clip-rule="evenodd" fill="url(#SVGID_1_)" d="M185.703,218.185
	c0.038,12.972-12.401,23.521-27.784,23.565c-15.38,0.045-27.882-10.434-27.919-23.404c-0.038-12.969,12.403-23.52,27.784-23.564
	C173.166,194.737,185.665,205.215,185.703,218.185z"/>
<g>
	<g>
		<path d="M121.69,267.307c-0.289,0.264-0.578,0.527-0.867,0.791c-0.376,0.344-0.135,0.887,0.275,1.043
			c12.232,4.664,26.303,5.629,39.264,6.502c15.002,1.012,29.903,0.557,44.923,0.441c7.096-0.055,14.186,0.033,21.252,0.67
			c6.472,0.584,13.606,1.059,20.054,0.217c5.907-0.771,11.805-1.729,17.699-2.488c3.481-0.449,6.924-0.955,8.19-4.529
			c4.003-11.299-53.592-15.385-60.181-15.508c-14.265-0.266-28.428-1.215-42.696,0.047c-13.296,1.176-25.786,6.504-38.425,10.379
			c-0.431,0.133-0.252,0.787,0.187,0.676c11.562-2.934,22.814-7.191,34.726-8.58c12.021-1.402,24.687-0.656,36.754-0.133
			c5.545,0.242,11.117,0.494,16.652,0.898c6.085,0.443,11.997,1.879,18.056,2.426c6.479,0.584,12.881,1.652,19.172,3.305
			c2.908,0.762,5.736,1.779,8.53,2.881c1.599,0.629,6.177,2.996,2.268,4.232c-10.018,3.17-21.597,3.545-32.016,3.42
			c-12.745-0.15-25.375-1.127-38.152-0.896c-13.009,0.232-25.888,0.395-38.886-0.33c-6.285-0.352-12.547-0.846-18.795-1.621
			c-3.635-0.451-7.242-1.082-10.835-1.787c-1.227-0.264-2.456-0.516-3.688-0.756c-0.957-0.191-3.292,0.209-2.649-0.486
			C123.005,267.574,122.237,266.809,121.69,267.307L121.69,267.307z"/>
	</g>
</g>
<g>
	<g>
		<path d="M162.215,211.601c1.076-2.549,1.94-7.112-2.551-7.165c-5.386-0.063-8.85,6.293-10.462,10.777
			c-2.452,6.82-4.045,20.754,7.33,19.145c7.438-1.052,15.932-7.246,18.452-14.463c1.53-4.381-1.657-8.387-4.976-10.721
			c-4.263-2.996-10.883-5.666-15.751-3.003c-0.461,0.252-0.128,0.884,0.337,0.8c5.773-1.037,20.694,5.354,17.14,13.088
			c-1.933,4.207-6.489,7.341-10.439,9.419c-4.127,2.171-9.509,3.169-10.913-2.466c-1.029-4.131,1.158-9.738,2.932-13.396
			c1.636-3.375,6.724-8.305,8.458-2.072C161.822,211.727,162.129,211.805,162.215,211.601L162.215,211.601z"/>
	</g>
</g>
<g>
	<g>
		<path d="M170.225,230.268c5.675,2.209,10.084,5.592,14.334,9.947c4.779,4.896,4.898,10.064,5.508,16.463
			c0.786,8.254-10.4,1.813-13.466-0.334c-4.283-2.996-7.806-7.049-11.675-10.529c-0.362-0.326-0.999,0.102-0.703,0.543
			c4.26,6.346,9.073,12.164,16.032,15.627c4.731,2.355,11.017,3.66,12.941-2.428c0.852-2.695-0.181-7.102-0.473-9.873
			c-0.37-3.508-1.599-6.545-3.775-9.275c-3.84-4.818-11.835-13.115-18.724-11.455C169.513,229.125,169.642,230.04,170.225,230.268
			L170.225,230.268z"/>
	</g>
</g>
<g>
	<g>
		<path d="M151.207,229.955c-2.446,0.068-3.794,1.775-5.101,3.671c-2.348,3.408-4.057,7.821-5.859,11.522
			c-2.642,5.422-7.903,16.674-0.821,20.928c5.125,3.08,13.235-2.699,17.067-5.607c5.977-4.535,11.331-12.867,7.684-20.357
			c-0.203-0.417-0.971-0.235-0.906,0.246c1.418,10.631-10.054,21.727-20.373,23.004c-8.558,1.059-0.446-17.084,0.971-20.066
			c1.668-3.514,3.433-11.051,7.48-12.289C151.916,230.833,151.826,229.938,151.207,229.955L151.207,229.955z"/>
	</g>
</g>
<g>
	<g>
		<path d="M269.887,267.281c-0.793,8.094-0.483,16.1-0.277,24.207c0.229,8.99-0.064,17.975,0.54,26.955
			c0.509-0.508,1.019-1.018,1.527-1.527c-2.632,0.178-4.917-0.574-7.515,0.059c-2.489,0.605-4.816,2.176-7.08,3.311
			c-2.087,1.047-4.127,1.727-6.486,0.639c-1.898-0.877-1.588-1.791-3.386-2.285c-1.772-0.486-3.56,0.871-4.898,1.779
			c-7.273,4.928-14.767,4.736-23.207,4.662c-7.831-0.068-15.568-0.855-23.445-0.848c-7.229,0.008-19.34,6.01-25.218,0.361
			c-4.355-4.184-9.728-0.254-14.229,1.232c-3.917,1.291-7.855-1.629-11.542-2.682c-4.265-1.219-6.637-3.537-9.829-6.436
			c-1.894-1.719-4.165-3.205-6.573-4.076c-3.328-1.205-3.386-2.893-3.603-6.139c-0.068-1.014-1.514-1.018-1.576,0
			c-0.116,1.908-0.572,3.82,0.287,5.592c0.977,2.014,5.184,2.975,6.786,3.844c3.019,1.637,4.813,4.51,7.508,6.443
			c2.725,1.955,5.89,2.504,9.033,3.516c2.982,0.961,4.993,2.266,8.235,2.148c4.856-0.174,9.248-6.088,14.141-2.08
			c5.036,4.123,10.918,2.963,16.914,1.592c16.1-3.682,32.803,2.104,48.822-1.828c3.082-0.756,5.69-2.16,8.282-3.957
			c4.065-2.82,5.572,1.637,9.028,1.76c2.175,0.078,4.027-0.59,5.987-1.475c4.751-2.141,7.751-3.9,13.157-2.133
			c0.905,0.297,1.999-0.504,1.934-1.473c-1.146-17.014,0.065-34.184-1.702-51.162C271.394,266.244,269.989,266.24,269.887,267.281
			L269.887,267.281z"/>
	</g>
</g>
<g>
	<g>
		<path d="M114.135,270.664c1.971,2.055,2.292,6.861,2.55,9.5c0.354,3.609,0.735,7.236,0.905,10.871
			c0.321,6.863-0.375,13.777,0.673,20.596c0.095,0.617,1.141,0.615,1.238,0c1.352-8.572,1.216-17.559,0.268-26.166
			c-0.44-4-0.522-13.65-4.855-15.811C114.269,269.334,113.615,270.121,114.135,270.664L114.135,270.664z"/>
	</g>
</g>
<g>
	<g>
		<path d="M238.482,296.332c0.164-0.426,0.327-0.852,0.491-1.279c0.569-1.316-1.479-1.857-1.638-0.443
			c-0.936,8.316-0.832,17.229-0.445,25.584c0.029,0.617,0.96,0.793,1.108,0.15c1.885-8.166,2.075-17.434,1.095-25.734
			c-0.546,0.148-1.092,0.297-1.638,0.443c0.167,0.428,0.334,0.854,0.501,1.279C238.049,296.59,238.392,296.592,238.482,296.332
			L238.482,296.332z"/>
	</g>
</g>
<g>
	<g>
		<path d="M184.513,307.967c-0.048,5.568-0.345,10.994-1.506,16.457c-0.055,0.258,0.312,0.359,0.394,0.109
			c1.763-5.42,1.811-10.922,1.734-16.566C185.129,307.566,184.516,307.566,184.513,307.967L184.513,307.967z"/>
	</g>
</g>
<g>
	<g>
		<path d="M223.985,258.338c-0.005-0.273-0.009-0.549-0.013-0.824c-0.001-0.074-0.116-0.074-0.117,0
			c-0.002,0.275-0.004,0.551-0.007,0.824C223.849,258.426,223.986,258.426,223.985,258.338L223.985,258.338z"/>
	</g>
</g>
<g>
	<g>
		<path d="M152.778,236.322c-2.667,4.031-4.068,8.758-5.199,13.418c-0.152,0.627,0.716,1.016,1.049,0.443
			c2.38-4.102,4.553-8.549,6.168-13.01C155.243,235.94,153.436,235.328,152.778,236.322L152.778,236.322z"/>
	</g>
</g>
<g>
	<g>
		<path d="M168.07,235.66c0.863,0.872,1.64,1.785,2.288,2.83c0.635,1.023,0.9,2.229,1.673,3.162c0.318,0.385,1.09,0.193,1.17-0.309
			c0.417-2.629-2.049-5.339-3.771-7.045C168.549,233.423,167.196,234.776,168.07,235.66L168.07,235.66z"/>
	</g>
</g>
<g>
	<g>
		<path d="M195.528,330.221c0.081-0.408,0.162-0.816,0.243-1.227c1.098-1.557-2.176-2.867-2.327-0.629
			c-0.232,3.447-1.286,8.15,0.619,11.271c0.331,0.541,1.048,0.904,1.681,0.684c0.174-0.061,0.347-0.121,0.521-0.182
			c0.62-0.215,0.967-0.68,1.015-1.332c0.014-0.182,0.027-0.361,0.04-0.543c0.053-0.711-0.651-1.371-1.345-1.344
			c-6.421,0.252-12.826,0.768-19.246,1.047c-2.544,0.109-5.024,0.51-7.43,1.346c-1.692,0.588-2.63,2.416-4.283,2.926
			c-0.729,0.227-0.962,0.969-0.66,1.623c1.002,2.176,4.776,3.051,6.866,3.646c5.494,1.568,10.949,2.904,16.659,3.326
			c10.429,0.77,21.847,0.402,32.012-2.143c3.784-0.947,12.824-4.6,10.045-9.873c-1.587-3.01-6.727-3.172-9.521-2.906
			c-3.332,0.318-5.957,1.172-9.3,0.35c-2.627-0.646-4.899-1.67-7.637-1.789c-1.695-0.072-1.622,2.416,0,2.588
			c3.042,0.324,5.735,1.768,8.732,2.135c3.405,0.416,6.509-0.508,9.886-0.834c2.888-0.281,7.031,2.561,3.457,4.842
			c-1.199,0.766-2.627,1.301-3.941,1.803c-3.739,1.43-7.913,1.971-11.859,2.395c-7.224,0.777-14.618,0.635-21.874,0.531
			c-4.159-0.059-8.271-1.057-12.298-2.002c-1.706-0.398-8.257-1.191-9.32-3.184c-0.22,0.541-0.44,1.082-0.66,1.623
			c1.049-0.434,1.402-0.623,2.126-1.574c1.951-2.563,6.174-2.584,9-2.746c6.354-0.363,12.883-0.473,19.246-0.439
			c-0.433-0.568-0.864-1.135-1.297-1.703c-0.038,0.178-0.076,0.355-0.114,0.533c0.444-0.34,0.89-0.678,1.334-1.016
			c0.407,0.02,0.079-8.6,0.045-9.059c-0.416,0.416-0.833,0.832-1.249,1.248c0.145,0.221,0.289,0.441,0.434,0.662
			C195.162,330.506,195.534,330.445,195.528,330.221L195.528,330.221z"/>
	</g>
</g>
<g>
	<g>
		<path d="M203.688,339.092c0.3-1.549,0.991-2.961,1.129-4.563c0.17-1.977,0.155-4.125-0.776-5.91c-0.227-0.436-0.933-0.439-1.158,0
			c-0.842,1.635-0.838,3.404-0.771,5.213c0.063,1.697-0.251,3.338-0.105,5.031C202.084,339.766,203.492,340.102,203.688,339.092
			L203.688,339.092z"/>
	</g>
</g>
<g>
	<g>
		<path d="M129.329,242.244c0.131,0.102,0.262,0.201,0.394,0.301c-0.669-1.008-2.104-0.578-2.198,0.596
			c-0.357,4.49,0.362,9.016,0.18,13.531c-0.16,3.963-1.154,8.289,0.042,12.131c0.322,1.035,1.729,1.004,2.063,0
			c0.862-2.584,2.172-24.975-0.48-24.77C130.479,243.945,130.484,242.326,129.329,242.244L129.329,242.244z"/>
	</g>
</g>
<g>
	<g>
		<path d="M124.741,243.398c0.297-0.488,1.991-0.449,2.46-0.502c0.987-0.107,1.831-0.404,2.761-0.74
			c2.795-1.01,5.769-2.086,7.993-4.108c0.456-0.415,0.104-1.232-0.502-1.212c-3.704,0.125-6.602,2.476-10.013,3.592
			c-1.462,0.479-3.668,0.814-3.605,2.727C123.851,243.637,124.486,243.82,124.741,243.398L124.741,243.398z"/>
	</g>
</g>
<g>
	<g>
		<path d="M186.032,267.191c0.419-0.994,12.207,2.814,14.155,2.34c1.247-0.303,2.75-1.842,1.947-3.213
			c-1.842-3.145-6.113,0.662-8.254-1.082c0,0.412,0,0.824,0,1.238c1.122-0.904,3.681-0.27,5.014-0.234
			c2.316,0.061,5.499-1.676,7.604-2.551c0.34-0.141,0.346-0.75-0.096-0.707c-3.228,0.309-6.443,1.299-9.677,1.07
			c-1.581-0.111-3.232,0.039-4.22,1.361c-0.363,0.486,0.046,1.111,0.523,1.285c0.859,0.311,1.541,0.303,2.467,0.221
			c0.387-0.051,0.771-0.113,1.154-0.189c1.113-0.602,2.056-0.459,2.827,0.428c-2.122-0.008-4.283-0.551-6.385-0.824
			c-1.246-0.164-7.185-1.457-7.623,0.703C185.393,267.416,185.889,267.533,186.032,267.191L186.032,267.191z"/>
	</g>
</g>
<g>
	<g>
		<path d="M212.661,263.605c0.609-0.014,1.144-0.107,1.757-0.002c0.616,0.107,1.32,0.25,1.851,0.59
			c0.185,0.117,0.47-0.035,0.454-0.262c-0.149-2.078-2.877-0.941-4.062-0.891C212.299,263.057,212.296,263.615,212.661,263.605
			L212.661,263.605z"/>
	</g>
</g>
<g>
	<g>
		<path d="M293.34,219.766c0.049-0.143,0.097-0.286,0.145-0.429c0.589-0.612,0.344-1.691-0.505-1.915
			c-7.972-2.098-10.134,10.185-11.17,15.684c-1.277,6.775-0.87,15.668,7.16,17.572c8.734,2.07,17.614-8.104,18.233-16.101
			c0.769-9.942-8.123-16.813-17.657-16.45c-0.456,0.018-0.563,0.678-0.108,0.803c7.007,1.923,14.544,4.889,15.261,13.158
			c0.677,7.807-7.835,17.549-15.912,15.596c-5.658-1.369-4.905-9.564-4.225-13.819c0.331-2.077,0.888-4.118,1.512-6.124
			c0.339-1.09,0.652-2.179,0.992-3.268c0.332-0.951,0.776-1.843,1.334-2.677c0.799-1.498,2.005-2.175,3.618-2.03
			C292.094,220.615,293.269,220.619,293.34,219.766L293.34,219.766z"/>
	</g>
</g>
<g>
	<g>
		<path d="M306.547,252.008c0.125,0,0.125-0.195,0-0.195S306.422,252.008,306.547,252.008L306.547,252.008z"/>
	</g>
</g>
<g>
	<g>
		<path d="M292.057,235.861c-0.128-1.693-1.838-1.791-3.227-1.788c-2.613,0.004-4.63,0.766-6.3,2.859
			c-3.902,4.896,1.573,9.183,6.28,9.644c3.533,0.346,10.339-2.063,9.688-6.562c-0.286-1.981-2.809-3.675-4.245-4.772
			c-1.725-1.318-4.173-3.066-6.289-1.867c-0.408,0.231-0.493,0.834-0.149,1.162c1.65,1.572,3.851,2.442,5.635,3.866
			c0.514,0.41,2.419,1.855,2.073,2.536c-0.572,1.129-2.027,1.553-3.026,2.158c-2.452,1.482-8.486,0.58-8.666-2.867
			c-0.1-1.905,2.216-3.633,3.885-3.804c0.557-0.058,3.012-0.723,3.254-0.271C291.234,236.654,292.1,236.445,292.057,235.861
			L292.057,235.861z"/>
	</g>
</g>
<g>
	<g>
		<path d="M288.681,235.252c0.058-0.035,0.115-0.07,0.173-0.105c0.534-0.412,0.055-1.229-0.515-1.24
			c-1.87-0.043-2.274,1.852-3.33,2.994c-1.665,1.805-2.394,4.01-2.559,6.41c-0.049,0.705,0.509,1.264,1.123,1.477
			c2.15,0.74,4.229-1.641,5.544-2.982c1.311-1.338,2.982-2.938,3.258-4.901c0.094-0.668-0.037-1.454-0.728-1.786
			c-3.624-1.742-6.866,4.553-6.495,7.43c0.287,2.225,2.569,2.846,4.419,1.953c2.38-1.146,4.352-3.297,5.317-5.746
			c0.352-0.893-0.561-2.129-1.529-2.007c-2.93,0.366-6.359,3.55-4.932,6.683c1.197,2.627,5.727,1.18,6.929-0.592
			c0.646-0.953-0.2-2.457-1.359-2.369c-1.26,0.098-2.349,0.404-3.171,1.42c-0.857,1.063-0.381,1.734-0.106,2.852
			c0.203,0.83,1.298,0.707,1.557,0c0.106-0.291,1.209-1.082,1.721-1.123c-0.453-0.789-0.906-1.578-1.359-2.369
			c-0.281,0.418-1.288,0.455-1.714,0.367c0.669,0.139,1.54-1.604,2.436-1.697c-0.51-0.669-1.02-1.338-1.529-2.007
			c-0.416,1.046-1.232,1.872-2.034,2.63c-0.426,0.402-0.904,0.705-1.398,1.012c-0.583,0.363-0.293,0.818-0.164,0.123
			c0.171-0.918,0.622-1.774,1.073-2.58c0.165-0.295,0.129-0.284,0.327-0.47c0.475-0.443,1.071-0.415,0.418-0.777
			c-0.243-0.595-0.485-1.19-0.728-1.786c-0.234,1.174-1.12,2.023-1.861,2.811c-0.532,0.566-1.073,1.122-1.633,1.662
			c-0.325,0.314-0.667,0.619-1.03,0.889c-0.198,0.148-0.841,0.309-0.412,0.412c0.374,0.49,0.749,0.982,1.123,1.475
			c-0.05-1.898,0.427-3.34,1.353-4.979c0.213-0.378,0.395-0.732,0.557-1.14c0.123-0.313,0.256-0.622,0.401-0.926
			c0.313-0.68,0.256-0.41,0.178-1.014C288.056,235.689,288.625,235.69,288.681,235.252L288.681,235.252z"/>
	</g>
</g>
<g>
	<g>
		<path d="M295.84,232.224c1.061,0,1.945-0.885,1.945-1.945s-0.885-1.945-1.945-1.945s-1.945,0.885-1.945,1.945
			S294.779,232.224,295.84,232.224L295.84,232.224z"/>
	</g>
</g>
<g>
	<g>
		<path d="M289.851,229.26c0.066-0.029,0.133-0.057,0.199-0.085c0.489-0.208,0.775-0.856,0.775-1.353
			c0-0.765-0.494-1.238-1.149-1.512c-0.074-0.031-0.148-0.062-0.223-0.092c-1.021-0.426-2.106,0.626-2.106,1.604
			c0,0.587,0.318,1.141,0.824,1.438C288.734,229.59,289.283,229.5,289.851,229.26L289.851,229.26z"/>
	</g>
</g>
<g>
	<g>
		<path d="M297.912,249.125c0.222,0.426-0.022,2.807,0.083,3.51c0.26,1.729,0.672,3.398,0.855,5.148
			c0.31,2.959,1.229,5.58,2.748,8.109c0.384,0.641,1.235,0.311,1.305-0.354c0.596-5.674-1.614-11.51-2.799-17
			c-0.201-0.932-1.612-1.113-2.047-0.268C297.909,248.561,297.747,248.807,297.912,249.125L297.912,249.125z"/>
	</g>
</g>
<g>
	<g>
		<path d="M285.57,249.805c0.467-0.4-3.367,0.67-2.512,0.414c-1.07,0.318-2.227,1.01-3.209,1.494
			c-3.657,1.801-6.995,4.307-10.536,6.326c-2.916,1.662-19.934,12.439-21.713,9.852c-0.227-0.33-0.764-0.4-0.975,0
			c-3.548,6.711,7.864,1.162,9.419,0.422c5.012-2.389,9.732-5.342,14.645-7.92c5.22-2.738,9.766-6.926,15.434-8.781
			c0.601-0.197,0.953-1.053,0.401-1.521c-0.111-0.096-0.224-0.191-0.335-0.285C285.997,249.641,285.763,249.639,285.57,249.805
			L285.57,249.805z"/>
	</g>
</g>
<g>
	<g>
		<path d="M251.227,272.777c3.411,2.926,9.062,0.633,12.592-0.947c6.949-3.109,12.96-7.293,20.353-9.453
			c0.461-0.135,0.524-0.898,0-0.994c-12.015-2.215-20.388,12.52-32.556,10.727C251.265,272.059,250.888,272.486,251.227,272.777
			L251.227,272.777z"/>
	</g>
</g>
<g>
	<g>
		<path d="M301.203,262.348c-1.175,2.855-0.226,6.293-0.8,9.324c-0.746,3.939-3.904,5.74-5.672,8.994
			c-0.375,0.689,0.352,1.279,0.998,0.998c4.028-1.75,5.953-4.023,7.367-8.18c1.22-3.586,0.584-7.955-1.2-11.229
			C301.724,261.938,301.319,262.066,301.203,262.348L301.203,262.348z"/>
	</g>
</g>
<g>
	<g>
		<path d="M296.587,272.514c0.063-0.016,0.117-0.01,0.164,0.018c-0.108-0.416-0.218-0.832-0.327-1.248
			c-1.964,4.371-6.484,6.74-9.186,10.65c-0.348,0.504,0.229,1.246,0.802,1.043c2.951-1.041,5.001-3.184,7.146-5.377
			c1.511-1.545,3.389-3.777,2.906-6.098c-0.117-0.564-0.865-0.855-1.341-0.547c-0.035,0.045-0.09,0.051-0.164,0.021
			C295.6,271.084,295.597,272.408,296.587,272.514L296.587,272.514z"/>
	</g>
</g>
<g>
	<g>
		<path d="M307.545,255.33c2.549,0.381,4.454,1.936,6.855,2.596c2.16,0.594,5.195,0.139,7.264,1.074c0-0.629,0-1.26,0-1.891
			c-3.977,2.5-3.797,7.129-3.774,11.477c0.041,7.906-0.205,16.109-0.856,23.998c-0.635,7.699-1.031,15.322-2.089,22.988
			c-0.903,6.549-3.812,13.559-2.918,20.16c0.139,1.023,1.889,1.008,2.045,0c1.973-12.715,4.701-24.965,5.405-37.871
			c0.363-6.66,0.296-13.342,0.805-19.99c0.241-3.137,0.352-6.139,0.219-9.285c-0.124-2.953-1.035-8.137,2.27-9.586
			c0.805-0.354,0.615-1.486,0-1.891c-1.775-1.162-4.008-0.852-6.047-1.225c-3.141-0.572-5.763-2.139-8.917-2.484
			C306.708,253.279,306.453,255.166,307.545,255.33L307.545,255.33z"/>
	</g>
</g>
<g>
	<g>
		<path d="M315.145,330.904c-2.109-0.379-7.206,0.129-8.565-1.441c0.078,0.604,0.155,1.207,0.233,1.811
			c1.51-3.293,3.132-5.287,3.4-9.119c0.373-5.309-1.361-10.631-0.41-15.893c0.17-0.941-0.386-1.615-1.314-1.725
			c-3.978-0.467-7.867-0.668-11.862-0.316c-3.9,0.344-7.572,1.223-11.51,0.885c-4.479-0.383-4.992,4.912-5.771,8.131
			c-1.083,4.475-2.191,9.266-2.186,13.896c0.004,3.816,1.022,7.068,4.966,3.803c0.741-0.613,0.364-1.666-0.275-2.143
			c-3.879-2.887-8.44-0.299-12.482-1.873c-0.707-0.275-1.041,0.775-0.487,1.156c3.368,2.316,8.147,0.385,11.317,2.859
			c0-0.643,0-1.285,0-1.928c-0.318,0.256,0.078-6.172,0.185-6.854c0.531-3.408,1.207-6.803,2.002-10.158
			c0.312-1.316,0.65-2.668,1.188-3.914c0.519-1.201,4.385-0.328,5.422-0.527c6.52-1.25,12.577-1.367,19.132-0.34
			c-0.317-0.559-0.635-1.119-0.952-1.678c-0.929,4.205-0.075,8.318-0.015,12.572c0.03,2.174,0.125,4.225-0.253,6.389
			c-0.369,2.119-1.877,3.404-2.674,5.268c-0.279,0.652-0.265,1.262,0.233,1.811c2.277,2.5,7.729,1.525,10.679,0.979
			C315.962,332.402,315.968,331.051,315.145,330.904L315.145,330.904z"/>
	</g>
</g>
<g>
	<g>
		<path d="M299.752,283.32c-0.224-0.01-0.469-0.029-0.688,0.031c-0.275,0.076-0.502,0.461-0.667,0.664
			c-0.119,0.146,0.06,0.324,0.207,0.207c0.384-0.309,0.652-0.523,1.147-0.553C299.977,283.658,299.979,283.332,299.752,283.32
			L299.752,283.32z"/>
	</g>
</g>
<g>
	<g>
		<path d="M300.468,276.684c-0.16,3.285,0.38,6.164-1.068,9.33c-1.695,3.703-4.523,7.129-8.522,8.463
			c-2.921,0.973-6.063,1.146-9.114,1.27c-1.658,0.064-5.542,0.779-7.074-0.156c-1.088-0.664-2.341,0.914-1.372,1.779
			c0.109,0.098,0.219,0.195,0.328,0.293c0.283,0.252,0.666,0.256,0.949,0c0.108-0.098,0.216-0.195,0.324-0.293
			c-0.593-0.076-1.186-0.154-1.778-0.23c1.261,1.834,3.317,1.572,5.362,1.414c5.198-0.4,9.737-0.199,14.767-1.93
			c3.353-1.154,6.1-5.064,7.606-8.063c2.093-4.162,1.206-7.676,0.605-12.014C301.397,275.945,300.495,276.133,300.468,276.684
			L300.468,276.684z"/>
	</g>
</g>
<g>
	<g>
		<path d="M279.901,276.641c-5.046,2.869-8.792,9.336-10.146,14.824c-0.173,0.701,0.729,1.029,1.12,0.473
			c1.618-2.309,3.069-4.74,4.577-7.123c1.622-2.563,3.785-4.627,5.594-7.029C281.576,277.08,280.577,276.256,279.901,276.641
			L279.901,276.641z"/>
	</g>
</g>
<g>
	<g>
		<path d="M128.31,317.246c-1.188,2.961-1.282,6.818-0.985,9.965c0.181,1.922,0.881,3.48,2.885,3.965
			c1.792,0.434,3.798-0.273,5.477-0.836c1.436-0.482,4.119-1,5.14-2.182c0.523-0.605,0.448-1.467-0.246-1.91
			c-1.988-1.27-6.003,1.182-8.016,1.684c-2.156,0.537-2.221-0.113-2.409-2.229c-0.249-2.799,0.394-5.781-0.625-8.457
			C129.297,316.639,128.547,316.656,128.31,317.246L128.31,317.246z"/>
	</g>
</g>
<g>
	<g>
		<path d="M155.868,326.387c-1.455-0.109-2.318-0.512-3.272,0.707c-0.48,0.613-0.39,1.602,0.481,1.822
			c2.543,0.648,4.726,0.129,7.148-0.773c1.333-0.496,2.573-1.064,3.956-1.418c2-0.51,3.274,1.326,4.526,2.332
			c0.305,0.244,0.727,0.459,1.132,0.299c0.207-0.082,0.414-0.164,0.621-0.244c0.521-0.207,0.653-0.734,0.309-1.172
			c-1.649-2.09-3.24-3.803-6.031-3.822c-1.391-0.012-2.835,0.584-4.099,1.084c-2.452,0.971-4.601,1.58-7.271,1.572
			c0.364,0.363,0.728,0.729,1.091,1.092c0.47-0.338,0.939-0.676,1.409-1.012C156.163,326.816,156.174,326.41,155.868,326.387
			L155.868,326.387z"/>
	</g>
</g>
<g>
	<g>
		<path d="M291.32,182.96c-12.419-1-25.056-1.124-37.375,0.906c-4.184,0.689-13.551,4.252-5.789,7.985
			c4.448,2.14,9.416,2.527,14.266,2.929c6.317,0.523,12.53,1.175,18.883,1.179c6.715,0.004,13.396-0.092,20.064-0.915
			c7.488-0.924,14.959-2.455,22.533-2.313c1.723,0.032,2.085-2.585,0.406-3c-14.841-3.673-30.814-6.249-46.135-6.385
			c-0.749-0.007-0.698,1.038,0,1.128c7.686,0.999,15.236,2.809,22.873,4.109c7.536,1.284,14.999,2.313,22.449,4.094
			c0.136-1,0.271-2,0.406-3c-10.625,0.576-21.187,3.219-31.805,3.312c-9.999,0.087-19.708-0.113-29.676-0.846
			c-4.854-0.356-9.582-0.823-14.058-2.847c-1.767-0.799,3.68-2.737,3.831-2.786c2.882-0.927,6.062-1.225,9.059-1.588
			c9.962-1.21,20.066-0.513,30.066-1.377C291.695,183.511,291.697,182.991,291.32,182.96L291.32,182.96z"/>
	</g>
</g>
<g>
	<g>
		<path d="M243.43,190.282c-0.288,1.325,0.972,4.563,1.174,6.178c0.27,2.151,0.173,4.327,0.414,6.485
			c0.351,3.143,2.026,5.975,4.689,7.671c0.667,0.425,1.287-0.382,0.998-0.998c-0.847-1.808-1.547-3.744-2.237-5.618
			c-0.806-2.188-0.261-4.576-0.739-6.781c-0.72-3.313-1.146-6.393-4.264-8.214c-0.822-0.48-1.431,0.859-0.515,1.219
			c-0.04,0.02-0.08,0.039-0.12,0.058C242.896,190.579,243.365,190.582,243.43,190.282L243.43,190.282z"/>
	</g>
</g>
<g>
	<g>
		<path d="M320.64,193.356c0.148-0.132,0.297-0.264,0.445-0.395c-0.494-0.376-0.988-0.753-1.482-1.129
			c0.722,7.059,1.524,14.472-0.104,21.468c-0.135,0.577,0.523,1.238,1.086,0.835c2.965-2.125,3.355-4.87,3.302-8.391
			c-0.073-4.871,0.161-10.065-2.102-14.503c-0.396-0.776-1.619-0.75-2.021,0c-0.466,0.867-0.438,1.003-0.154,1.98
			C319.736,193.664,320.415,193.811,320.64,193.356L320.64,193.356z"/>
	</g>
</g>
<g>
	<g>
		<path d="M244.479,223.914c2.933,0.209,5.93,1.063,8.85,0.537c1.909-0.342,3.89-1.205,5.358,0.563
			c0.255,0.306,1.038,0.896,1.533,1.09c4.38,1.727,10.995,1.075,15.182-0.925c0.475-0.227,0.18-0.844-0.24-0.889
			c-2.72-0.295-5.405-0.232-8.137-0.207c-1.334,0.012-2.657,0.107-3.992,0.101c-3.367-0.017-2.613-1.435-4.395-2.478
			c-1.176-0.689-2.077-0.426-3.334-0.238c-2.09,0.313-2.809,1.061-5.189,0.995c-1.882-0.052-3.749-0.329-5.636-0.379
			C243.289,222.055,243.315,223.831,244.479,223.914L244.479,223.914z"/>
	</g>
</g>
<g>
	<g>
		<path d="M322.791,214.99c0.774-0.428,0.966-0.555,0.574-0.381c-0.192,0.113-0.335,0.25-0.545,0.342
			c-0.767,0.334-1.726,0.34-2.55,0.445c-0.787,0.102-1.547,0.22-2.3,0.477c-0.994,0.341-1.622,0.904-2.755,1.006
			c-2.012,0.182-2.041,3.33,0,3.166c1.176-0.096,2.363-0.305,3.516-0.561c1.436-0.316,2.454,0.426,3.248,1.602
			c0.535,0.793-3.823,1.754-4.354,1.927c-0.382,0.124-0.397,0.671,0,0.788c2.128,0.629,6.073,0.303,6.391-2.457
			c0.173-1.5-1.778-3.321-2.927-3.961c-1.716-0.954-4.016-0.441-5.874-0.504c0,1.056,0,2.11,0,3.166
			c0.821-0.043,1.586-0.186,2.328-0.565c0.717-0.366,1.321-1.033,2.062-1.328c1.389-0.553,2.891-0.747,4.09-1.696
			c1.279-1.012,0.327-2.408-1.049-1.99C322.31,214.566,322.449,215.066,322.791,214.99L322.791,214.99z"/>
	</g>
</g>
<g>
	<g>
		<path d="M53.169,209.254c11.406-5.579,24.005-8.296,36.419-10.563c14.866-2.715,29.777-5.252,44.798-6.936
			c13.738-1.54,26.986-4.612,40.57-7.001c6.417-1.128,12.787-2.323,18.998-4.323c4.231-1.362,9.173-1.271,12.815-4.064
			c0.656-0.503,0.698-1.337,0-1.834c-3.273-2.327-6.589-3.843-10.654-3.88c-0.659-0.006-0.613,0.912,0,0.992
			c3.717,0.485,6.543,2.293,9.367,4.556c0.071-0.556,0.144-1.112,0.215-1.668c-3.999,2.561-9.633,2.506-14.113,3.903
			c-6.773,2.112-13.875,3.146-20.84,4.398c-6.639,1.193-13.145,2.965-19.785,4.149c-7.988,1.424-16.102,2.107-24.151,3.092
			c-13.937,1.705-27.8,4.348-41.577,7.03c-11.268,2.194-22.623,5.465-32.711,11.04C51.79,208.549,52.433,209.614,53.169,209.254
			L53.169,209.254z"/>
	</g>
</g>
<g>
	<g>
		<path d="M128.919,242.031c-0.002-0.113-0.004-0.225-0.007-0.338c0.694,0.654,1.479-0.686,0.566-0.973
			c-12.29-3.854-25.585,0.313-37.717,3.305c-15.066,3.715-29.811,7.408-44.019,13.801c-0.491,0.221-0.138,0.994,0.36,0.854
			c14.181-4.045,28.289-8.02,42.583-11.65c7.46-1.895,15.319-4.297,22.984-4.955c3.167-0.271,6.412-0.361,9.59-0.443
			c1.104-0.029,4.747,1.189,5.224,0.145C128.347,242.072,128.73,242.301,128.919,242.031L128.919,242.031z"/>
	</g>
</g>
<g>
	<g>
		<path d="M205.335,173.373c-1.121,7.91-0.884,16.296-1.169,24.285c-0.264,7.404-0.47,15.344,1.257,22.593
			c0.197,0.829,1.533,0.865,1.707,0c1.433-7.138-0.052-15.299,0.03-22.593c0.09-8.099,0.981-16.215-0.212-24.285
			C206.83,172.573,205.449,172.569,205.335,173.373L205.335,173.373z"/>
	</g>
</g>
<g>
	<g>
		<path d="M204.912,223.6c-0.215,0.227-0.404,0.473-0.58,0.73c-0.074,0.109-0.142,0.223-0.214,0.334
			c0.009-0.013,0.019-0.025,0.028-0.039c-0.136,0.115-0.096,0.104,0.119-0.035c-0.432,0.176-0.755,0.494-0.755,0.992
			c0,0.516,0.47,1.088,1.028,1.029c0.475-0.051,0.875-0.178,1.188-0.559c0.251-0.305,0.417-0.664,0.685-0.953
			C207.337,224.098,205.857,222.605,204.912,223.6L204.912,223.6z"/>
	</g>
</g>
<g>
	<g>
		<path d="M22.9,185.317c0.347-0.943,0.598-1.886,0.874-2.852c0.153-0.538-0.182-1.247-0.768-1.353
			c-4.396-0.798-5.616,5.553-5.91,8.716c-0.35,3.763-1.136,6.495,0.3,10.178c0.851,2.183,3.753,3.091,5.885,2.595
			c5.361-1.248,11.067-7.041,9.94-13.007c-1.167-6.171-7.56-8.304-13.139-6.645c-0.541,0.161-0.412,0.921,0.129,0.955
			c3.693,0.231,8.528,0.75,9.996,4.788c1.418,3.902-1.548,8.154-4.723,10.193c-2.242,1.44-5.058,1.571-6.221-1.32
			c-0.852-2.117-0.16-4.876,0.319-6.995c0.438-1.941,0.265-7.091,3.13-7.298c-0.354-0.269-0.707-0.538-1.061-0.807
			c0.282,0.965,0.538,1.909,0.891,2.852C22.609,185.492,22.835,185.493,22.9,185.317L22.9,185.317z"/>
	</g>
</g>
<g>
	<g>
		<path d="M35.322,195.584c-2.134-0.474-2.659,2.108-1.212,3.441c1.204,1.109,2.95,2.055,4.537,2.491
			c2.162,0.595,4.5-0.294,6.48,1.159c0.27-0.995,0.539-1.99,0.809-2.985c-0.208,0-0.417,0-0.626-0.001
			c0.27,0.997,0.54,1.994,0.81,2.99c0.932-0.663,0.677,2.404,0.676,2.457c-0.03,1.995-0.477,3.387-1.883,4.843
			c-1.446,1.498-3.889,1.409-5.647,2.335c-0.55,0.289-0.593,1.234,0,1.512c4.545,2.125,9.655-1.768,10.572-6.263
			c0.648-3.177-0.256-11.347-5.338-7.655c-1.222,0.888-0.905,3.004,0.81,2.991c0.208-0.002,0.417-0.003,0.626-0.005
			c1.695-0.014,2.051-2.092,0.809-2.985c-1.556-1.118-3.497-1.266-5.358-1.347c-0.594-0.026-7.56-1.133-5.987-2.685
			C35.49,195.788,35.452,195.613,35.322,195.584L35.322,195.584z"/>
	</g>
</g>
<g>
	<g>
		<path d="M33.287,213.924c0.794,2.971,3.529,4.906,4.533,7.997c1.454,4.476,1.773,9.38,2.098,14.042
			c0.333,4.793,0.438,9.6,0.796,14.391c0.318,4.256,1.321,8.627,1.396,12.84c0.035,1.957,2.85,1.908,3,0
			c0.163-2.07,4.873-2.547,6.531-3.158c2.246-0.83,9.025-3.063,6.268,1.705c-1.043,1.805-1.96,1.422-4.063,1.783
			c-2.223,0.381-4.303,0.537-6.538,0.594c-3.718,0.094-4.72-0.609-5.948-4.254c-0.295-0.877-1.49-0.883-1.782,0
			c-2.267,6.855,4.354,7.398,9.453,7.293c3.161-0.064,6.871-0.119,9.772-1.416c2.038-0.912,2.429-3.34,3.279-5.215
			c2.368-5.225-3.984-5.623-7.309-4.779c-3.443,0.875-6.53,2.52-10.091,3.006c-2.135,0.293-2.456,2.787-2.573,4.441c1,0,2,0,3,0
			c-0.11-4.299-1.073-8.564-1.495-12.84c-0.532-5.396-0.632-10.836-1.049-16.243c-0.334-4.331-1.061-8.702-2.335-12.854
			c-0.478-1.556-1.242-3.01-2.061-4.404c-0.813-1.386-2.642-1.709-3.308-3.363C34.479,212.537,33.008,212.879,33.287,213.924
			L33.287,213.924z"/>
	</g>
</g>
<g>
	<g>
		<path d="M17.829,224.311c-0.25-0.09-0.501-0.18-0.752-0.27c-0.804-0.549-1.575,0.352-1.458,1.12
			c0.407,2.683,1.98,5.06,2.643,7.702c1.101,4.388,0.804,9.188,0.795,13.668c-0.008,3.965-0.179,7.875-0.923,11.779
			c-0.644,3.385-2.051,6.438-2.349,9.91c-0.094,1.094,1.049,1.631,1.953,1.488c1.699-0.268,2.786-1.4,4.594-1.365
			c2.697,0.053,5.09,1.045,7.714,1.4c3.504,0.477,7.188,0.822,9.922-1.752c1.833-1.727,0.127-4.336-1.106-5.725
			c-3.321-3.736-7.559-2.258-11.737-3.051c0.394,0.516,0.787,1.033,1.18,1.549c-0.012,0.137,0.938-1.945,1.18-2.674
			c0.567-1.707,0.186-3.641-0.083-5.365c-0.775-4.975-3.59-10.674-2.448-15.742c0.802-3.557,2.866,1.048,3.06,1.893
			c0.543,2.367,0.512,4.918,0.511,7.334c-0.001,3.578-0.006,7.277-0.204,10.83c-0.047,0.855,1.261,1.008,1.471,0.199
			c1.067-4.1,5.175-25.042-3.272-24.539c-5.583,0.333-5.117,6.302-4.443,10.398c0.653,3.971,1.984,7.814,2.435,11.822
			c0.272,2.42-1.221,3.652-1.42,5.844c-0.061,0.664,0.531,1.424,1.18,1.551c2.455,0.475,4.734-0.15,7.198,0.457
			c4.074,1.104,4.12,2.441,0.139,4.01c-1.844-0.025-3.756-0.242-5.521-0.768c-1.905-0.566-3.781-0.686-5.754-0.887
			c-2.468-0.25-3.228,1.186-5.415,1.605c0.651,0.496,1.302,0.99,1.953,1.486c0.206-3.869,1.774-7.406,2.286-11.227
			c0.549-4.094,0.585-8.176,0.563-12.301c-0.021-3.643-0.132-7.235-0.685-10.838c-0.091-0.592-2.067-8.479-3.205-8.379
			C18.579,225.411,18.582,224.371,17.829,224.311L17.829,224.311z"/>
	</g>
</g>
<g>
	<g>
		<path d="M22.118,194.048c1.744,0,1.744-2.704,0-2.704S20.374,194.048,22.118,194.048L22.118,194.048z"/>
	</g>
</g>
<g>
	<g>
		<path d="M25.875,194.008c1.706,0,1.706-2.646,0-2.646S24.168,194.008,25.875,194.008L25.875,194.008z"/>
	</g>
</g>
<g>
	<g>
		<path d="M123.84,151.921c10.868,5.155,22.675,11.181,34.783,12.468c13.596,1.445,25.796,8.256,39.377,9.516
			c1.029,0.095,1.215-1.535,0.24-1.777c-11.582-2.877-22.646-8.536-34.527-10.124c-6.897-0.922-13.203-2.067-19.774-4.416
			c-6.553-2.343-12.882-5.193-19.769-6.449C123.724,151.057,123.373,151.699,123.84,151.921L123.84,151.921z"/>
	</g>
</g>
<g>
	<g>
		<path d="M90.055,82.328c-1.538,15.838-1.264,31.892-1.373,47.795c-0.114,16.659-0.481,33.34-0.185,49.998c0.941,0,1.881,0,2.822,0
			c-0.094-3.514-0.293-7.015-0.512-10.524c-0.074-1.189-1.779-1.192-1.848,0c-0.202,3.509-0.385,7.01-0.463,10.524
			c-0.041,1.823,2.766,1.815,2.822,0c0.498-16.074,0.317-32.179,0.376-48.259c0.061-16.476,0.555-33.107-0.823-49.534
			C90.828,81.8,90.105,81.805,90.055,82.328L90.055,82.328z"/>
	</g>
</g>
<g>
	<g>
		<path d="M49.315,195.058c6.916,1.015,13.936-1.173,20.547-3.009c8.571-2.38,17.143-4.306,25.864-6.057
			c9.022-1.811,18.057-3.292,27.104-4.937c5.11-0.929,12.854-2.094,17.017-5.451c0.557-0.448-0.042-1.488-0.709-1.219
			c-1.793,0.724-4.179,0.906-6.084,1.414c-3.639,0.969-7.213,2.031-10.911,2.766c-8.391,1.668-16.857,2.891-25.254,4.581
			c-15.965,3.213-31.542,7.829-47.574,10.619C48.679,193.874,48.664,194.962,49.315,195.058L49.315,195.058z"/>
	</g>
</g>
<g>
	<g>
		<path d="M110.908,162.91c0.823,4.047,9.301,6.563,12.538,8.011c5.311,2.375,11.996,4.414,17.815,3.107
			c0.877-0.197,0.834-1.504,0-1.726c-5.019-1.334-10.124-1.67-15.096-3.35c-4.211-1.423-10.756-3.63-14.119-6.705
			C111.529,161.774,110.772,162.241,110.908,162.91L110.908,162.91z"/>
	</g>
</g>
<g>
	<g>
		<path d="M216.796,148.506c-3.073-0.694-6.449-1.441-6.062,2.994c0.355,4.061,9.807,4.564,12.577,4.85
			c7.586,0.782,15.524-0.936,22.874-2.635c3.985-0.921,11.1-1.943,13.026-6.195c0.368-0.813,0.089-1.728-0.817-2.008
			c-4.973-1.539-9.631-1.486-14.754-1.884c-5.859-0.456-11.693-1.362-17.553-1.728c-0.806-0.05-0.901,1.13-0.184,1.356
			c10.327,3.258,21.57,1.509,31.764,4.892c-0.272-0.669-0.545-1.339-0.817-2.008c-1.278,2.761-5.534,3.416-8.184,4.154
			c-4.229,1.178-8.548,2.062-12.883,2.74c-4.176,0.654-8.253,0.915-12.473,0.689c-2.517-0.135-4.962-0.604-7.384-1.272
			c-2.782-0.767-1.514-3.237,0.785-3.334C217.053,149.104,217.15,148.587,216.796,148.506L216.796,148.506z"/>
	</g>
</g>
<g>
	<g>
		<path d="M323.41,160.071c-0.816-0.268-1.146-1.312-2.105-1.409c-1.361-0.137-2.595-0.185-3.937,0.084
			c-2.64,0.529-4.236,3.616-4.776,5.954c-0.478,2.073,0.401,3.947,2.534,4.37c3.272,0.649,6.206-1.646,8.674-3.451
			c-0.481-0.624-0.963-1.247-1.444-1.871c-2.604,2.226-6.689,6.921-5.48,10.764c0.849,2.698,4.357,3.91,5.824,1.026
			c0.328-0.646-0.206-1.42-0.945-1.229c-3.274,0.849-1.776-3.171-1.128-4.647c0.742-1.688,1.973-3.109,3.415-4.229
			c1.087-0.845-0.308-2.544-1.444-1.871c-1.473,0.873-3.72,2.723-5.483,2.792c-2.193,0.086-1.971-2.118-0.942-3.563
			c1.24-1.742,2.728-1.908,4.743-2.123c0.564-0.061,1.418,0.873,2.051,1.015C324.021,161.922,324.434,160.408,323.41,160.071
			L323.41,160.071z"/>
	</g>
</g>
<g>
	<g>
		<path d="M319.964,179.325c-0.009-0.055-0.018-0.109-0.026-0.164c-0.179-1.093-1.944-1.05-2.158,0
			c-0.376,1.854-0.977,3.621-1.214,5.514c-0.183,1.46,0.507,4.595,2.619,3.927c0.513-0.162,0.796-0.571,0.835-1.097
			c0.042-0.558-0.283-1.009-0.429-1.527c-0.207-0.735-0.021-1.712,0.056-2.457C319.789,182.125,320.191,180.721,319.964,179.325
			L319.964,179.325z"/>
	</g>
</g>
<g>
	<g>
		<path d="M323.849,171.216c2.752,1.186,4.052,5.336,4.923,7.965c1.433,4.323,0.876,8.25,0.479,12.624
			c-0.071,0.782,1.058,1.23,1.561,0.646c4.747-5.515,0.859-20.65-6.018-23.475C323.51,168.449,322.578,170.669,323.849,171.216
			L323.849,171.216z"/>
	</g>
</g>
<g>
	<g>
		<path d="M285.75,159.27c-1.359-0.529-2.196-2.692-3.633-2.938c-1.685-0.289-3.283-0.273-4.893,0.417
			c-3.1,1.33-5.884,3.877-8.137,6.36c-1.098,1.209-2.94,4.625-0.54,5.65c2.468,1.054,4.714-0.178,6.721-1.701
			c0.467-0.354,0.218-1.168-0.42-0.996c-0.521,0.141-5.031,1.342-4.834,0.22c0.29-1.647,2.518-3.216,3.704-4.273
			c1.681-1.495,3.162-2.794,5.346-3.537c2.762-0.939,3.972,1.412,6.422,1.754C286.116,160.315,286.354,159.506,285.75,159.27
			L285.75,159.27z"/>
	</g>
</g>
<g>
	<g>
		<path d="M279.365,164.097c1.593,0,1.593-2.471,0-2.471S277.772,164.097,279.365,164.097L279.365,164.097z"/>
	</g>
</g>
<g>
	<g>
		<path d="M277.484,160.5c-3.316,0.051-6.187,0.969-8.759,3.086c-2.109,1.736-5.351,5.41-3.722,8.338
			c0.271,0.486,0.944,0.433,1.227,0c0.566-0.867,0.722-1.881,1.139-2.827c0.563-1.277,1.615-2.324,2.554-3.333
			c1.978-2.124,4.747-2.917,7.562-3.008C278.935,162.71,278.942,160.478,277.484,160.5L277.484,160.5z"/>
	</g>
</g>
<g>
	<g>
		<path d="M271.611,171.494c-2.737-0.88-5.048,2.329-5.122,4.799c-0.04,1.319,0.017,2.779,0.984,3.782
			c0.954,0.99,2.309,1.486,3.617,0.898c0.411-0.184,0.568-0.837,0.314-1.198c-0.368-0.522-0.882-0.8-1.277-1.267
			c-0.308-0.363-0.283-1.029-0.31-1.479c-0.004-0.074,0.077-1.127-0.168-0.565c0.137-0.313,0.262-0.629,0.386-0.946
			c0.109-0.282,0.495-1.492,0.862-1.436C272.577,174.342,273.294,172.035,271.611,171.494L271.611,171.494z"/>
	</g>
</g>
<g>
	<g>
		<path d="M271.828,175.258c0.037,2.768,0.602,6.244,3.331,7.667c0.913,0.476,1.823-0.468,1.371-1.371
			c-0.479-0.958-1.168-1.766-1.564-2.778c-0.438-1.118-0.495-2.333-0.511-3.518C274.433,173.566,271.806,173.564,271.828,175.258
			L271.828,175.258z"/>
	</g>
</g>
<g>
	<g>
		<path d="M253.711,146.067c-1.067,5.771-1.516,13.199-0.125,18.927c0.178,0.732,1.308,0.738,1.482,0
			c1.358-5.736,0.87-13.162-0.232-18.927C254.729,145.51,253.814,145.506,253.711,146.067L253.711,146.067z"/>
	</g>
</g>
<g>
	<g>
		<path d="M214.107,153.145c-0.521,4.945,0.715,11.543,3.9,15.483c0.5,0.618,1.581,0.106,1.544-0.64
			c-0.115-2.359-1.119-4.508-1.892-6.718c-0.945-2.701-1.636-5.5-2.101-8.322C215.413,152.062,214.188,152.383,214.107,153.145
			L214.107,153.145z"/>
	</g>
</g>
<g>
	<g>
		<path d="M335.004,133.053c0.08,0,0.08-0.124,0-0.124S334.924,133.053,335.004,133.053L335.004,133.053z"/>
	</g>
</g>
<g>
	<g>
		<path d="M341.777,130.853c-1.778-1.201-3.447-0.991-5.527-0.829c-3.42,0.267-6.497,0.128-9.764,1.224
			c-2.833,0.95-5.547,1.385-8.482,1.786c-2.098,0.287-4.295,0.609-5.76,2.262c-0.39,0.44-0.431,0.94-0.188,1.463
			c0.956,2.07,4.716,2.316,6.615,2.796c5.115,1.293,10.741,1.445,16.032,1.681c8.993,0.401,21.805,0.938,29.779-4.09
			c0.462-0.292,0.831-0.939,0.608-1.496c-1.4-3.509-7.417-3.339-10.495-4c-0.745-0.16-1.24,0.866-0.532,1.262
			c1.46,0.817,3.138,1.186,4.721,1.688c0.648,0.236,1.298,0.466,1.95,0.689c1.083,0.985,1.538,0.95,1.364-0.105
			c-1.839,0.234-1.646,0.478-3.994,1.187c-8.485,2.561-18.215,2.165-26.974,1.685c-3.522-0.193-7.737,0.035-11.116-0.964
			c-1.101-0.326-2.225-0.539-3.351-0.757c-2.834-0.549-1.169-0.802,0.747-1.351c3.122-0.894,6.313-1.371,9.455-2.355
			c2.606-0.817,5.195-0.545,7.867-0.435c1.837,0.076,4.34-0.487,6.013,0.424C341.913,133.252,342.861,131.585,341.777,130.853
			L341.777,130.853z"/>
	</g>
</g>
<g>
	<g>
		<path d="M317.01,132.74c-1.207,2.897-1.378,6.702-1.574,9.835c-0.185,2.934-1.483,6.01,0.944,8.314
			c0.484,0.46,1.196,0.111,1.245-0.516c0.204-2.605,0.353-5.193,0.604-7.798c0.279-2.909-0.018-6.499,0.957-9.236
			C319.684,131.942,317.553,131.436,317.01,132.74L317.01,132.74z"/>
	</g>
</g>
<g>
	<g>
		<path d="M357.398,134.079c3.116,0.62,2.376,6.457,2.349,8.626c-0.027,2.188-0.041,4.151,1.464,5.819
			c0.514,0.569,1.645,0.311,1.789-0.472c0.328-1.785-0.035-3.538-0.092-5.347c-0.059-1.854-0.168-3.622-0.629-5.424
			c-0.622-2.432-2.172-4.293-4.733-4.292C356.934,132.991,356.772,133.955,357.398,134.079L357.398,134.079z"/>
	</g>
</g>
<g>
	<g>
		<path d="M353.593,120.07c0.155-0.915,1.25-2.541,0.941-3.444c-0.354-1.036-1.09-1.519-2.068-1.924
			c-2.282-0.947-4.649,0.719-6.098,2.368c-1.622,1.846-2.17,4.271,0.045,5.888c1.556,1.136,4.116,1.697,5.919,0.855
			c0.596-0.277,0.574-1.261,0-1.545c-0.874-0.434-1.894-0.585-2.82-0.896c-0.517-0.173-0.976-0.37-1.434-0.667
			c-0.709-0.46-0.195-1.086,0.142-1.622c0.73-1.163,1.993-2.333,3.338-2.271c0.167,0.007,1.363,0.132,1.361,0.334
			c-0.005,0.943-0.323,1.833-0.281,2.795C352.66,120.464,353.497,120.633,353.593,120.07L353.593,120.07z"/>
	</g>
</g>
<g>
	<g>
		<path d="M280.474,112.536c-4.774-0.216-7.414,6.982-3.946,10.041c1.479,1.303,4.229,1.761,5.366-0.26
			c0.889-1.58-0.137-3.935-2.167-3.289c-0.428,0.136-0.528,0.722-0.125,0.96c0.813,0.479,0.406,1.441-0.403,1.457
			c-1.034,0.021-1.997-1.185-2.115-2.099c-0.322-2.496,1.088-4.834,3.605-5.224C281.627,113.976,281.34,112.575,280.474,112.536
			L280.474,112.536z"/>
	</g>
</g>
<g>
	<path fill-rule="evenodd" clip-rule="evenodd" fill="#FF0000" d="M127.83,157.523c-0.002-0.825-0.002-0.825-0.005-1.65
		c-2.506-0.818-5.839,1.667-6.666,4.146c-0.831,1.653-1.655,4.957-1.65,6.607c0.848,4.949,6.687,3.281,9.188,1.624
		c4.169-1.662,16.669-9.125,9.146-12.405c-5.015-2.461-10.022-1.622-14.184,2.517"/>
	<g>
		<path d="M127.942,157.716c0.765-0.364,0.805-0.697,1.042-1.524c0.182-0.631-0.214-1.306-0.84-1.48
			c-3.291-0.913-6.08,1.097-7.836,3.774c-1.483,2.261-2.933,7.078-1.734,9.663c2.642,5.698,9.526,1.991,13.417-0.06
			c3.017-1.59,11.461-6.325,9.191-10.956c-1.24-2.527-5.027-3.744-7.618-3.944c-4.488-0.346-7.917,1.233-10.57,4.783
			c-0.472,0.631,0.431,1.442,1.051,1.051c4.214-2.658,10.174-5.006,14.562-1.161c2.182,1.913-5.511,6.615-6.64,7.293
			c-2.236,1.342-4.855,2.788-7.395,3.375c-3.811,0.88-3.783-2.697-3.09-5.373c0.797-3.076,2.668-6.398,6.342-6.082
			c-0.387-0.294-0.773-0.589-1.16-0.883C126.768,156.543,127.164,158.086,127.942,157.716L127.942,157.716z"/>
	</g>
</g>
<g>
	<g>
		<path d="M38.239,219.125c-1.448,3.012-7.988,4.414-10.711,5.285c-3.805,1.218-7.672,1.738-11.245,3.681
			c-0.629,0.342-0.18,1.231,0.464,1.103c5.185-1.041,10.609-1.489,15.418-3.879c2.247-1.117,6.13-3.172,6.571-5.979
			C38.781,219.055,38.384,218.824,38.239,219.125L38.239,219.125z"/>
	</g>
</g>
</svg>
