<?xml version="1.0" encoding="utf-8"?>
<!-- Generator: Adobe Illustrator 14.0.0, SVG Export Plug-In . SVG Version: 6.00 Build 43363)  -->
<!DOCTYPE svg PUBLIC "-//W3C//DTD SVG 1.1//EN" "http://www.w3.org/Graphics/SVG/1.1/DTD/svg11.dtd">
<svg version="1.1" id="Layer_1" xmlns="http://www.w3.org/2000/svg" xmlns:xlink="http://www.w3.org/1999/xlink" x="0px" y="0px"
	 width="400px" height="400px" viewBox="0 0 400 400" enable-background="new 0 0 400 400" xml:space="preserve">
<radialGradient id="SVGID_1_" cx="291.0364" cy="140.7803" r="49.0521" gradientTransform="matrix(0.9853 0 0 -1.954 -108.6073 448.7907)" gradientUnits="userSpaceOnUse">
	<stop  offset="0" style="stop-color:#FF0000;stop-opacity:0.95"/>
	<stop  offset="0.3636" style="stop-color:#FF0000;stop-opacity:0.6512"/>
	<stop  offset="0.9758" style="stop-color:#FF0000;stop-opacity:0"/>
</radialGradient>
<ellipse opacity="0.46" fill="url(#SVGID_1_)" enable-background="new    " cx="178.151" cy="173.705" rx="37.65" ry="113.131"/>
<g>
	<g>
		<path d="M173.706,199.577c-3.077,1.672-5.16,5.586-0.794,6.979c3.979,1.271,8.275,0.56,12.39,0.521
			c2.797-0.026,6.918,1.493,9.439-0.604c1.934-1.608,3.382-2.084,3.688-4.548c0.343-2.753-1.345-4.297-3.411-5.815
			c-6.516-4.786-16.094-1.367-21.446,3.496c-0.379,0.344,0.016,1.021,0.501,0.861c3.799-1.248,7.228-3.297,11.12-4.253
			c4.664-1.146,14.792,2.793,9.336,7.97c-3.367,3.196-10.438,2.389-14.727,2.246c-2.631-0.087-4.998-0.438-7.338-1.703
			c-1.499-0.813,1.29-3.716,1.866-4.525C174.612,199.808,174.081,199.373,173.706,199.577z"/>
	</g>
</g>
<g>
	<g>
		<path d="M190.067,154.396c2.393,7.755,2.374,15.446,2.317,23.532c-0.008,1.097-0.002,1.995,0.095,3.053
			c0.257,2.813-1.646,1.464-3.242,0.738c-1.599-0.728-2.418-1.6-4.126-1.249c-0.311,0.064-0.476,0.481-0.302,0.743
			c1.422,2.143,9.377,6.723,9.704,1.579c0.28-4.412-0.048-9.114-0.288-13.529c-0.127-2.324-0.474-4.755-0.795-7.059
			c-0.415-2.98-2.026-5.098-2.988-7.912C190.362,154.058,189.993,154.155,190.067,154.396L190.067,154.396z"/>
	</g>
</g>
<g>
	<g>
		<path d="M153.404,158.966c1.122-2.896,3.888-5.263,6.083-7.381c2.47-2.381,5.036-4.103,8.264-5.267
			c4.136-1.491,7.602-0.538,11.456,1.141c0.368,0.161,0.847-0.312,0.472-0.611c-2.038-1.624-4.899-4.164-7.784-3.522
			c-4.391,0.977-7.838,1.9-11.503,4.637c-2.257,1.685-9.407,7.706-7.555,11.078C152.976,159.297,153.313,159.202,153.404,158.966
			L153.404,158.966z"/>
	</g>
</g>
<g>
	<g>
		<path d="M196.877,145.858c8.535-2.478,16.865,3.127,19.414,11.291c0.146,0.463,0.828,0.374,0.842-0.114
			c0.271-9.501-12.623-17.661-20.436-11.486C196.547,145.667,196.71,145.906,196.877,145.858L196.877,145.858z"/>
	</g>
</g>
<g>
	<g>
		<path d="M174.84,205.477c1.855-1.744,7.657-8.464,10.874-5.719c2.466,2.104,2.941,5.488,5.09,7.768
			c0.262,0.277,0.771,0.145,0.861-0.229c0.813-3.344-2.575-9.78-6.337-10.326c-5.156-0.749-8.533,4.532-10.87,8.21
			C174.306,205.421,174.644,205.66,174.84,205.477L174.84,205.477z"/>
	</g>
</g>
<g>
	<g>
		<path d="M171.473,167.47c2.561,0,2.561-3.969,0-3.969C168.913,163.501,168.914,167.47,171.473,167.47L171.473,167.47z"/>
	</g>
</g>
<g>
	<g>
		<path d="M206.221,164.72c0.764,0,1.4-0.637,1.4-1.401c0-0.764-0.638-1.401-1.4-1.401s-1.4,0.637-1.4,1.401
			C204.821,164.083,205.457,164.72,206.221,164.72L206.221,164.72z"/>
	</g>
</g>
<g>
	<g>
		<path d="M163.986,173.532c0.354-2.981,3.821-4.723,6.308-5.913c4.131-1.978,4.285,2.114,6.669,4.201
			c0.137,0.12,0.428,0.007,0.342-0.199c-0.719-1.711-1.391-3.391-2.572-4.841c-1.282-1.572-3.324-0.855-5.018-0.536
			c-2.594,0.489-9.158,4.309-6.31,7.528C163.624,174.02,163.954,173.797,163.986,173.532L163.986,173.532z"/>
	</g>
</g>
<g>
	<g>
		<path d="M199.239,170.564c0.64-0.992,0.834-2.11,1.593-3.076c0.794-1.013,2.08-1.867,3.304-2.229
			c3.627-1.072,3.377,2.919,5.691,3.865c0.17,0.069,0.434-0.008,0.549-0.145c1.903-2.238-2.043-5.193-4.154-5.155
			c-1.518,0.028-3.377,1.116-4.518,2.054c-0.644,0.529-1.184,1.078-1.683,1.74c-0.645,0.854-0.67,1.802-1.22,2.692
			C198.629,170.588,199.063,170.837,199.239,170.564L199.239,170.564z"/>
	</g>
</g>
<g>
	<g>
		<path d="M174.533,160.157c-1.405-3.33-6.638-2.01-8.847-0.169c-1.966,1.639-2.635,3.118-3.123,5.596
			c-0.57,2.903-1.115,6.051-0.537,8.977c0.074,0.375,0.644,0.351,0.732,0c0.848-3.348,1.014-6.786,1.629-10.178
			c0.34-1.874,2.032-3.038,3.576-3.902c2.183-1.222,4.063-0.797,6.257-0.013C174.39,160.529,174.606,160.333,174.533,160.157
			L174.533,160.157z"/>
	</g>
</g>
<g>
	<g>
		<path d="M211.152,172.775c-0.09-0.133,0.367-2.079,0.396-2.306c0.145-1.175,0.021-2.417,0.006-3.598
			c-0.021-1.633-0.342-3.173-0.514-4.79c-0.123-1.165-0.867-2.037-1.271-3.124c-0.049-0.131-0.229-0.079-0.207,0.057
			c0.063,0.386,0.471,1.768,0.488,1.896c0.197,1.295-0.127,2.397-0.252,3.667c-0.135,1.382-0.211,2.778-0.301,4.165
			c-0.066,1.012-0.197,4.222,1.348,4.433C211.055,173.204,211.303,172.999,211.152,172.775L211.152,172.775z"/>
	</g>
</g>
<g>
	<g>
		<path d="M209.705,158.836c-1.041-0.265-1.652-0.922-2.711-1.14c-0.861-0.177-1.525-0.247-2.396-0.069
			c-1.645,0.336-3.18,1.491-3.557,3.17c-0.043,0.192,0.215,0.308,0.319,0.135c0.992-1.635,2.177-2.889,4.23-2.913
			c1.502-0.018,2.637,0.868,4.029,1.117C209.818,159.171,209.902,158.886,209.705,158.836L209.705,158.836z"/>
	</g>
</g>
<g>
	<g>
		<path d="M214.76,167.755c-1.049,8.747,0.707,17.541,0.129,26.337c-0.359,5.499-2.08,10.606-4.994,15.262
			c-2.711,4.332-6.42,5.082-10.312,7.737c-1.834,1.251-2.619,3.795-3.729,5.603c-3.781,6.154-10.848,5.172-16.762,3.336
			c-3.978-1.234-7.933-2.7-12.072-3.418c-5.528-0.959-10.187-3.979-13.375-8.666c-0.521-0.768-1.938-0.307-1.582,0.666
			c1.592,4.322,4.741,6.597,8.497,8.98c2.188,1.389,4.867,1.402,7.333,1.787c2.953,0.46,5.368,1.953,8.271,2.536
			c9.297,1.867,17.268,3.437,22.425-6.163c2.205-4.104,6.223-4.523,9.609-7.337c3.617-3.001,5.779-8.203,7.13-12.562
			c3.299-10.667,1.596-23.35,0.084-34.188C215.354,167.266,214.799,167.42,214.76,167.755L214.76,167.755z"/>
	</g>
</g>
<g>
	<g>
		<path d="M205.912,215.002c1.928,2.134,3.657,4.835,5.116,7.309c1.755,2.973,1.07,8.269,1.354,11.672
			c0.229,2.752,1.328,5.072,1.258,7.908c-0.061,2.424,0.576,5.031,1.072,7.383c2.188,10.383,4.697,22.127,11.244,30.746
			c0.303,0.397,1.006,0.188,0.854-0.359c-1.666-5.977-4.897-11.303-6.375-17.35c-1.647-6.752-3.879-13.486-4.619-20.42
			c-0.289-2.705-1.024-5.223-1.358-7.908c-0.377-3.041-0.002-6.157-0.529-9.184c-0.66-3.789-3.631-9.369-7.447-10.771
			C205.895,213.811,205.551,214.602,205.912,215.002L205.912,215.002z"/>
	</g>
</g>
<g>
	<g>
		<path d="M200.52,218.715c0.585,4.768,0.561,13.391-5.883,14.073c-5.202,0.551-11.132-0.124-16.033-1.763
			c-4.879-1.631-9.104-4.883-13.943-6.676c-3.188-1.181-7.221-4.359-10.825-3.26c-4.646,1.418,1.639,7.916,3.19,9.076
			c4.013,2.998,8.105,5.417,12.577,7.663c5.226,2.624,9.892,6.112,15.014,8.84c0.845,0.449,1.667-0.612,1.014-1.313
			c-6.261-6.729-16.118-9.334-23.646-14.323c-1.885-1.25-3.833-2.617-5.533-4.105c-0.57-0.588-1.041-1.243-1.412-1.97
			c1.013-0.364,2.024-0.729,3.038-1.093c0.837,0.472,1.695,0.899,2.576,1.284c4.635,2.158,9.41,3.938,14.027,6.218
			c3.386,1.671,6.934,2.507,10.667,2.911c2.732,0.297,8.425,1.019,10.971-0.193c6.164-2.934,6.486-9.568,4.949-15.47
			C201.16,218.21,200.466,218.283,200.52,218.715L200.52,218.715z"/>
	</g>
</g>
<g>
	<g>
		<path d="M153.319,227.909c1.1-3.427-4.529-2.148-6.09-1.642c-1.368,0.444-2.146,0.994-2.68,2.31
			c-0.918,2.259,1.364,3.61,2.198,5.288c1.47,2.957,4.155,3.834,6.335,6.208c2.397,2.612,5.375,3.974,8.643,5.229
			c2.713,1.045,5.772,1.674,8.212,3.314c1.938,1.302,3.66,2.783,5.694,3.955c2.44,1.406,4.294,0.549,6.415-0.664
			c0.487-0.279,0.439-1.153-0.165-1.264c-1.94-0.35-4.45-0.535-6.104-1.457c-2.069-1.153-3.883-2.787-5.867-4.08
			c-4.305-2.806-9.995-2.346-14.182-5.813c-2.094-1.733-5.867-4.134-7.288-6.42c-0.538-0.868-3.27-3.688-1.131-4.563
			c1.131-0.463,4.413-1.771,5.21-0.299C152.708,228.361,153.208,228.255,153.319,227.909L153.319,227.909z"/>
	</g>
</g>
<g>
	<g>
		<path d="M152.246,237.175c-0.841-1.573-2.635-0.881-3.439,0.495c-1.844,3.146-1.473,6.994,1.038,9.498
			c1.685,1.682,4.236,2.697,6.306,3.771c3.404,1.768,6.358,4.027,9.372,6.379c2.226,1.733,4.702,2.826,7.201,4.093
			c3.289,1.665,7.415,1.95,10.287,4.288c0.452,0.369,1.038-0.08,0.794-0.612c-1.066-2.329-2.13-3.112-4.498-3.951
			c-4.33-1.534-8.516-3.026-12.316-5.718c-3.23-2.285-6.143-4.615-9.666-6.484c-1.733-0.92-3.489-1.725-5.177-2.732
			c-2.184-1.85-2.914-4.031-2.192-6.547c0.222-1.6,0.874-2.338,1.956-2.219C152.083,237.615,152.358,237.386,152.246,237.175
			L152.246,237.175z"/>
	</g>
</g>
<g>
	<g>
		<path d="M152.151,249.158c-0.54,2.623-1.067,5.197-0.888,7.886c0.179,2.663,2.001,3.761,3.72,5.421
			c5.648,5.459,13.604,7.65,19.4,13.008c4.281,3.955,8.396,11.258,15.163,9.77c2.113-0.465,7.524-1.656,9.215,0.668
			c1.771,2.438,3.786,5.705,6.208,7.601c0.438,0.345,1.338,0.201,1.262-0.522c-0.401-3.776-3.297-8.383-6.581-10.332
			c-1.673-0.993-4.394-1.276-6.315-1.182c-1.083,0.055-2.213,0.36-3.271,0.57c-3.937,0.783-5.996-1.212-8.552-3.738
			c-5.62-5.556-10.909-9.832-18.08-13.248c-2.506-1.195-5.531-3.158-7.628-5.021c-3.832-3.407-2.466-6.459-2.983-10.786
			C152.778,248.898,152.235,248.75,152.151,249.158L152.151,249.158z"/>
	</g>
</g>
<g>
	<g>
		<path d="M149.347,258.204c-2.246,3.024-1.697,5.935-0.909,9.694c0.628,2.996,1.729,5.828,2.84,8.668
			c1.623,4.15-1.804,6.406-4.277,9.343c-1.146,1.358-10.214,11.442-5.572,12.341c0.607,0.117,1.001-0.343,0.922-0.922
			c-0.324-2.364,3.643-6.196,4.938-7.788c2.232-2.739,5.351-5.278,7.116-8.293c1.719-2.935-1.447-6.834-2.479-9.409
			c-1.41-3.523-4.073-9.773-2.158-13.388C149.917,258.167,149.531,257.957,149.347,258.204L149.347,258.204z"/>
	</g>
</g>
<g>
	<g>
		<path d="M185.169,283.434c-2.901,6.391-6.153,11.68-11.585,16.357c-2.978,2.563-9.438,6.911-9.031,11.455
			c0.07,0.789,0.873,1.098,1.478,0.611c2.035-1.633,3.451-4.127,5.104-6.142c2.594-3.159,6.258-5.358,8.955-8.5
			c3.022-3.521,7.838-8.963,5.648-13.782C185.642,283.217,185.267,283.217,185.169,283.434L185.169,283.434z"/>
	</g>
</g>
<g>
	<g>
		<path d="M139.54,159.632c-3.244-0.315-6.643-0.071-8.688,2.917c-1.419,2.073-2.855,5.551-1.202,7.986
			c2.346,3.452,3.22,8.186,6.585,10.799c1.601,1.241,2.65,1.157,3.836,3.18c0.556,0.947,1.114,1.866,2.111,2.344
			c0.542,0.261,1.395,0.208,1.673-0.438c0.068-0.158,0.139-0.316,0.206-0.475c0.271-0.629-0.046-1.282-0.765-1.332
			c-0.293-0.02-1.257-2.282-1.401-2.528c-0.915-1.562-2.563-2.011-4.102-2.771c-2.107-1.041-3.685-5.313-4.87-7.239
			c-1.597-2.593-2.74-4.45-1.334-7.544c1.422-3.128,4.979-3.973,7.951-4.335C139.899,160.153,139.906,159.668,139.54,159.632
			L139.54,159.632z"/>
	</g>
</g>
<g>
	<g>
		<path d="M138.181,166.517c-0.061-0.773-0.617-1.734-1.564-1.473c-1.129,0.311-1.331,2.188-1.591,3.104
			c-0.799,2.819-0.236,6.661,3.572,5.684c-0.438-0.179-0.879-0.357-1.318-0.536c0.836,1.724-0.364,4.791,2.261,5.121
			c0.302,0.038,0.687-0.257,0.73-0.557c0.156-1.041-0.294-1.929-0.356-2.986c-0.063-1.003-0.176-1.851-0.618-2.756
			c-0.164-0.335-0.632-0.614-1.008-0.578c-1.778,0.171-1.432-1.53-1.228-2.831c0.073-0.471,0.127-0.944,0.198-1.414
			c0.052-0.343,0.21-1.924,0.299-0.778C137.589,166.915,138.212,166.917,138.181,166.517L138.181,166.517z"/>
	</g>
</g>
<g>
	<g>
		<path d="M131.618,160.741c-0.116,1.537-5.872-4.97-3.635-2.056c-2.874-3.741,0.68-5.25,2.669-6.417
			c1.185-0.693,1.586-1.401,1.575-2.668c-0.003-0.301-0.192-0.49-0.455-0.597c-4.936-2.018-6.61-5.449-4.508-10.423
			c0.648-1.532,1.481-3.038,1.015-4.735c-0.273-1-3.539-4.086-1.826-4.896c1.892-0.895,3.674-1.36,5.151-2.869
			c0.242-0.246,0.202-0.578,0-0.828c-2.771-3.445-4.862-6.503-2.627-11.067c1.577-3.22,3.446-5.63,6.969-6.899
			c0.515-0.185,0.67-1.104,0-1.2c-4.701-0.676-5.223,2.202-8.016,5.208c-2.064,2.223-3.684,6.252-2.002,9.079
			c0.861,1.449,1.481,3.071,2.899,4.085c2.317,1.659-4.407,3.177-4.612,3.382c-2.856,2.856,2.547,5.688,1.92,8.548
			c-1.1,5.02-3.152,6.193,0.247,10.567c0.661,0.851,1.955,2.051,2.968,2.438c2.076,0.795-1.042,1.242-2.011,2.062
			c-4.518,3.828-1.076,13.947,4.907,10.075c0.124-0.08,0.229-0.223,0.218-0.379c-0.01-0.137-0.021-0.274-0.031-0.412
			C132.395,160.215,131.657,160.215,131.618,160.741L131.618,160.741z"/>
	</g>
</g>
<g>
	<g>
		<path d="M135.261,107.301c1.092-4.259,3.738-6.941,7.923-8.513c4.484-1.685,7.732-0.244,11.994,0.866
			c0.66,0.172,1.39-0.602,0.945-1.229c-2.913-4.102-9.389-3.355-13.605-2.052c-2.723,0.841-4.758,2.54-6.731,4.529
			c-2.107,2.123-1.563,3.168-1.987,5.995C133.657,107.839,135.012,108.271,135.261,107.301L135.261,107.301z"/>
	</g>
</g>
<g>
	<g>
		<path d="M151.836,97.801c4.077-4.287,10.684-6.702,16.41-7.686c3.713-0.638,6.859,1.099,8.694,4.272
			c0.711,1.229,1.182,2.032,2.533,2.471c0.399,0.129,0.838-0.382,0.571-0.743c-3.627-4.92-5.282-9.493-12.446-8.343
			c-4.048,0.65-17.347,3.911-16.219,9.909C151.419,97.884,151.704,97.942,151.836,97.801L151.836,97.801z"/>
	</g>
</g>
<g>
	<g>
		<path d="M182.798,94.707c2.447-4.168,7.677-6.006,11.702-2.841c2.08,1.637,4.185,3.817,6.53,4.992
			c0.41,0.205,0.802-0.054,0.851-0.487c0.205-1.843-1.081-2.95-2.535-3.96c-2.592-1.801-4.688-4.023-7.813-4.834
			c-3.814-0.99-10.096,2.565-10.209,6.731C181.301,95.105,182.407,95.374,182.798,94.707L182.798,94.707z"/>
	</g>
</g>
<g>
	<g>
		<path d="M205.49,95.246c1.17,0.127,2.02,0.064,3,0.835c0.989,0.777,2.198,1.901,2.6,3.111c0.688,2.082-0.342,4.479,2.188,5.535
			c0.402,0.167,0.74-0.306,0.658-0.658c-0.33-1.432,0.104-2.88-0.102-4.335c-0.238-1.681-0.938-2.779-2.201-3.859
			c-0.867-0.742-1.902-1.542-3.006-1.882c-1.224-0.376-2.045-0.076-3.275,0.222C204.734,94.363,204.938,95.185,205.49,95.246
			L205.49,95.246z"/>
	</g>
</g>
<g>
	<g>
		<path d="M149.858,178.367c-5.216,6.319-3.692,15.61-1.604,22.966c2.472,8.703,9.791,11.373,18.001,11.866
			c0.573,0.033,0.569-0.73,0.124-0.917c-2.196-0.921-4.384-1.612-6.674-2.259c-4.878-1.375-7.59-4.662-9.304-9.283
			c-1.149-3.105-1.148-6.491-1.773-9.713c-0.438-2.253-0.087-10.373,1.49-12.46C150.231,178.417,149.977,178.222,149.858,178.367
			L149.858,178.367z"/>
	</g>
</g>
<g>
	<g>
		<path d="M155.471,178.643c1.133,0.404,4.141-1.789,4.967-2.293c2.223-1.355,4.504-2.578,6.754-3.88
			c0.197-0.114,0.065-0.446-0.157-0.373c-2.765,0.903-5.428,2.185-8.101,3.327c-1.297,0.554-3.848,1.453-4.555,2.813
			c-0.14,0.269-0.108,0.571,0.103,0.793c0.061,0.063,0.12,0.125,0.181,0.188c0.131,0.138,0.39,0.187,0.551,0.071
			c0.086-0.047,0.172-0.093,0.259-0.14C155.72,179.061,155.72,178.732,155.471,178.643L155.471,178.643z"/>
	</g>
</g>
<g>
	<g>
		<path d="M206.742,172.164c0.813-0.052,1.618,1.241,2.075,1.783c0.595,0.706,1.076,1.338,2,1.593
			c0.275,0.076,0.525-0.183,0.455-0.455c-0.271-1.045-0.953-1.782-1.867-2.578c-0.725-0.632-1.834-1.3-2.807-0.869
			C206.344,171.752,206.473,172.181,206.742,172.164L206.742,172.164z"/>
	</g>
</g>
<g>
	<g>
		<path d="M211.334,113.366c0.102,0,0.102-0.155,0-0.155C211.234,113.211,211.234,113.366,211.334,113.366L211.334,113.366z"/>
	</g>
</g>
<g>
	<g>
		<path d="M205.729,109.754c5.188,5.808,5.615,12.14,6.711,19.476c1.054,7.06,2.631,13.615,2.748,20.783
			c0.006,0.365,0.527,0.434,0.631,0.085c2.281-7.645-1.153-15.138-2.03-22.779c-0.834-7.287-2.332-12.719-7.701-17.922
			C205.852,109.168,205.514,109.512,205.729,109.754L205.729,109.754z"/>
	</g>
</g>
<g>
	<g>
		<path d="M211.424,102.057c-1.615,3.959-4.412,6.348-8.746,4.875c-2.546-0.865-4.984-2.268-7.46-3.309
			c-2.596-1.092-4.121-3.055-6.948-2.88c-2.835,0.174-2.791-1.346-4.9-1.362c-0.283-0.002-0.408,0.407-0.147,0.544
			c0.418,0.22,1.563,1.16,2.122,1.394c2.109,0.883,4.438,0.653,6.512,1.736c3.46,1.808,6.715,4.165,10.324,5.685
			c6.404,2.697,8.35-0.729,9.902-6.501C212.197,101.802,211.584,101.661,211.424,102.057L211.424,102.057z"/>
	</g>
</g>
<g>
	<g>
		<path d="M181.773,98.987c-1.823-0.716-3.028,0.615-4.454,1.572c-0.808,0.543-1.508,1.408-2.219,2.078
			c-0.534,0.502-0.835,1.452-1.416,1.844c-0.132,0.088-0.09,0.309,0.083,0.308c1.009-0.007,1.62-1.081,2.241-1.724
			c1.249-1.292,3.545-4.305,5.614-3.534C181.966,99.659,182.106,99.118,181.773,98.987L181.773,98.987z"/>
	</g>
</g>
<g>
	<g>
		<path d="M158.323,108.152c-1.938,0.083-4.109,0.985-5.14,2.742c-1.396,2.385,1.539,2.264-0.972,3.419
			c-1.342,0.617-3.125,2.479-4.433,3.439c-0.641,0.47-0.548,1.188-0.628,1.931c0.001,0.189,0.049,0.366,0.145,0.529
			c1.134,2.186,0.134,4.637-0.368,6.84c-0.358,1.573-0.604,3.112-0.521,4.714c0.033,0.616,0.477,1.406,1.012,1.72
			c0.979,0.573-1.851,4.078-2.229,4.735c-1.646,2.853-1.414,5.654-0.122,8.515c1.23,2.726,1.301,4.505-0.602,6.897
			c-0.505,0.634-0.49,1.495-0.277,2.267c0.363,1.322,1.54,2.354,2.453,3.286c0.837,0.855,1.867,3.697,2.69,4.94
			c0.588,0.887,2.211,0.34,1.804-0.76c-0.606-1.64-0.729-3.847-1.899-5.213c-2.422-2.826-1.048-4.049-0.333-7.022
			c0.568-2.361-0.997-3.599-2.158-5.374c-3.074-4.691,1.855-8.091,3.278-12.006c0.105-0.289-0.011-0.688-0.234-0.891
			c-2.947-2.664,0.147-8.628-0.029-12.144c-0.097-1.93,0.232-2.026,1.982-2.835c1.255-0.581,1.813-2.434,3.199-3.125
			c0.31-0.154,0.407-0.528,0.343-0.84c-0.521-2.484,0.665-4.481,3.089-5.4C158.556,108.446,158.544,108.143,158.323,108.152
			L158.323,108.152z"/>
	</g>
</g>
<g>
	<g>
		<path d="M144.548,164.917c0.399,0.04,0.792,0.19,1.173,0.311c0.484,0.153,0.889,0.17,1.382,0.053
			c0.683-0.163,0.899-1.268,0.206-1.577c-0.84-0.375-1.834-0.567-2.761-0.538C143.401,163.203,143.443,164.807,144.548,164.917
			L144.548,164.917z"/>
	</g>
</g>
<g>
	<g>
		<path d="M215.695,191.327c0.906-2.333,7.586-3.29,9.798-4.005c4.643-1.502,13.516-4.995,17.553-1.558
			c8.785,7.476,9.738,20.466,16.137,29.582c3.508,4.996,7.461,9.68,11.164,14.527c3.162,4.138,3.225,9.706,6.365,13.889
			c4.375,5.826,18.129,12.567,14.506,21.863c-0.205,0.523,0.619,0.84,0.889,0.374c4.562-7.877-5.629-17.354-11.117-21.694
			c-5.413-4.279-5.629-12.101-9.811-17.474c-5.387-6.923-11.641-13.584-14.859-21.845c-3.227-8.277-7.844-24.378-19.354-22.625
			c-5.078,0.774-10.443,3.28-15.279,5.093c-1.805,0.676-5.727,1.665-6.363,3.769C215.246,191.468,215.607,191.555,215.695,191.327
			L215.695,191.327z"/>
	</g>
</g>
<g>
	<g>
		<path d="M143.973,195.781c-3.117-1.864-6.639-1.497-10.229-1.864c-6.182-0.633-12.173-1.993-18.414-2.226
			c-0.673-0.025-1.233,0.581-1.234,1.234c0,0.572-4.192,1.547-5.063,1.993c-2.464,1.26-4.619,2.854-6.722,4.652
			c-4.25,3.638-6.293,8.583-8.804,13.467c-6.582,12.808-14.579,24.811-21.738,37.288c-6.778,11.813-10.412,25.139-16.979,37.071
			c-4.839,8.793-12.066,16.125-8.565,26.813c0.273,0.834,1.439,0.486,1.294-0.357c-2.022-11.791,6.905-20.137,11.851-29.945
			c5.33-10.573,8.771-21.969,14.408-32.407c5.941-11.001,12.932-21.425,18.947-32.394c2.519-4.588,4.438-9.797,7.635-13.959
			c1.964-2.556,4.53-4.545,7.094-6.476c2.565-1.933,5.776-2.314,8.499-3.855c0.377-0.214,0.611-0.636,0.611-1.066
			c-0.001-0.275-0.001-0.55-0.001-0.825c-0.411,0.412-0.822,0.823-1.233,1.234c5.491,0.197,10.944,1.12,16.379,1.874
			c3.496,0.484,8.664-0.593,11.867,0.69C144.133,196.947,144.459,196.072,143.973,195.781L143.973,195.781z"/>
	</g>
</g>
<g>
	<g>
		<path d="M144.93,198.438c-2.521,3.287-7.165,5.791-10.207,8.669c-2.008,1.899-4.33,3.359-6.27,5.322
			c-1.272,1.287-3.689,4.954-5.61,4.906c-0.701-0.018-1.09,0.553-1.172,1.172c-0.269,0.879-0.534,1.758-0.802,2.637
			c-0.336,0.57-0.182,1.508,0.473,1.805c7.778,3.531,12.954,11.766,22.371,11.145c0.646-0.043,1.096-1.05,0.368-1.359
			c-3.974-1.693-7.925-3.096-11.539-5.514c-3.398-2.275-6.357-5.125-10.185-6.682c0.264,0.646,0.525,1.291,0.788,1.938
			c0.738-1.356,0.98-2.425,0.868-3.968c-0.391,0.392-0.781,0.781-1.172,1.173c3.739-0.094,6.819-5.816,9.448-7.98
			c2.571-2.115,4.836-4.52,7.271-6.781c2.039-1.896,4.983-3.426,6.274-5.951C146.154,198.349,145.333,197.911,144.93,198.438
			L144.93,198.438z"/>
	</g>
</g>
<g>
	<g>
		<path d="M214.965,191.818c1.93,2.059,4.559,3.14,6.951,4.586c3.395,2.054,6.598,4.219,9.752,6.622
			c2.879,2.192,5.924,4.08,9.026,5.937c2.543,1.519,6.332,0.853,7.699,4.14c0.213-0.522,0.426-1.047,0.64-1.568
			c-5.41,2.357-10.451,5.191-14.957,9.021c-3.675,3.12-10.224,5.297-12.076,10.051c-0.414,1.063,1.053,1.68,1.771,1.031
			c3.392-3.059,7.795-4.953,11.078-8.025c4.555-4.266,9.908-7.193,15.586-9.68c0.512-0.225,0.857-1.051,0.64-1.568
			c-0.787-1.873-1.859-2.961-3.644-3.975c-3.211-1.828-6.777-2.6-10.01-4.611c-3.49-2.172-6.353-4.941-9.928-6.951
			c-3.845-2.16-7.701-4.158-11.599-6.214C215.121,190.203,214.361,191.173,214.965,191.818L214.965,191.818z"/>
	</g>
</g>
<g>
	<g>
		<path d="M175.113,134.492c3.314-1.858,3.944-0.985,6.711,0.726c1.217,0.753,3.353,0.862,4.689,0.494
			c1.826-0.502,1.533-1.346,2.64-2.62c2.23-2.565,5.904-2.817,8.782-4.25c0.271-0.134,0.177-0.525-0.079-0.604
			c-2.84-0.883-5.42,0.412-7.976,1.751c-1.17,0.612-2.052,1.586-2.912,2.554c-1.876,2.11-5.148-0.201-7.01-1.228
			c-0.263-0.145-0.646-0.185-0.904,0c-1.368,0.982-2.669,1.985-4.129,2.857C174.721,134.295,174.904,134.609,175.113,134.492
			L175.113,134.492z"/>
	</g>
</g>
<g>
	<g>
		<path d="M228.83,267.135c1.996,3.553,1.44,7.676,1.237,11.569c-0.266,5.071-3.127,8.465-6.317,12.136
			c-4.92,5.662-11.666,9.773-18.187,13.32c-0.631,0.343-0.297,1.227,0.345,1.27c4.495,0.299,7.895-2.951,11.313-5.475
			c3.516-2.591,6.758-5.293,9.402-8.823c5.047-6.735,7.819-16.635,2.69-24.282C229.117,266.55,228.65,266.814,228.83,267.135
			L228.83,267.135z"/>
	</g>
</g>
<g>
	<g>
		<path d="M224.064,267.305c2.597-0.123,5.761,3.48,7.517,4.998c2.354,2.034,4.596,4.233,7.133,6.047
			c4.479,3.202,8.662,6.652,12.834,10.24c3.531,3.037,7.09,6.566,11.82,7.389c0.418,0.073,0.896-0.357,0.604-0.785
			c-3.113-4.558-8.34-7.723-12.543-11.237c-4.086-3.417-8.488-6.283-12.684-9.528c-3.291-2.545-10.15-10.453-14.838-7.703
			C223.648,266.875,223.748,267.318,224.064,267.305L224.064,267.305z"/>
	</g>
</g>
<g>
	<g>
		<path d="M255.055,291.216c0.826-1.978,7.951-0.548,9.709-0.483c4.387,0.16,8.754,0.541,13.146,0.586
			c4.325,0.047,7.477,1.345,8.413,5.906c0.521,2.529,0.912,5.01,2.201,7.287c0.343,0.602,1.183,0.418,1.388-0.181
			c0.987-2.878-0.496-6.069-1.091-8.983c-0.602-2.964-2.454-5.328-5.465-6.191c-4.135-1.186-8.699-0.742-12.959-0.938
			c-4.987-0.229-11.098-1.371-15.932,0.049c-0.492,0.146-0.951,0.752-0.729,1.283c0.232,0.555,0.466,1.11,0.697,1.665
			C254.563,291.52,254.928,291.52,255.055,291.216L255.055,291.216z"/>
	</g>
</g>
<g>
	<g>
		<path d="M273.527,286.732c0.785,0.061,1.363,0.158,2.146,0.026c0.881-0.147,1.766-0.51,2.588-0.846
			c0.57-0.231,1.096-0.574,1.596-0.929c0.218-0.151,0.343-0.33,0.531-0.504c-0.557,0.515-0.652-0.024-0.35,0.681
			c0.164,0.383,0.688,0.209,0.799-0.104c0.397-1.115,0.002-2.421-1.381-2.348c-2.25,0.118-3.925,2.511-6.074,2.936
			C272.73,285.771,272.939,286.688,273.527,286.732L273.527,286.732z"/>
	</g>
</g>
<g>
	<g>
		<path d="M290.486,255.391c2.98,8.77,10.746,15.85,16.162,23.146c2.975,4.005,5.283,8.618,7.059,13.271
			c0.968,2.532,1.462,5.186,1.443,7.892c-0.012,1.618-0.625,4.407,0.184,5.864c0.623,1.123,0.298,2.611,0.816,3.771
			c1.082,2.414,2.41,4.215,2.656,6.989c0.494,5.597-3.631,12.048-8.496,14.314c-8.99,4.191-18.471,3.973-25.223,12.146
			c-0.349,0.419,0.078,0.99,0.576,0.748c5.52-2.684,10.385-5.438,16.411-6.967c4.17-1.057,9.16-2.114,12.638-4.832
			c6.188-4.842,9.573-14.885,5.375-21.94c-2.216-3.722-1.255-8.205-1.845-12.271c-0.77-5.299-2.908-9.944-5.446-14.608
			c-5.636-10.349-15.123-17.957-21.226-27.981C291.23,254.373,290.266,254.736,290.486,255.391L290.486,255.391z"/>
	</g>
</g>
<g>
	<g>
		<path d="M198.523,291.613c-0.381,1.259-1.301,2.369-1.641,3.604c-0.304,1.105,0.217,2.419-0.308,3.488
			c-0.739,1.51-1.685,3.699-0.673,5.235c2.674,4.056,10.115,3.307,13.938,2.063c0.613-0.199,0.647-1.092,0-1.275
			c-1.801-0.51-3.535-0.434-5.394-0.342c-1.262,0.061-7.169,0.096-6.718-2.611c0.316-1.897,1.061-3.034,1.008-4.998
			c-0.047-1.754,0.91-3.231,0.8-5.027C199.5,291.175,198.696,291.041,198.523,291.613L198.523,291.613z"/>
	</g>
</g>
<g>
	<g>
		<path d="M193.469,307.146c2.473,2.057,4.546,5.094,6.933,7.388c3.575,3.437,7.045,6.919,10.802,10.167
			c6.7,5.791,14.08,10.211,21.278,15.279c1.847,1.302,3.511,2.734,5.109,4.318c0.822,0.814,1.395,2.334,2.422,2.936
			c2.076,1.218,6.334,0.271,8.463-0.106c4.344-0.771,8.543-2.185,12.808-3.3c4.719-1.234,9.924-2.688,14.04-5.346
			c0.845-0.545,0.591-2.092-0.545-2.012c-3.838,0.271-7.448,1.702-11.104,2.854c-4.283,1.35-8.676,2.479-13.021,3.615
			c-1.948,0.51-3.92,0.731-5.928,0.805c-2.104,0.074-2.291,0.018-3.67-1.346c-2.49-2.459-5.088-4.563-7.957-6.575
			c-7.541-5.29-15.104-10.034-22.156-16.064c-3.182-2.721-6.155-5.685-9.369-8.362c-2.32-1.938-4.492-4.09-7.174-5.455
			C193.661,305.564,192.765,306.563,193.469,307.146L193.469,307.146z"/>
	</g>
</g>
<g>
	<g>
		<path d="M263.051,346.217c0.021-0.205,0.043-0.412,0.066-0.619c-0.628,0.479-1.255,0.955-1.882,1.433
			c12.015,2.771,26.726,1.751,35.326-8.364c0.527-0.62-0.121-1.438-0.85-1.1c-5.502,2.547-10.742,5.182-16.674,6.629
			c-6.031,1.475-11.42,0.115-17.408-0.082c-0.746-0.024-1.566,0.697-1.484,1.484c0.021,0.207,0.043,0.413,0.064,0.619
			C260.402,348.044,262.859,348.044,263.051,346.217L263.051,346.217z"/>
	</g>
</g>
<g>
	<g>
		<path d="M133.741,292.212c2.135,4.194,3.204,8.991,3.908,13.603c0.589,3.861,1.365,8.127,4.698,10.609
			c7.53,5.612,17.366,5.521,26.15,3.75c0.567-0.115,0.567-1.029,0-1.145c-7.953-1.604-16.238-0.393-23.526-4.61
			c-4.528-2.62-4.541-9.619-5.661-14.135c-0.74-2.981-2.353-6.384-3.992-8.996C134.69,290.285,133.207,291.163,133.741,292.212
			L133.741,292.212z"/>
	</g>
</g>
<g>
	<g>
		<path d="M140.281,282.88c-0.46-3.274-4.129,0.294-4.852,1.554c-2.896,5.051-2.949,12.412-2.115,18.002
			c0.088,0.588,1.094,0.586,1.183,0c0.544-3.58,0.795-7.213,1.506-10.765c0.297-1.483,0.445-3.005,0.808-4.47
			c0.136-0.553,2.223-3.289,1.989-3.913C139.151,284.232,140.417,283.852,140.281,282.88L140.281,282.88z"/>
	</g>
</g>
<g>
	<g>
		<path d="M259.762,287.627c1.297-1.72,4.078-2.693,5.848-3.785c2.199-1.357,4.504-2.619,6.652-4.04
			c0.912-0.603,0.684-2.413-0.613-2.266c-3.188,0.362-5.744,2.391-8.373,4.075c-2.037,1.306-4.61,2.43-5.817,4.669
			C256.619,287.834,258.75,288.968,259.762,287.627L259.762,287.627z"/>
	</g>
</g>
<g>
	<g>
		<path d="M138.745,281.229c0.037-0.18,0.074-0.359,0.111-0.539c0.09-0.241-0.01-0.578-0.196-0.748
			c-2.481-2.238-7.738-0.031-10.402,0.752c-2.493,0.734-4.937,0.813-7.405,1.839c-4.604,1.909-8.907,3.884-13.715,5.323
			c-7.636,2.287-15.333,5.967-22.41,9.602c-6.869,3.527-13.836,8.158-17.711,15.033c-0.333,0.589,0.469,1.238,0.947,0.73
			c10.473-11.126,25.604-17.867,39.932-22.619c3.41-1.132,6.827-1.988,10.104-3.496c2.143-0.985,4.055-2.149,6.316-2.897
			c1.141-0.377,2.426-0.226,3.588-0.562c1.069-0.309,9.862-3.252,9.928-2.418C137.876,281.82,138.691,281.814,138.745,281.229
			L138.745,281.229z"/>
	</g>
</g>
<g>
	<g>
		<path d="M111.646,288.035c0.183-3.098-10.039-1.719-11.438-1.598c-9.856,0.854-18.333,5.334-26.705,10.379
			c-0.554,0.334-0.192,1.283,0.45,1.065c7.964-2.692,15.166-7.495,23.61-8.71c1.046-0.15,13.515-1.811,13.519-1.138
			C111.084,288.4,111.625,288.396,111.646,288.035L111.646,288.035z"/>
	</g>
</g>
<g>
	<g>
		<path d="M107.913,283.802c-3.587-1.797-5.588-3.274-9.812-3.448c-4.651-0.189-9.608,1.551-13.883,3.162
			c-0.829,0.313-0.783,1.703,0.222,1.645c4.035-0.239,7.945-1.328,11.953-1.811c4.007-0.48,7.423,1.869,11.214,1.576
			C108.159,284.883,108.492,284.092,107.913,283.802L107.913,283.802z"/>
	</g>
</g>
<g>
	<g>
		<path d="M115.229,252.531c0.055-0.012,0.107-0.024,0.16-0.037c-0.414-0.235-0.829-0.471-1.244-0.707
			c2.527,9.975-2.661,20.169-3.039,30.061c-0.04,1.039,1.433,1.15,1.738,0.235c1.761-5.261,3.212-10.906,3.857-16.426
			c0.539-4.606,1.359-10.329-0.708-14.649c-0.815-1.703-3.074,1.033-1.143,1.486C114.981,252.523,115.097,252.563,115.229,252.531
			L115.229,252.531z"/>
	</g>
</g>
<g>
	<g>
		<path d="M237.707,250.281c-0.748,9.898,1.78,18.273,9.647,24.64c0.605,0.491,1.527-0.116,1.115-0.86
			c-1.902-3.427-4.322-6.498-6.24-9.916c-1.574-2.807-1.819-5.771-1.99-8.912c-0.086-1.586-0.864-3.285-1.016-4.95
			C239.137,249.311,237.781,249.3,237.707,250.281L237.707,250.281z"/>
	</g>
</g>
<g>
	<g>
		<path d="M168.967,318.794c-5.685,0.522-11.234,4.349-16.528,6.332c-6.558,2.459-13.128,4.997-19.79,7.157
			c-14.044,4.552-28.611,8.134-42.871,11.977c-6.469,1.743-12.979,2.727-19.563,3.846c-0.798,0.136-2.151,0.928-2.804,0.229
			c-1.079-1.152-2.246-2.229-3.385-3.322c-2.348-2.256-4.684-4.519-7.064-6.738c-5.201-4.85-10.766-10.742-8.682-18.391
			c1.492-5.473,5.251-10.041,6.649-15.604c0.182-0.723-0.826-0.963-1.088-0.301c-2.974,7.496-9.805,14.322-8.182,22.898
			c0.906,4.791,4.876,8.9,8.153,12.223c4.124,4.176,8.513,8.096,12.504,12.405c0.328,0.354,0.979,0.563,1.443,0.382
			c2.78-1.088,5.782-1.252,8.71-1.685c4.771-0.705,9.453-1.788,14.115-3.009c9.631-2.521,19.119-5.561,28.751-8.09
			c8.754-2.297,17.185-5.131,25.648-8.312c3.925-1.476,7.878-2.872,11.734-4.519c3.994-1.705,8.233-5.043,12.46-5.896
			C170.069,320.201,169.875,318.711,168.967,318.794L168.967,318.794z"/>
	</g>
</g>
<g>
	<g>
		<path d="M157.071,343.309c-14.97,0.119-29.936,4.121-44.229,8.237c-6.072,1.749-12.014,3.938-17.705,6.687
			c-2.604,1.257-5.021,2.858-7.642,4.084c-1.269,0.593-3.501,1.6-3.931,3.142c-1.684,6.06,8.84,5.994,12.832,6.261
			c15.846,1.059,31.662,2.506,47.523,3.317c15.331,0.786,30.824,0.399,46.171,0.106c7.413-0.142,14.726-0.854,22.078-1.771
			c3.24-0.404,6.438-0.995,9.615-1.751c2.106-0.502,5.604-1.077,7.2-2.83c3.138-3.446,3.861-8.16,4.146-12.67
			c0.271-4.315-5.709-6.002-8.779-6.611c-15.11-3.002-29.823-5.243-45.279-5.274c-5.039-0.012-10.099,0.416-15.114,0.869
			c-0.626,0.057-0.648,1.008,0,0.991c12.629-0.299,25.295,0.482,37.841,1.9c6.76,0.764,13.481,1.88,20.15,3.214
			c3.625,0.727,9.436,0.993,9.284,6.461c-0.098,3.604-0.903,8.314-4.037,10.572c-2.325,1.677-6.866,1.988-9.631,2.482
			c-3.639,0.652-7.354,0.901-11.022,1.33c-6.062,0.708-12.183,0.825-18.277,0.858c-12.872,0.069-25.846,0.249-38.709-0.191
			c-12.612-0.432-25.2-1.442-37.781-2.385c-5.842-0.438-12.081-0.272-17.832-1.376c-1.58-0.303-9.977-0.452-7.833-3.159
			c1.169-1.478,4.462-2.509,6.066-3.388c2.334-1.279,4.655-2.504,7.084-3.596c5.588-2.512,11.53-4.276,17.43-5.881
			c13.104-3.563,26.734-7.203,40.38-7.527C158.422,345.378,158.427,343.298,157.071,343.309L157.071,343.309z"/>
	</g>
</g>
<g>
	<g>
		<path d="M163.332,356.421c0.805,0,0.62,0.017,1.446-0.216c0.674-0.188,0.725-1.248,0-1.408
			c-5.764-1.279-17.221,0.044-18.226,7.487c-0.672,4.977,7.221,5.286,10.362,5.368c5.523,0.146,16.008-1.465,18.605-7.377
			c1.72-3.912-13.475-3.977-14.694-3.879c-0.359,0.029-0.491,0.596-0.092,0.67c4.047,0.748,8.159,1.08,12.232,1.67
			c3.895,0.563-1.149,4.099-2.428,4.662c-3.1,1.369-7.059,1.862-10.376,2.188c-3.046,0.297-6.499,0.055-9.414-0.818
			c-5.412-1.617,0.734-6.235,3.475-6.994c3.495-0.967,6.705-1.556,10.359-1.541c-0.21-0.366-0.421-0.732-0.631-1.101
			c-0.234,0.232-0.469,0.466-0.702,0.696C162.918,355.912,162.993,356.42,163.332,356.421L163.332,356.421z"/>
	</g>
</g>
<g>
	<g>
		<path d="M202.15,354.784c-0.231,0.011-0.467,0.021-0.698,0.03c0.381-0.479,0.239-1.086-0.347-1.306
			c-4.125-1.541-12.604,1.267-11.928,6.71c0.753,6.064,11.466,2.354,14.504,1.863c-0.395-0.161-0.791-0.321-1.186-0.482
			c1.776,3.357,4.762,3.277,7.524,1.065c0.437-0.349-0.049-0.927-0.492-0.845c-1.891,0.351-3.909,1.191-5.219-1.281
			c-0.174-0.326-0.549-0.516-0.908-0.521c-3.354-0.045-6.407,1.258-9.792,0.668c-1.484-0.136-1.714-1.215-0.687-3.236
			c0.827-0.725,1.759-1.27,2.796-1.635c0.562-0.229,4.601-1.137,4.691-0.799c0.077,0.289,0.476,0.498,0.742,0.301
			c0.332-0.112,0.664-0.227,0.996-0.338C202.275,354.973,202.275,354.791,202.15,354.784L202.15,354.784z"/>
	</g>
</g>
<g>
	<g>
		<path d="M184.141,350.297c-0.93-0.459-1.729-0.779-2.763-0.921c-0.946-0.13-1.854-0.84-2.818-1.049
			c-1.675-0.364-3.212,0.813-3.99,2.18c-1.38,2.421,0.043,6.903,3.398,5.849c0.66-0.209,0.96-1.287,0.211-1.619
			c-1.543-0.684-2.125-1.646-1.659-3.406c0.529-1.997,2.794-1.396,4.185-0.822c0.242,0.102,0.727-0.007,0.971-0.02
			c0.762-0.034,1.521,0.093,2.242,0.343C184.228,350.938,184.437,350.443,184.141,350.297L184.141,350.297z"/>
	</g>
</g>
<g>
	<g>
		<path d="M78.18,359.136c-0.417,0.005-0.837-0.006-1.253,0.021c-0.075,0.005-0.075,0.111,0,0.117
			c0.416,0.024,0.836,0.016,1.253,0.02C78.281,359.293,78.281,359.135,78.18,359.136L78.18,359.136z"/>
	</g>
</g>
<g>
	<path fill="#FFFFFF" d="M83.815,354.264c6.262,0,12.521,1.237,18.783,2.476c5.01,0.618,10.019,1.854,15.027,2.476
		c6.261,1.238,11.896,1.855,17.53,2.477c1.253,0.619,2.505,0.619,3.757,0.619c0.627,0.619,1.879,1.855,2.505,1.855
		s1.253,0,1.878-0.619c0,0,0-0.617,0.627-0.617c0.626-0.619,1.252-1.238,1.878-1.857c-1.878-0.618-3.13-2.477-5.009-3.096
		c-3.131-1.236-5.635-1.855-8.141-2.475c-5.636-1.238-10.644-3.714-16.277-4.333c-8.224-0.901-15.813,0.112-24-1.519
		c-8.703-1.731-17.16-3.782-24.788,2.17c1.342,2.683,4.326,2.789,7.463,3.063"/>
	<g>
		<path d="M83.815,354.809c14.384,1.69,28.453,5.332,42.811,7.211c3.27,0.429,6.528,1.035,9.783,1.459
			c1.971,0.256,2.87,1.513,4.646,2c2.387,0.656,4.401-2.145,5.715-3.438c0.598-0.589,0.521-1.76-0.276-2.152
			c-2.477-1.222-4.232-2.728-6.911-3.593c-3.275-1.058-6.657-1.743-9.97-2.666c-7.774-2.165-14.373-3.823-22.517-3.952
			c-3.674-0.057-7.322-0.128-10.982-0.486c-2.871-0.28-7.591-2.327-10.479-1.74c-3.022,0.613-6.253-0.68-9.362-0.165
			c-3.476,0.575-6.235,1.772-9.101,3.825c-0.339,0.244-0.57,0.734-0.294,1.125c2.001,2.842,4.865,3.076,8.173,3.025
			c0.416-0.006,0.533-0.662,0.101-0.744c-1.258-0.237-2.514-0.445-3.762-0.731c-6.323-1.445,1.994-4.147,2.287-4.252
			c2.932-1.045,8.774-1.819,11.718-0.24c2.187,1.173,6.129,1.254,8.583,1.692c3.115,0.558,6.318,0.638,9.474,0.722
			c7.789,0.208,14.907,0.498,22.385,2.917c2.996,0.969,6.021,1.742,9.064,2.537c4.001,1.044,6.675,3.29,10.209,5.094
			c-0.092-0.718-0.185-1.436-0.276-2.152c-0.772,0.768-2.488,1.641-2.773,2.772c-0.026,0.106-2.5-1.911-3.145-1.922
			c-5.563-0.093-11.739-1.464-17.248-2.345c-12.229-1.955-25.418-5.877-37.85-4.891C83.104,353.773,83.125,354.727,83.815,354.809
			L83.815,354.809z"/>
	</g>
</g>
<g>
	<g>
		<path d="M294.447,347.07c-6.67-0.992-11.053,6.397-13.11,11.824c-2.57,6.77,2.016,11.486,8.481,12.377
			c7.261,0.998,13.867-5.408,15.836-11.772c1.767-5.705-0.324-13.817-7.5-13.554c-0.436,0.017-0.7,0.683-0.239,0.889
			c4.887,2.197,7.239,5.293,6.399,10.877c-0.953,6.33-6.498,10.778-12.682,11.507c-15.248,1.796-7.498-20.259,2.813-21.792
			C294.625,347.4,294.625,347.096,294.447,347.07L294.447,347.07z"/>
	</g>
</g>
<g>
	<g>
		<path d="M293.822,356.484c6.275,5.139,15.146,6.469,23.115,7.322c0.451,0.049,0.656-0.688,0.236-0.871
			c-4.175-1.813-8.486-2.596-12.896-3.606c-3.356-0.771-6.93-2.91-10.299-3.228C293.793,356.085,293.676,356.364,293.822,356.484
			L293.822,356.484z"/>
	</g>
</g>
<g>
	<g>
		<path d="M351.795,357.614c-5.556-3.032-13.373-1.003-19.254-0.163c-5.271,0.752-13.687,3.162-15.767,8.798
			c-6.057,16.412,17.476,16.351,27.392,14.354c0.346-0.068,0.346-0.623,0-0.692c-8.306-1.671-31.789,1.612-24.908-14.013
			c2.112-4.795,10.885-6.168,15.471-6.805c5.336-0.742,11.35-1.621,16.744-0.716C351.913,358.453,352.238,357.855,351.795,357.614
			L351.795,357.614z"/>
	</g>
</g>
<g>
	<g>
		<path d="M352.488,358.549c-6.164-2.439-10.115,3.371-13.09,8.145c-3.021,4.845-7.695,13.586,0.318,15.451
			c0.616,0.145,1.184-0.652,0.653-1.121c-4.375-3.861-0.135-10.359,2.179-14.2c1.235-2.052,2.771-3.841,4.479-5.498
			c1.517-1.47,3.566-1.521,5.459-2.271C352.736,358.956,352.736,358.646,352.488,358.549L352.488,358.549z"/>
	</g>
</g>
<g>
	<g>
		<path d="M319.488,288.618c9.117,1.44,19.617-1.757,28.656-2.972c9.619-1.291,19.383-1.907,28.844-4.157
			c0.588-0.142,0.443-1.022-0.141-1.032c-9.611-0.156-19.193,1.316-28.703,2.564c-4.57,0.6-9.129,1.277-13.676,2.028
			c-4.914,0.812-10.244,0.91-14.98,2.479C319.008,287.689,318.896,288.523,319.488,288.618L319.488,288.618z"/>
	</g>
</g>
<g>
	<g>
		<path d="M53.135,329.057c-8.153,0.775-16.265,2.313-24.412,3.352c-8.638,1.102-17.496,1.699-25.812,4.451
			c-0.515,0.168-0.458,1.063,0.134,0.992c8.563-1.022,17.127-2.158,25.678-3.293c3.841-0.51,7.641-1.26,11.479-1.777
			c4.431-0.598,8.555-2.709,12.932-3.238C53.44,329.505,53.45,329.025,53.135,329.057L53.135,329.057z"/>
	</g>
</g>
<g>
	<g>
		<path d="M57.759,366.398c-3.142-2.555-4.281-6.633-6.408-9.98c-2.158-3.398-5.733-9.047-10.11-9.352
			c-0.586-0.041-0.958,0.49-1.008,1.007c-0.181,1.92-0.112,3.653,0.078,5.569c0.031,0.619,0.063,1.238,0.093,1.857
			c0.188,1.891-0.792,3.338-2.938,4.342c-0.516-0.611-1.44-0.078-1.47,0.609c-0.087,1.997-1.355,2.806-2.611,3.986
			c-1.315,1.237-1.139,0.379-2.523-0.002c-1.76-0.483-3.012,0.174-4.469,1.061c-2.933,1.783-5.439,4.424-8.193,6.477
			c-2.432,1.811-4.774,3.762-6.765,6.051c-0.401,0.463,0.098,1.115,0.648,0.84c3.185-1.594,5.77-4.17,8.617-6.287
			c2.904-2.159,7.199-7.641,11.12-5.462c2.551,1.415,5.582-4.589,5.867-6.435c-0.524,0.069-1.049,0.139-1.574,0.207
			c1.04,1.37,3.096,1.5,4.27,0.062c2.954-3.624,1.011-8.328,1.829-12.607c-0.413,0.234-0.826,0.47-1.238,0.703
			c3.746,1.179,7.28,7.192,9.21,10.179c1.123,1.737,1.968,3.635,3.091,5.375c0.894,1.385,2.822,3.586,4.486,2.284
			C57.895,366.773,57.891,366.507,57.759,366.398L57.759,366.398z"/>
	</g>
</g>
<g>
	<g>
		<path d="M14.942,378.79c12.718,1.188,25.229,0.259,37.897-0.842c5.938-0.517,11.862-2.166,17.816-2.171
			c2.003-0.002,3.854-0.131,5.748,0.478c1.021,0.328,2.024,0.642,3.081,0.347c0.509-0.142,0.734-0.556,0.794-1.043
			c0.58-4.664-13.358-3.186-15.248-3.185c-5.531,0.001-11.03-0.616-16.585-0.615c-2.401,0.001-4.805,0.001-7.208,0.003
			c-2.44,0-5.535,1.021-7.867,0.7c0.204,0.502,0.407,1.004,0.611,1.505c1.221-1.726,8.54-1.466,10.681-1.836
			c3.831-0.66,7.828-1.763,10.479-4.74c0.134-0.149-0.041-0.412-0.224-0.289c-4.423,2.928-10.28,5.013-15.688,4.422
			c-2.435-0.266-5.396-0.815-7.018,1.41c-0.363,0.5-0.009,1.41,0.612,1.506c3.375,0.514,6.861-0.537,10.291-0.537
			c4.792,0.002,9.613-0.146,14.399,0.101c5.031,0.261,9.972,0.524,15.027,0.526c1.191-0.072,2.348,0.121,3.469,0.58
			c0.636,0.143,1.207-0.094,1.71-0.704c-1.77-0.398-1.604-0.802-3.565-0.804c-4.135-0.004-7.864,0.178-11.923,0.946
			c-4.926,0.935-10.128,0.702-15.017,1.593c-10.653,1.939-21.538,0.867-32.276,1.873C14.441,378.061,14.441,378.743,14.942,378.79
			L14.942,378.79z"/>
	</g>
</g>
<g>
	<g>
		<path d="M50.631,363.291c10.438,0.941,19.914-0.492,30.239-1.74c0.948-0.113,5.421-0.27,0.811,0.451
			c-1.335,0.208-4.427,3.26-5.226,3.831c-1.847,1.317-4.945,2.438-7.016,3.246c-1.944,0.76-3.834,1.963-5.801,2.626
			c-0.538,0.182-0.479,1.07,0.14,1.031c3.658-0.226,7.4-2.303,10.646-3.924c2.461-1.229,4.497-2.447,6.682-4.133
			c1.896-1.463,3.006-1.146,4.531-2.884c0.3-0.342,0.417-0.836,0.161-1.245c-1.695-2.71-5.942-1.449-8.586-1.072
			c-4.758,0.678-9.545,1.566-14.347,1.813c-4.08,0.209-8.156-0.235-12.234,0.034C49.356,361.41,49.375,363.178,50.631,363.291
			L50.631,363.291z"/>
	</g>
</g>
<g>
	<g>
		<path d="M133.278,338.423c7.943,0.864,15.591-0.073,23.434-1.33c9.462-1.515,19.011-2.519,28.535-3.163
			c0.915-0.063,0.915-1.359,0-1.421c-7.782-0.526-15.71,1.029-23.388,2.124c-9.551,1.361-19.012,2.242-28.581,3.284
			C132.953,337.952,132.953,338.389,133.278,338.423L133.278,338.423z"/>
	</g>
</g>
<g>
	<g>
		<path d="M199.205,326.41c0.006-0.161,0.022-0.321,0.053-0.48c0.061-0.143,0.039-0.287-0.099-0.375
			c-2.491-1.604-6.742,1.704-8.58,3.312c-2.056,1.797-4.181,5.239-1.165,7.198c0.383,0.248,0.767-0.227,0.585-0.586
			c-1.357-2.693,1.047-4.98,3.051-6.504c0.786-0.598,5.762-2.978,5.786-2.563C198.849,326.648,199.191,326.648,199.205,326.41
			L199.205,326.41z"/>
	</g>
</g>
<g>
	<g>
		<path d="M195.697,327.223c0.535,0.51,1.387,1.211,2.128,1.297c0.953,0.107,1.887,0.142,2.847,0.153
			c0.667,0.003,1.335,0.015,2.003,0.033c1.043-0.134,1.895,0.192,2.553,0.979c-4.086,1.674-9.624-0.623-13.093,2.908
			c-0.439,0.446-0.281,1.346,0.39,1.479c3.745,0.742,7.68,0.027,11.506,0.504c-0.125-0.458-0.247-0.916-0.372-1.374
			c-1.638,0.696-9.449,1.159-10.072,3.426c-0.813,2.96,4.647,3.088,6.14,3.076c1.866-0.017,3.946-0.37,5.754-0.808
			c1.576-0.383,5.236-1.348,0.994-0.758c-8.748,1.217-16.798,0.059-24.49-4.527c-0.164,0.608-0.329,1.218-0.494,1.826
			c0.608,0.313,1.219,0.623,1.826,0.937c0.228-0.546,0.452-1.093,0.68-1.64c-3.939-0.012-7.264,1.186-11.119,1.783
			c-5.384,0.834-10.765,1.647-16.18,2.25c-10.517,1.172-21.063,1.86-31.558,3.258c-0.589,0.078-0.63,0.985,0,0.953
			c10.544-0.533,21.056-1.08,31.558-2.207c4.433-0.476,8.823-1.147,13.228-1.828c4.67-0.721,9.376-2.273,14.071-2.289
			c0.864-0.002,1.232-1.029,0.679-1.639c-0.996-1.093-1.682-1.455-3.185-1.537c-0.997-0.057-1.306,1.349-0.493,1.824
			c5.059,2.977,10.233,4.881,16.146,5.025c4.162,0.104,10.287,0.882,13.729-2.197c0.274-0.245,0.307-0.688,0.129-0.994
			c-1.142-1.975-4.738-0.003-6.345,0.199c-1.202,0.15-2.356,0.445-3.575,0.596c-0.794,0.1-5.646-0.856-5.329-0.977
			c2.773-1.042,5.727-1.247,8.475-2.406c0.783-0.33,0.65-1.34-0.195-1.447c-1.905-0.242-3.262-0.812-5.197-0.713
			c-1.991,0.102-3.844,0.381-5.838-0.021c0.13,0.492,0.26,0.984,0.39,1.479c3.001-3.031,9.589-1.3,13.392-2.843
			c0.451-0.183,0.791-0.603,0.636-1.119c-1.675-5.6-8.16-0.384-11.329-3.046C195.817,326.614,195.438,326.977,195.697,327.223
			L195.697,327.223z"/>
	</g>
</g>
<g>
	<path fill="#FF0000" d="M346.743,366.499c5.634,0,11.42,1.103,17.064,1.61c1.906,0.17,4.565,0.399,6.131,1.463
		c-1.938,2.607-5.131,3.748-7.297,5.822c2.135,3.045,11.807-0.108,14.756-0.345c1.812-0.146,4.912-0.635,6.285,0.938
		c0.865,0.988,0.285,2.393,1.029,3.474c0.666,0.968,2.52,0.61,2.735,2.017c0.289,1.873-6.119,4.402-7.194,6.135
		c1.821,3.231,14.182,0.527,13.911,5.584c-0.188,3.479-7.272,2.349-9.407,1.979c-13.213-2.296-25.886,1.276-39.076,0.355
		c-3.478-0.242-16.699,1.539-18.642-2.106c2.345-2.267,4.906-3.666,7.966-4.922c4.147-1.704,8.225-3.56,12.487-4.979
		c1.611-0.535,7.097-1.312,8.164-2.823c1.33-1.88-1.672-3.109-3.248-4.205c-3.256-2.269-6.453-3.166-10.604-2.306
		c1.703-0.354,1.287-4.799,1.811-5.834c0.627-0.619,3.129-1.856,4.381-2.477"/>
	<g>
		<path d="M346.743,367.521c3.818,0.197,7.593,0.578,11.384,1.063c3.608,0.461,7.94,0.293,11.237,1.973
			c-0.078-0.597-0.153-1.193-0.229-1.789c-2.07,2.396-4.892,3.808-7.271,5.853c-0.457,0.394-0.395,1.149,0,1.553
			c3.67,3.75,11.172,0.532,15.533-0.038c2.492-0.324,4.799-0.945,5.965,2.428c0.392,1.127,0.465,1.664,1.525,2.285
			c2.246,1.315-4.59,4.782-5.521,5.883c-0.481,0.569-0.448,1.195,0,1.77c1.781,2.275,5.552,2.152,8.154,2.41
			c1.09,0.107,2.172,0.24,3.246,0.453c1.293,0.127,1.832,1.049,1.621,2.766c-0.781,0.338-1.594,0.551-2.438,0.637
			c-2.893,0.476-6.08-0.287-8.957-0.527c-14.032-1.172-28.282-0.237-42.368,0.189c-2.435,0.074-4.894,0.071-7.31-0.269
			c-5.19-0.729,4.773-4.8,5.783-5.226c3.75-1.578,7.432-3.414,11.354-4.537c2.082-0.597,4.578-0.731,6.466-1.873
			c1.981-1.197,2.907-3.442,0.702-5.07c-4.409-3.256-8.555-5.075-14.071-4.186c0.246,0.584,0.492,1.166,0.737,1.75
			c1.275-0.727,1.535-1.822,1.781-3.233c0.59-3.396,1.342-3.47,4.328-5.214c0.76-0.443,0.238-1.813-0.613-1.459
			c-1.627,0.68-3.567,1.308-4.838,2.578c-1.385,1.385,0.324,4.573-1.625,5.674c-1.012,0.572-0.276,1.91,0.738,1.752
			c4.774-0.75,7.818,0.962,11.69,3.393c2.853,1.788-6.049,3.818-6.551,3.957c-7.069,1.956-15.498,5.152-21.053,10.069
			c-0.393,0.348-0.512,1.095-0.197,1.528c3.408,4.739,12.789,2.944,17.705,2.756c5.658-0.219,11.26,0.091,16.935-0.373
			c7.354-0.603,14.817-2.157,22.151-1.08c2.41,0.354,14.564,3.289,12.445-3.131c-1.984-6.021-10.963-1.53-14.049-5.504
			c0,0.59,0,1.18,0,1.77c1.772-2.083,6.459-3.348,7.246-6.213c0.233-0.85,0.004-1.665-0.636-2.305
			c-1.141-1.141-1.938-1.582-2.737-3.385c-3.588-8.06-16.738,3.076-21.595-1.978c0,0.519,0,1.034,0,1.553
			c2.427-2.049,5.214-3.387,7.328-5.794c0.461-0.525,0.457-1.432-0.229-1.79c-2.701-1.405-5.607-1.505-8.594-1.795
			c-5.068-0.493-10.07-1.371-15.179-1.315C345.42,365.492,345.436,367.452,346.743,367.521L346.743,367.521z"/>
	</g>
</g>
<ellipse fill="#FFFFFF" cx="355.493" cy="388.199" rx="7.648" ry="2.326"/>
<g>
	<g>
		<path d="M93.131,199.255c-7.106,1.972-13.986,4.832-21.013,7.076c-7.171,2.29-14.433,3.69-21.79,5.177
			c-7.825,1.582-15.539,4.46-22.984,7.284c-4.229,1.604-9.697,0.94-12.708,4.948c-0.513,0.682,0.188,1.617,0.933,1.625
			c0.417,0.004,0.834,0.008,1.252,0.012c-0.363-0.363-0.728-0.729-1.091-1.092c0.079,2.773,1.439,4.285,2.483,6.861
			c1.421,3.51,2.492,7.189,3.602,10.806c2.247,7.313,3.966,14.754,5.215,22.302c2.51,15.154,4.116,30.447,6.732,45.607
			c0.118,0.688,1.231,0.521,1.204-0.162c-0.563-14.096-2.736-28.506-4.782-42.448c-1.104-7.535-2.715-14.938-4.797-22.265
			c-1.063-3.739-2.361-7.406-3.665-11.068c-0.977-2.741-3.681-6.838-3.81-9.633c-0.027-0.59-0.477-1.098-1.092-1.092
			c-0.417,0.004-0.834,0.008-1.252,0.012c0.312,0.542,0.622,1.083,0.934,1.625c2.907-4.014,12.618-4.174,16.914-5.59
			c7.102-2.34,13.871-4.893,21.276-6.227c13.046-2.349,27.215-6.358,38.658-13.244C93.623,199.606,93.443,199.169,93.131,199.255
			L93.131,199.255z"/>
	</g>
</g>
<rect x="0" fill="none" stroke="#000000" stroke-width="3.7403" width="400" height="400"/>
<g>
	<g>
		<g>
			<path fill="#333333" d="M27.698,23.146c-3.139-1.044-6.242-1.996-9.426-2.902c-1.188-0.242-2.247-0.759-3.178-1.553
				c0.785-0.838,1.681-1.523,2.688-2.057c0.913-0.553,1.663-1.257,2.479-1.938c4.424-3.691,6.582,6.019,7.469,8.073
				c1.806,4.179,2.557,8.566,4.132,12.773c0.247,0.659,1.166,0.402,1.047-0.289c-0.691-4.016-1.856-7.81-3.438-11.564
				c-1.332-3.162-2.192-6.54-4.268-9.318c-0.749-1.001-2.278-2.286-3.63-1.494c-2.845,1.667-4.909,4.289-8.009,5.676
				c-0.423,0.189-0.374,0.849,0,1.053c4.217,2.304,9.271,3.209,13.881,4.46C28.043,24.227,28.278,23.338,27.698,23.146
				L27.698,23.146z"/>
		</g>
	</g>
	<g>
		<g>
			<path fill="#333333" d="M17.629,23.729c-0.097-0.054-0.194-0.107-0.291-0.161c-0.182-0.101-0.43-0.05-0.534,0.14
				c-2.052,3.739,1.483,9.264,3.303,12.559c0.403,0.731,1.34,0.311,1.425-0.386c0.321-2.632-4.377-11.956-7.854-9.844
				c-3.292,2,4.296,13.437,4.279,15.868c0.464-0.125,0.928-0.251,1.392-0.377c-0.607-1.039-0.517-0.991-1.502-1.571
				c-0.302-0.178-0.646-0.104-0.899,0.116c-0.953,0.83-0.901,0.776-0.917,2.038c-0.044,3.648,0.335,6.851-0.762,10.444
				c-0.208,0.68,0.866,1.157,1.164,0.491c0.683-1.532,1.141-2.924,1.269-4.631c0.063-0.844-0.069-6.87,0.357-6.133
				c0.376,0.651,1.383,0.36,1.392-0.377c0.038-2.965-2.196-6.535-3.342-9.191c-0.318-0.712-0.613-1.434-0.884-2.165
				c0.029,0.075-1.163-4.337,0.785-2.402c1.616,1.605,4.496,4.97,4.021,7.53c0.466-0.061,0.932-0.122,1.397-0.183
				c-1.207-2.275-2.246-4.594-3.143-7.011c-0.283-0.761-0.818-4.038-0.939-4.084C17.74,24.551,17.986,23.926,17.629,23.729
				L17.629,23.729z"/>
		</g>
	</g>
	<g>
		<g>
			<path fill="#333333" d="M27.636,62.453c0.148,0.586,0.491,0.792,0.937,1.218c0.201-0.345,0.402-0.69,0.603-1.035
				c-4.217-1.559-8.316-2.795-12.395-4.818c-1.386-0.688-2.944-1.72-4.538-1.727c-1.155-0.005-1.194,1.228-0.992,2.022
				c0.596,2.341,3.584,3.606,5.501,4.537c0.293,0.143,0.648-0.241,0.369-0.479c-1.46-1.246-3.022-2.219-4.091-3.866
				c-0.724-1.115,2.638,0.689,2.97,0.844c4.294,2.011,8.238,3.552,12.845,4.68c0.788,0.193,1.103-1.068,0.329-1.194
				c-0.32-0.142-0.641-0.285-0.96-0.427C28.015,61.918,27.545,62.093,27.636,62.453L27.636,62.453z"/>
		</g>
	</g>
	<g>
		<g>
			<path fill="#333333" d="M30.458,68.139c-2.088-1.076-4.163-2.214-6.405-2.933c-2.845-0.912-5.635-1.254-8.337-2.645
				c1.497-4.377,2.466-5.014,2.907-1.911c-0.19,0.852-0.455,1.68-0.794,2.486c-0.519,1.107-0.971,2.236-1.395,3.383
				c-0.56,1.515-1.267,2.896-0.249,4.306c0.274,0.38,0.831,0.537,1.19,0.153c1.172-1.251,2.473-2.138,1.095-3.851
				c-0.706-0.878-2.487-2.34-3.518-0.958c-1.741,2.334-0.172,10.161,3.001,6.509c0.461-0.531-0.17-1.517-0.8-1.037
				c-0.477-0.581-0.954-1.161-1.431-1.741c0.004-0.514,0.056-1.024,0.155-1.531c0.281-1.816,1.109,0.816,0.426,1.536
				c0.396,0.051,0.793,0.102,1.19,0.153c-0.846-1.949,1.932-5.523,2.326-7.208c0.229-0.975,1.054-3.067,0.342-4.041
				c-1.595-2.18-4.293-2.388-6.255-0.595c-2.507,2.292-0.335,4.885,1.884,6.011c1.831,0.929,3.751,1.416,5.755,1.807
				c3.015,0.588,5.711,1.839,8.529,3.01C30.598,69.262,30.952,68.393,30.458,68.139L30.458,68.139z"/>
		</g>
	</g>
	<g>
		<g>
			<path fill="#333333" d="M22.717,78.415c0.51-0.076,0.549-0.135,0.901-0.531c0.288-0.323,0.238-0.794-0.133-1.03
				c-2.797-1.788-8.21-5.133-11.551-3.648c-0.249,0.11-0.353,0.403-0.373,0.65c-0.445,5.495,8.923,7.167,12.385,8.875
				c0.557,0.274,1.046-0.547,0.489-0.837c-2.303-1.198-4.575-2.459-6.965-3.48c-0.35-0.149-0.703-0.289-1.062-0.417
				c-0.567-0.25-1.134-0.501-1.701-0.751c0.016-5.474,0.841-6.06,2.477-1.758c-1.25,3.762-3.33,7.721-3.713,11.692
				c-0.739,7.661,18.419-2.25,20.888,3.099c0.349,0.756,1.656,0.209,1.35-0.569c-1.895-4.805-9.969-2.588-13.614-1.79
				c-1.975,0.433-7.877,2.236-6.671-2.68c0.374-1.525,1.199-2.984,1.685-4.49c0.869-2.694,3.03-6.213,1.559-8.97
				c-1.409-2.642-7.094,0.677-7.052,3.119c0.033,1.909,0.682,2.677,2.326,3.656c3.06,1.822,6.824,2.866,10.12,4.224
				c0.086-0.312,0.172-0.623,0.258-0.935c-3.457-1.305-7.496-2.28-10.208-4.891c-0.024-0.849-0.049-1.697-0.073-2.546
				c1.357,0.302,2.657,0.775,3.898,1.417c1.294,0.577,3.071,1.841,4.488,1.527C21.716,77.509,22.032,78.516,22.717,78.415
				L22.717,78.415z"/>
		</g>
	</g>
	<g>
		<g>
			<path fill="#333333" d="M20.411,103.405c0.056,0.176,0.086,0.355,0.092,0.538c0.031,0.577,0.934,0.578,0.898,0
				c-0.071-1.167-0.61-2.258-0.669-3.438c-0.05-1.004,0.784,0.088,0.915,0.6c0.107,0.419,0.129,0.862,0.19,1.29
				c0.178,1.241,0.329,2.505,0.553,3.741c0.054,0.299,0.509,0.216,0.514-0.07c0.024-1.211,0.161-7.967-2.517-6.957
				c-0.767,0.29-0.699,1.341-0.599,1.99c0.092,0.596,0.237,1.178,0.395,1.759c0.059,0.216,0.12,0.431,0.179,0.646
				c0.027,0.113,0.059,0.224,0.097,0.333c0.075,0.335,0.142,0.168,0.201-0.5C20.609,103.179,20.37,103.243,20.411,103.405
				L20.411,103.405z"/>
		</g>
	</g>
	<g>
		<g>
			<path fill="#333333" d="M28.65,112.553c0.086,0.058,0.172,0.115,0.258,0.172c0.347,0.231,0.646-0.413,0.225-0.533
				c-3.285-0.937-6.28-1.921-9.406-3.354c-2.365-1.084-4.755-1.957-7.378-1.992c-0.352-0.005-0.382,0.473-0.079,0.583
				c3.442,1.25,6.792,2.485,10.162,3.941c2.103,0.908,4.175,1.492,6.254,0.904C28.554,112.312,28.542,112.481,28.65,112.553
				L28.65,112.553z"/>
		</g>
	</g>
	<g>
		<g>
			<path fill="#333333" d="M25.942,116.943c0.102,0.104,0.203,0.209,0.304,0.313c0.198,0.26,0.59,0.045,0.443-0.259
				c-0.542-1.123-4.783-5.124-6.104-3.565c-1.515,1.787,0.124,4.993,0.78,6.854c0.187,0.53,1.016,0.617,1.162,0
				c0.2-0.437,0.235-0.596,0.107-0.477c0.241-0.396-0.002-0.851-0.404-0.995c-2.466-0.883-4.729-2.475-7.319-2.964
				c-0.529-0.1-0.791,0.54-0.358,0.85c1.391,0.998,3.043,1.622,4.582,2.367c0.667,0.323,0.875,0.443,1.534,0.645
				c0.879,0.268,0.728-0.262,0.675,0.415c0.395-0.053,0.789-0.107,1.184-0.16c-0.209-1.46-0.7-2.878-1.053-4.311
				c-0.495-2.01,1.804-0.306,2.199-0.062c0.379,0.207,0.746,0.435,1.101,0.683c0.187,0.125,0.374,0.25,0.561,0.376
				c0.299,0.5,0.534,0.553,0.706,0.16C25.966,116.759,25.874,116.881,25.942,116.943L25.942,116.943z"/>
		</g>
	</g>
</g>
</svg>
